<svg xmlns="http://www.w3.org/2000/svg" xmlns:xlink="http://www.w3.org/1999/xlink" version="1.1" x="0px" y="0px" viewBox="0 0 100 125" enable-background="new 0 0 100 100" xml:space="preserve"><path d="M50,25C25.1,25,5,45.1,5,70c0,1.7,0.1,3.4,0.3,5h89.4c0.2-1.6,0.3-3.3,0.3-5C95,45.1,74.9,25,50,25z M49,28h2v10h-2V28z   M18,71H8v-2h10V71z M20.1,58.5l-9.2-3.9l0.8-1.8l9.2,3.9L20.1,58.5z M26.7,48.1L19.6,41l1.4-1.4l7.1,7.1L26.7,48.1z M37,40.7  l-3.8-9.3l1.9-0.8l3.8,9.3L37,40.7z M54.8,68.1c-1.8,2.9-5.8,3.4-8.2,1s-1.9-6.5,1-8.2L65.6,50L54.8,68.1z M63.4,40.9l-1.8-0.8  l3.9-9.2l1.8,0.8L63.4,40.9z M71.9,46.7l7.1-7.1l1.4,1.4l-7.1,7.1L71.9,46.7z M79.3,57l9.3-3.8l0.8,1.9L80,58.9L79.3,57z M92,71H82  v-2h10V71z"/><text x="0" y="115" fill="#000000" font-size="5px" font-weight="bold" font-family="'Helvetica Neue', Helvetica, Arial-Unicode, Arial, Sans-serif">Created by Guilhem</text><text x="0" y="120" fill="#000000" font-size="5px" font-weight="bold" font-family="'Helvetica Neue', Helvetica, Arial-Unicode, Arial, Sans-serif">from the Noun Project</text></svg>