<?xml version="1.0" encoding="UTF-8" standalone="no"?>
<!-- Created with Inkscape (http://www.inkscape.org/) -->

<svg
   xmlns:dc="http://purl.org/dc/elements/1.1/"
   xmlns:cc="http://creativecommons.org/ns#"
   xmlns:rdf="http://www.w3.org/1999/02/22-rdf-syntax-ns#"
   xmlns:svg="http://www.w3.org/2000/svg"
   xmlns="http://www.w3.org/2000/svg"
   xmlns:sodipodi="http://sodipodi.sourceforge.net/DTD/sodipodi-0.dtd"
   xmlns:inkscape="http://www.inkscape.org/namespaces/inkscape"
   width="126.0128"
   height="98.239662"
   id="svg2"
   version="1.1"
   inkscape:version="0.48.4 r9939"
   sodipodi:docname="since2008.svg">
  <defs
     id="defs4">
    <inkscape:path-effect
       bendpath-nodetypes="csc"
       vertical="false"
       scale_y_rel="false"
       prop_scale="1.5"
       bendpath="M 14.580567,76.508401 C 26.449814,106.16099 50.455146,132.21802 84.595865,131.6635 123.67893,131.02871 155.33318,105.6923 168.79405,76.171269"
       is_visible="true"
       id="path-effect5717"
       effect="bend_path" />
    <filter
       color-interpolation-filters="sRGB"
       inkscape:collect="always"
       id="filter3327">
      <feGaussianBlur
         inkscape:collect="always"
         stdDeviation="6.1307781"
         id="feGaussianBlur3329" />
    </filter>
  </defs>
  <sodipodi:namedview
     id="base"
     pagecolor="#ffffff"
     bordercolor="#666666"
     borderopacity="1.0"
     inkscape:pageopacity="0.0"
     inkscape:pageshadow="2"
     inkscape:zoom="2.8"
     inkscape:cx="98.731938"
     inkscape:cy="-9.6584131"
     inkscape:document-units="px"
     inkscape:current-layer="layer1"
     showgrid="false"
     fit-margin-top="0"
     fit-margin-left="0"
     fit-margin-right="0"
     fit-margin-bottom="0"
     inkscape:window-width="1301"
     inkscape:window-height="744"
     inkscape:window-x="65"
     inkscape:window-y="24"
     inkscape:window-maximized="1" />
  <metadata
     id="metadata7">
    <rdf:RDF>
      <cc:Work
         rdf:about="">
        <dc:format>image/svg+xml</dc:format>
        <dc:type
           rdf:resource="http://purl.org/dc/dcmitype/StillImage" />
        <dc:title></dc:title>
      </cc:Work>
    </rdf:RDF>
  </metadata>
  <g
     inkscape:label="Calque 1"
     inkscape:groupmode="layer"
     id="layer1"
     transform="translate(485.86354,-14.670921)">
    <g
       id="g5719"
       transform="matrix(0.18471035,0,0,0.18471035,-492.74692,-39.02705)"
       style="fill:#bec841;fill-opacity:1;stroke:none;enable-background:new"
       inkscape:export-filename="/home/reuillon/Projects/openmole-com/slides/images/since2008.png"
       inkscape:export-xdpi="200"
       inkscape:export-ydpi="200">
      <path
         transform="matrix(0.63569946,0,0,0.63569946,516.06451,198.26174)"
         id="path3159"
         d="m -454.55347,160.14852 c -47.17443,19.69002 -92.15113,46.9418 -84.30445,103.69785 60.92532,-3.51507 75.22146,-53.11195 84.30445,-103.69785 z m 475.91635,0 c 9.08299,50.5859 23.3791,100.18278 84.30446,103.69785 7.84667,-56.75605 -37.12999,-84.00783 -84.30446,-103.69785 z m -596.73591,22.75884 c -24.97584,44.60199 -43.5914,93.7846 -2.39788,133.60827 45.77722,-40.35718 26.46138,-88.19472 2.39788,-133.60827 z m 717.55547,0 c -24.0635,45.41355 -43.42142,93.25109 2.35582,133.60827 41.19352,-39.82367 22.62004,-89.00628 -2.35582,-133.60827 z m -612.76385,73.74537 c -49.01716,14.50673 -96.65002,36.75155 -94.94769,94.02219 60.9503,3.05218 80.48142,-44.70522 94.94769,-94.02219 z m 507.93016,0 c 14.46627,49.31697 33.99736,97.07437 94.94769,94.02219 1.70234,-57.27064 -45.93051,-79.51546 -94.94769,-94.02219 z m -666.94755,28.39596 c -15.3991,48.74424 -23.60141,100.70701 24.82018,131.33659 36.62903,-48.81164 7.96328,-91.75528 -24.82018,-131.33659 z m 825.96495,0 c -32.78346,39.58131 -61.44921,82.52495 -24.82018,131.33659 48.42159,-30.62958 40.21925,-82.59235 24.82018,-131.33659 z m -718.60718,64.82693 c -43.43794,26.94951 -83.5026,60.98852 -66.71999,115.7714 59.58862,-13.17015 65.80653,-64.38463 66.71999,-115.7714 z m 611.29147,0 c 0.91346,51.38677 7.13136,102.60125 66.72,115.7714 16.78261,-54.78288 -23.28202,-88.82189 -66.72,-115.7714 z m -758.86633,46.19077 c 2.62098,51.05158 13.1261,102.62265 69.20201,114.38315 17.24465,-58.53955 -24.64591,-88.767 -69.20201,-114.38315 z m 906.39913,0 c -44.5561,25.61615 -86.4046,55.8436 -69.15994,114.38315 56.07591,-11.7605 66.53895,-63.33157 69.15994,-114.38315 z m -763.19935,41.31087 c -36.31794,35.974 -67.76466,78.15513 -39.16539,127.80287 55.13921,-26.1518 49.75717,-77.51129 39.16539,-127.80287 z m 620.04163,0 c -10.59178,50.29158 -15.97383,101.65107 39.1654,127.80287 28.59927,-49.64774 -2.84744,-91.82887 -39.1654,-127.80287 z m -775.90391,65.41589 c 21.85849,46.20964 51.15332,89.85505 107.48397,79.38249 -6.33925,-60.69649 -56.53101,-72.65727 -107.48397,-79.38249 z m 931.7662,0 c -50.95296,6.72522 -101.18678,18.686 -107.52605,79.38249 56.33066,10.47256 85.66756,-33.17285 107.52605,-79.38249 z m -757.35189,25.95601 c -31.96016,39.8959 -58.36911,85.37409 -24.27329,131.42072 51.78229,-32.29335 40.55375,-82.6726 24.27329,-131.42072 z m 582.93757,0 c -16.28046,48.74812 -27.55107,99.12737 24.23122,131.42072 34.09582,-46.04663 7.72893,-91.52482 -24.23122,-131.42072 z m -542.97288,56.87606 c -24.00591,45.13149 -41.53984,94.72645 0.50481,133.65034 44.89413,-41.3373 24.53465,-88.76757 -0.50481,-133.65034 z m 503.00819,0 C 9.86934,630.50799 -10.53225,677.93826 34.36192,719.27556 76.40657,680.35167 58.91473,630.75671 34.9088,585.62522 z m -701.48545,0.9255 c 27.19101,43.28718 61.46149,83.17652 116.15,66.08898 -13.50174,-59.51438 -64.75896,-65.46179 -116.15,-66.08898 z m 899.96272,0 c -51.39103,0.62719 -102.69029,6.5746 -116.19208,66.08898 54.68853,17.08754 89.00109,-22.8018 116.19208,-66.08898 z m -656.89328,52.16444 c -8.37773,50.42762 -9.1763,102.99701 43.07772,126.49875 29.38645,-53.48545 -5.0446,-91.93126 -43.07772,-126.49875 z m 413.78177,0 c -38.03313,34.56749 -72.46416,73.0133 -43.07773,126.49875 52.25402,-23.50174 51.4555,-76.07113 43.07773,-126.49875 z m -561.44078,27.26012 c -15.13157,0.15877 -31.05687,2.45601 -46.86385,5.30058 34.88637,37.36401 76.11259,70.0307 126.58289,42.90946 -16.85263,-38.4224 -46.42958,-48.55933 -79.71904,-48.21004 z m 704.5985,0 c -31.43807,0.61499 -59.13117,11.5341 -75.21775,48.21004 50.47029,27.12124 91.69654,-5.54545 126.58289,-42.90946 -17.38768,-3.12902 -34.89758,-5.62272 -51.36514,-5.30058 z m -494.46838,39.37574 c 18.69139,47.579 44.98014,93.14072 101.88893,86.492 -2.23023,-60.98595 -51.50574,-76.34487 -101.88893,-86.492 z m 288.8816,0 c -50.38318,10.14713 -99.70074,25.50605 -101.93099,86.492 56.90879,6.64872 83.23962,-38.913 101.93099,-86.492 z m -411.97284,23.85261 c -21.54061,0.45709 -44.42214,8.08652 -66.88826,16.78517 41.3561,30.04671 88.03968,54.27278 132.43035,18.04721 -18.43171,-26.67127 -41.12939,-35.35042 -65.54209,-34.83238 z m 530.47866,0 c -22.67658,0.62434 -43.71899,9.82807 -60.99873,34.83238 44.39067,36.22557 91.07427,11.9995 132.43036,-18.04721 -22.46613,-8.69865 -45.34766,-16.32808 -66.88827,-16.78517 -1.5258,-0.0324 -3.03158,-0.0416 -4.54336,0 z m -433.3855,45.72801 c -28.57265,0.54063 -55.89502,18.52211 -81.94864,38.2399 48.02167,17.52281 99.57975,28.01642 132.30415,-19.01478 -16.21042,-13.31527 -32.08626,-18.90009 -47.57901,-19.22512 -0.92429,-0.0194 -1.8548,-0.0174 -2.7765,0 z m 338.0592,0 c -15.49275,0.32503 -31.32652,5.90985 -47.53694,19.22512 32.7244,47.0312 84.24042,36.53759 132.26209,19.01478 -26.89406,-20.35385 -55.14807,-38.8604 -84.72515,-38.2399 z m -167.64135,16.74311 c -9.75825,0 -17.66859,7.91036 -17.6686,17.66859 0,9.75827 7.91035,17.71066 17.6686,17.71067 9.75825,0 17.6686,-7.95238 17.6686,-17.71067 0,-9.75826 -7.91034,-17.66861 -17.6686,-17.66859 z m -75.21775,14.68176 c -31.22557,0.0382 -59.16828,21.80577 -85.4403,45.43354 49.33078,13.40181 101.60996,19.46555 130.24282,-30.16282 -15.70702,-10.81607 -30.60908,-15.28807 -44.80252,-15.27072 z m 150.4355,0 c -14.19344,-0.0174 -29.05345,4.45465 -44.76045,15.27072 28.63286,49.62837 80.86999,43.56463 130.20075,30.16282 -26.27202,-23.62777 -54.21473,-45.39536 -85.4403,-45.43354 z"
         style="fill:#bec841;fill-opacity:1;fill-rule:evenodd;stroke:none;filter:url(#filter3327)"
         inkscape:connector-curvature="0" />
      <g
         transform="matrix(0.43294876,0,0,0.43294876,206.8448,414.4629)"
         id="g2882"
         style="fill:#bec841;fill-opacity:1;stroke:none">
        <g
           id="g2770"
           transform="matrix(0.573143,-0.904671,1.000784,0.44482,-415.047,619.4634)"
           style="fill:#bec841;fill-opacity:1;stroke:none">
          <path
             inkscape:connector-curvature="0"
             sodipodi:nodetypes="ccc"
             id="path1872"
             d="m 231.88637,633.39235 c 15.54046,-82.64247 -46.43556,-108.37156 -111.46924,-127.19257 10.79526,66.19329 32.50216,130.40788 111.46924,127.19257 z"
             style="fill:#bec841;fill-opacity:1;fill-rule:evenodd;stroke:none" />
          <path
             inkscape:connector-curvature="0"
             sodipodi:nodetypes="ccc"
             id="path1883"
             d="M 230.95444,631.93243 121.66391,508.22255 c 13.27232,70.37988 34.37154,126.76054 109.29053,123.70988 z"
             style="fill:#bec841;fill-opacity:1;fill-rule:evenodd;stroke:none" />
        </g>
        <g
           id="g2782"
           transform="matrix(1.067944,-0.0801205,0.240445,1.068466,-65.93123,-10.49398)"
           inkscape:transform-center-y="17.142857"
           style="fill:#bec841;fill-opacity:1;stroke:none">
          <path
             inkscape:connector-curvature="0"
             sodipodi:nodetypes="ccc"
             id="path2784"
             d="m 231.88637,633.39235 c 15.54046,-82.64247 -46.43556,-108.37156 -111.46924,-127.19257 10.79526,66.19329 32.50216,130.40788 111.46924,127.19257 z"
             style="fill:#bec841;fill-opacity:1;fill-rule:evenodd;stroke:none" />
          <path
             inkscape:connector-curvature="0"
             sodipodi:nodetypes="ccc"
             id="path2786"
             d="M 230.95444,631.93243 121.66391,508.22255 c 13.27232,70.37988 34.37154,126.76054 109.29053,123.70988 z"
             style="fill:#bec841;fill-opacity:1;fill-rule:evenodd;stroke:none" />
        </g>
        <g
           id="g2788"
           transform="matrix(0.647546,-0.853,0.959612,0.527804,-537.8228,514.5658)"
           style="fill:#bec841;fill-opacity:1;stroke:none">
          <path
             inkscape:connector-curvature="0"
             sodipodi:nodetypes="ccc"
             id="path2790"
             d="m 231.88637,633.39235 c 15.54046,-82.64247 -46.43556,-108.37156 -111.46924,-127.19257 10.79526,66.19329 32.50216,130.40788 111.46924,127.19257 z"
             style="fill:#bec841;fill-opacity:1;fill-rule:evenodd;stroke:none" />
          <path
             inkscape:connector-curvature="0"
             sodipodi:nodetypes="ccc"
             id="path2792"
             d="M 230.95444,631.93243 121.66391,508.22255 c 13.27232,70.37988 34.37154,126.76054 109.29053,123.70988 z"
             style="fill:#bec841;fill-opacity:1;fill-rule:evenodd;stroke:none" />
        </g>
        <g
           id="g2794"
           transform="matrix(0.957678,0.479351,-0.34202,1.040411,150.4867,-161.5293)"
           style="fill:#bec841;fill-opacity:1;stroke:none">
          <path
             inkscape:connector-curvature="0"
             sodipodi:nodetypes="ccc"
             id="path2796"
             d="m 231.88637,633.39235 c 15.54046,-82.64247 -46.43556,-108.37156 -111.46924,-127.19257 10.79526,66.19329 32.50216,130.40788 111.46924,127.19257 z"
             style="fill:#bec841;fill-opacity:1;fill-rule:evenodd;stroke:none" />
          <path
             inkscape:connector-curvature="0"
             sodipodi:nodetypes="ccc"
             id="path2798"
             d="M 230.95444,631.93243 121.66391,508.22255 c 13.27232,70.37988 34.37154,126.76054 109.29053,123.70988 z"
             style="fill:#bec841;fill-opacity:1;fill-rule:evenodd;stroke:none" />
        </g>
        <g
           id="g2800"
           transform="matrix(0.857054,-0.64217,0.777588,0.771226,-591.3635,267.2962)"
           style="fill:#bec841;fill-opacity:1;stroke:none">
          <path
             inkscape:connector-curvature="0"
             sodipodi:nodetypes="ccc"
             id="path2802"
             d="m 231.88637,633.39235 c 15.54046,-82.64247 -46.43556,-108.37156 -111.46924,-127.19257 10.79526,66.19329 32.50216,130.40788 111.46924,127.19257 z"
             style="fill:#bec841;fill-opacity:1;fill-rule:evenodd;stroke:none" />
          <path
             inkscape:connector-curvature="0"
             sodipodi:nodetypes="ccc"
             id="path2804"
             d="M 230.95444,631.93243 121.66391,508.22255 c 13.27232,70.37988 34.37154,126.76054 109.29053,123.70988 z"
             style="fill:#bec841;fill-opacity:1;fill-rule:evenodd;stroke:none" />
        </g>
        <g
           id="g2806"
           transform="matrix(0.755076,0.759463,-0.655643,0.877249,268.1259,-190.6254)"
           style="fill:#bec841;fill-opacity:1;stroke:none">
          <path
             inkscape:connector-curvature="0"
             sodipodi:nodetypes="ccc"
             id="path2808"
             d="m 231.88637,633.39235 c 15.54046,-82.64247 -46.43556,-108.37156 -111.46924,-127.19257 10.79526,66.19329 32.50216,130.40788 111.46924,127.19257 z"
             style="fill:#bec841;fill-opacity:1;fill-rule:evenodd;stroke:none" />
          <path
             inkscape:connector-curvature="0"
             sodipodi:nodetypes="ccc"
             id="path2810"
             d="M 230.95444,631.93243 121.66391,508.22255 c 13.27232,70.37988 34.37154,126.76054 109.29053,123.70988 z"
             style="fill:#bec841;fill-opacity:1;fill-rule:evenodd;stroke:none" />
        </g>
        <g
           id="g2812"
           transform="matrix(0.963548,-0.467438,0.616708,0.905043,-621.1371,68.84317)"
           style="fill:#bec841;fill-opacity:1;stroke:none">
          <path
             inkscape:connector-curvature="0"
             sodipodi:nodetypes="ccc"
             id="path2814"
             d="m 231.88637,633.39235 c 15.54046,-82.64247 -46.43556,-108.37156 -111.46924,-127.19257 10.79526,66.19329 32.50216,130.40788 111.46924,127.19257 z"
             style="fill:#bec841;fill-opacity:1;fill-rule:evenodd;stroke:none" />
          <path
             inkscape:connector-curvature="0"
             sodipodi:nodetypes="ccc"
             id="path2816"
             d="M 230.95444,631.93243 121.66391,508.22255 c 13.27232,70.37988 34.37154,126.76054 109.29053,123.70988 z"
             style="fill:#bec841;fill-opacity:1;fill-rule:evenodd;stroke:none" />
        </g>
        <g
           id="g2818"
           transform="matrix(0.601115,0.886332,-0.806975,0.740424,304.6067,-220.1385)"
           style="fill:#bec841;fill-opacity:1;stroke:none">
          <path
             inkscape:connector-curvature="0"
             sodipodi:nodetypes="ccc"
             id="path2820"
             d="m 231.88637,633.39235 c 15.54046,-82.64247 -46.43556,-108.37156 -111.46924,-127.19257 10.79526,66.19329 32.50216,130.40788 111.46924,127.19257 z"
             style="fill:#bec841;fill-opacity:1;fill-rule:evenodd;stroke:none" />
          <path
             inkscape:connector-curvature="0"
             sodipodi:nodetypes="ccc"
             id="path2822"
             d="M 230.95444,631.93243 121.66391,508.22255 c 13.27232,70.37988 34.37154,126.76054 109.29053,123.70988 z"
             style="fill:#bec841;fill-opacity:1;fill-rule:evenodd;stroke:none" />
        </g>
        <g
           id="g2824"
           transform="matrix(1.034559,-0.276788,0.434429,1.005338,-608.7405,-129.3146)"
           style="fill:#bec841;fill-opacity:1;stroke:none">
          <path
             inkscape:connector-curvature="0"
             sodipodi:nodetypes="ccc"
             id="path2826"
             d="m 231.88637,633.39235 c 15.54046,-82.64247 -46.43556,-108.37156 -111.46924,-127.19257 10.79526,66.19329 32.50216,130.40788 111.46924,127.19257 z"
             style="fill:#bec841;fill-opacity:1;fill-rule:evenodd;stroke:none" />
          <path
             inkscape:connector-curvature="0"
             sodipodi:nodetypes="ccc"
             id="path2828"
             d="M 230.95444,631.93243 121.66391,508.22255 c 13.27232,70.37988 34.37154,126.76054 109.29053,123.70988 z"
             style="fill:#bec841;fill-opacity:1;fill-rule:evenodd;stroke:none" />
        </g>
        <g
           id="g2830"
           transform="matrix(0.746779,0.767624,-0.665138,0.870071,125.8572,-397.6447)"
           style="fill:#bec841;fill-opacity:1;stroke:none">
          <g
             id="g2878"
             transform="matrix(0.915872,0.283064,-0.296023,1.000365,202.0032,-80.53104)"
             style="fill:#bec841;fill-opacity:1;stroke:none">
            <path
               inkscape:connector-curvature="0"
               style="fill:#bec841;fill-opacity:1;fill-rule:evenodd;stroke:none"
               d="m 231.88637,633.39235 c 15.54046,-82.64247 -46.43556,-108.37156 -111.46924,-127.19257 10.79526,66.19329 32.50216,130.40788 111.46924,127.19257 z"
               id="path2832"
               sodipodi:nodetypes="ccc" />
            <path
               inkscape:connector-curvature="0"
               style="fill:#bec841;fill-opacity:1;fill-rule:evenodd;stroke:none"
               d="M 230.95444,631.93243 121.66391,508.22255 c 13.27232,70.37988 34.37154,126.76054 109.29053,123.70988 z"
               id="path2834"
               sodipodi:nodetypes="ccc" />
          </g>
        </g>
        <g
           id="g2836"
           transform="matrix(1.060106,-0.15198,0.311976,1.049811,-573.176,-289.8567)"
           style="fill:#bec841;fill-opacity:1;stroke:none">
          <path
             inkscape:connector-curvature="0"
             sodipodi:nodetypes="ccc"
             id="path2838"
             d="m 231.88637,633.39235 c 15.54046,-82.64247 -46.43556,-108.37156 -111.46924,-127.19257 10.79526,66.19329 32.50216,130.40788 111.46924,127.19257 z"
             style="fill:#bec841;fill-opacity:1;fill-rule:evenodd;stroke:none" />
          <path
             inkscape:connector-curvature="0"
             sodipodi:nodetypes="ccc"
             id="path2840"
             d="M 230.95444,631.93243 121.66391,508.22255 c 13.27232,70.37988 34.37154,126.76054 109.29053,123.70988 z"
             style="fill:#bec841;fill-opacity:1;fill-rule:evenodd;stroke:none" />
        </g>
        <g
           id="g2842"
           transform="matrix(0.271022,1.036085,-1.007742,0.428823,425.1599,-343.1004)"
           style="fill:#bec841;fill-opacity:1;stroke:none">
          <path
             inkscape:connector-curvature="0"
             sodipodi:nodetypes="ccc"
             id="path2844"
             d="m 231.88637,633.39235 c 15.54046,-82.64247 -46.43556,-108.37156 -111.46924,-127.19257 10.79526,66.19329 32.50216,130.40788 111.46924,127.19257 z"
             style="fill:#bec841;fill-opacity:1;fill-rule:evenodd;stroke:none" />
          <path
             inkscape:connector-curvature="0"
             sodipodi:nodetypes="ccc"
             id="path2846"
             d="M 230.95444,631.93243 121.66391,508.22255 c 13.27232,70.37988 34.37154,126.76054 109.29053,123.70988 z"
             style="fill:#bec841;fill-opacity:1;fill-rule:evenodd;stroke:none" />
        </g>
        <g
           id="g2848"
           transform="matrix(1.038141,0.263036,-0.111168,1.089529,-337.7276,-516.5949)"
           style="fill:#bec841;fill-opacity:1;stroke:none">
          <path
             inkscape:connector-curvature="0"
             sodipodi:nodetypes="ccc"
             id="path2850"
             d="m 231.88637,633.39235 c 15.54046,-82.64247 -46.43556,-108.37156 -111.46924,-127.19257 10.79526,66.19329 32.50216,130.40788 111.46924,127.19257 z"
             style="fill:#bec841;fill-opacity:1;fill-rule:evenodd;stroke:none" />
          <path
             inkscape:connector-curvature="0"
             sodipodi:nodetypes="ccc"
             id="path2852"
             d="M 230.95444,631.93243 121.66391,508.22255 c 13.27232,70.37988 34.37154,126.76054 109.29053,123.70988 z"
             style="fill:#bec841;fill-opacity:1;fill-rule:evenodd;stroke:none" />
        </g>
        <g
           id="g2854"
           transform="matrix(-0.01253547,1.070872,-1.085257,0.147144,574.4317,-341.5833)"
           style="fill:#bec841;fill-opacity:1;stroke:none">
          <path
             inkscape:connector-curvature="0"
             sodipodi:nodetypes="ccc"
             id="path2856"
             d="m 231.88637,633.39235 c 15.54046,-82.64247 -46.43556,-108.37156 -111.46924,-127.19257 10.79526,66.19329 32.50216,130.40788 111.46924,127.19257 z"
             style="fill:#bec841;fill-opacity:1;fill-rule:evenodd;stroke:none" />
          <path
             inkscape:connector-curvature="0"
             sodipodi:nodetypes="ccc"
             id="path2858"
             d="M 230.95444,631.93243 121.66391,508.22255 c 13.27232,70.37988 34.37154,126.76054 109.29053,123.70988 z"
             style="fill:#bec841;fill-opacity:1;fill-rule:evenodd;stroke:none" />
        </g>
        <g
           id="g2860"
           transform="matrix(0.880588,0.6095,-0.485195,0.981844,-70.36761,-666.8372)"
           style="fill:#bec841;fill-opacity:1;stroke:none">
          <path
             inkscape:connector-curvature="0"
             sodipodi:nodetypes="ccc"
             id="path2862"
             d="m 231.88637,633.39235 c 15.54046,-82.64247 -46.43556,-108.37156 -111.46924,-127.19257 10.79526,66.19329 32.50216,130.40788 111.46924,127.19257 z"
             style="fill:#bec841;fill-opacity:1;fill-rule:evenodd;stroke:none" />
          <path
             inkscape:connector-curvature="0"
             sodipodi:nodetypes="ccc"
             id="path2864"
             d="M 230.95444,631.93243 121.66391,508.22255 c 13.27232,70.37988 34.37154,126.76054 109.29053,123.70988 z"
             style="fill:#bec841;fill-opacity:1;fill-rule:evenodd;stroke:none" />
        </g>
        <g
           id="g2866"
           transform="matrix(0.102611,1.066018,-1.06316,0.262912,572.8813,-541.2853)"
           style="fill:#bec841;fill-opacity:1;stroke:none">
          <path
             inkscape:connector-curvature="0"
             sodipodi:nodetypes="ccc"
             id="path2868"
             d="m 231.88637,633.39235 c 15.54046,-82.64247 -46.43556,-108.37156 -111.46924,-127.19257 10.79526,66.19329 32.50216,130.40788 111.46924,127.19257 z"
             style="fill:#bec841;fill-opacity:1;fill-rule:evenodd;stroke:none" />
          <path
             inkscape:connector-curvature="0"
             sodipodi:nodetypes="ccc"
             id="path2870"
             d="M 230.95444,631.93243 121.66391,508.22255 c 13.27232,70.37988 34.37154,126.76054 109.29053,123.70988 z"
             style="fill:#bec841;fill-opacity:1;fill-rule:evenodd;stroke:none" />
        </g>
        <g
           id="g2872"
           transform="matrix(0.738484,0.775608,-0.674452,0.862871,122.1255,-776.6216)"
           style="fill:#bec841;fill-opacity:1;stroke:none">
          <path
             inkscape:connector-curvature="0"
             sodipodi:nodetypes="ccc"
             id="path2874"
             d="m 231.88637,633.39235 c 15.54046,-82.64247 -46.43556,-108.37156 -111.46924,-127.19257 10.79526,66.19329 32.50216,130.40788 111.46924,127.19257 z"
             style="fill:#bec841;fill-opacity:1;fill-rule:evenodd;stroke:none" />
          <path
             inkscape:connector-curvature="0"
             sodipodi:nodetypes="ccc"
             id="path2876"
             d="M 230.95444,631.93243 121.66391,508.22255 c 13.27232,70.37988 34.37154,126.76054 109.29053,123.70988 z"
             style="fill:#bec841;fill-opacity:1;fill-rule:evenodd;stroke:none" />
        </g>
      </g>
      <g
         transform="matrix(-0.43294876,0,0,0.43294876,550.13007,414.4629)"
         id="g2936"
         style="fill:#bec841;fill-opacity:1;stroke:none">
        <g
           id="g2938"
           transform="matrix(0.573143,-0.904671,1.000784,0.44482,-415.047,619.4634)"
           style="fill:#bec841;fill-opacity:1;stroke:none">
          <path
             inkscape:connector-curvature="0"
             sodipodi:nodetypes="ccc"
             id="path2940"
             d="m 231.88637,633.39235 c 15.54046,-82.64247 -46.43556,-108.37156 -111.46924,-127.19257 10.79526,66.19329 32.50216,130.40788 111.46924,127.19257 z"
             style="fill:#bec841;fill-opacity:1;fill-rule:evenodd;stroke:none" />
          <path
             inkscape:connector-curvature="0"
             sodipodi:nodetypes="ccc"
             id="path2942"
             d="M 230.95444,631.93243 121.66391,508.22255 c 13.27232,70.37988 34.37154,126.76054 109.29053,123.70988 z"
             style="fill:#bec841;fill-opacity:1;fill-rule:evenodd;stroke:none" />
        </g>
        <g
           id="g2944"
           transform="matrix(1.067944,-0.0801205,0.240445,1.068466,-65.93123,-10.49398)"
           inkscape:transform-center-y="17.142857"
           style="fill:#bec841;fill-opacity:1;stroke:none">
          <path
             inkscape:connector-curvature="0"
             sodipodi:nodetypes="ccc"
             id="path2946"
             d="m 231.88637,633.39235 c 15.54046,-82.64247 -46.43556,-108.37156 -111.46924,-127.19257 10.79526,66.19329 32.50216,130.40788 111.46924,127.19257 z"
             style="fill:#bec841;fill-opacity:1;fill-rule:evenodd;stroke:none" />
          <path
             inkscape:connector-curvature="0"
             sodipodi:nodetypes="ccc"
             id="path2948"
             d="M 230.95444,631.93243 121.66391,508.22255 c 13.27232,70.37988 34.37154,126.76054 109.29053,123.70988 z"
             style="fill:#bec841;fill-opacity:1;fill-rule:evenodd;stroke:none" />
        </g>
        <g
           id="g2950"
           transform="matrix(0.647546,-0.853,0.959612,0.527804,-537.8228,514.5658)"
           style="fill:#bec841;fill-opacity:1;stroke:none">
          <path
             inkscape:connector-curvature="0"
             sodipodi:nodetypes="ccc"
             id="path2952"
             d="m 231.88637,633.39235 c 15.54046,-82.64247 -46.43556,-108.37156 -111.46924,-127.19257 10.79526,66.19329 32.50216,130.40788 111.46924,127.19257 z"
             style="fill:#bec841;fill-opacity:1;fill-rule:evenodd;stroke:none" />
          <path
             inkscape:connector-curvature="0"
             sodipodi:nodetypes="ccc"
             id="path2954"
             d="M 230.95444,631.93243 121.66391,508.22255 c 13.27232,70.37988 34.37154,126.76054 109.29053,123.70988 z"
             style="fill:#bec841;fill-opacity:1;fill-rule:evenodd;stroke:none" />
        </g>
        <g
           id="g2956"
           transform="matrix(0.957678,0.479351,-0.34202,1.040411,150.4867,-161.5293)"
           style="fill:#bec841;fill-opacity:1;stroke:none">
          <path
             inkscape:connector-curvature="0"
             sodipodi:nodetypes="ccc"
             id="path2958"
             d="m 231.88637,633.39235 c 15.54046,-82.64247 -46.43556,-108.37156 -111.46924,-127.19257 10.79526,66.19329 32.50216,130.40788 111.46924,127.19257 z"
             style="fill:#bec841;fill-opacity:1;fill-rule:evenodd;stroke:none" />
          <path
             inkscape:connector-curvature="0"
             sodipodi:nodetypes="ccc"
             id="path2960"
             d="M 230.95444,631.93243 121.66391,508.22255 c 13.27232,70.37988 34.37154,126.76054 109.29053,123.70988 z"
             style="fill:#bec841;fill-opacity:1;fill-rule:evenodd;stroke:none" />
        </g>
        <g
           id="g2962"
           transform="matrix(0.857054,-0.64217,0.777588,0.771226,-591.3635,267.2962)"
           style="fill:#bec841;fill-opacity:1;stroke:none">
          <path
             inkscape:connector-curvature="0"
             sodipodi:nodetypes="ccc"
             id="path2964"
             d="m 231.88637,633.39235 c 15.54046,-82.64247 -46.43556,-108.37156 -111.46924,-127.19257 10.79526,66.19329 32.50216,130.40788 111.46924,127.19257 z"
             style="fill:#bec841;fill-opacity:1;fill-rule:evenodd;stroke:none" />
          <path
             inkscape:connector-curvature="0"
             sodipodi:nodetypes="ccc"
             id="path2966"
             d="M 230.95444,631.93243 121.66391,508.22255 c 13.27232,70.37988 34.37154,126.76054 109.29053,123.70988 z"
             style="fill:#bec841;fill-opacity:1;fill-rule:evenodd;stroke:none" />
        </g>
        <g
           id="g2968"
           transform="matrix(0.755076,0.759463,-0.655643,0.877249,268.1259,-190.6254)"
           style="fill:#bec841;fill-opacity:1;stroke:none">
          <path
             inkscape:connector-curvature="0"
             sodipodi:nodetypes="ccc"
             id="path2970"
             d="m 231.88637,633.39235 c 15.54046,-82.64247 -46.43556,-108.37156 -111.46924,-127.19257 10.79526,66.19329 32.50216,130.40788 111.46924,127.19257 z"
             style="fill:#bec841;fill-opacity:1;fill-rule:evenodd;stroke:none" />
          <path
             inkscape:connector-curvature="0"
             sodipodi:nodetypes="ccc"
             id="path2972"
             d="M 230.95444,631.93243 121.66391,508.22255 c 13.27232,70.37988 34.37154,126.76054 109.29053,123.70988 z"
             style="fill:#bec841;fill-opacity:1;fill-rule:evenodd;stroke:none" />
        </g>
        <g
           id="g2974"
           transform="matrix(0.963548,-0.467438,0.616708,0.905043,-621.1371,68.84317)"
           style="fill:#bec841;fill-opacity:1;stroke:none">
          <path
             inkscape:connector-curvature="0"
             sodipodi:nodetypes="ccc"
             id="path2976"
             d="m 231.88637,633.39235 c 15.54046,-82.64247 -46.43556,-108.37156 -111.46924,-127.19257 10.79526,66.19329 32.50216,130.40788 111.46924,127.19257 z"
             style="fill:#bec841;fill-opacity:1;fill-rule:evenodd;stroke:none" />
          <path
             inkscape:connector-curvature="0"
             sodipodi:nodetypes="ccc"
             id="path2978"
             d="M 230.95444,631.93243 121.66391,508.22255 c 13.27232,70.37988 34.37154,126.76054 109.29053,123.70988 z"
             style="fill:#bec841;fill-opacity:1;fill-rule:evenodd;stroke:none" />
        </g>
        <g
           id="g2980"
           transform="matrix(0.601115,0.886332,-0.806975,0.740424,304.6067,-220.1385)"
           style="fill:#bec841;fill-opacity:1;stroke:none">
          <path
             inkscape:connector-curvature="0"
             sodipodi:nodetypes="ccc"
             id="path2982"
             d="m 231.88637,633.39235 c 15.54046,-82.64247 -46.43556,-108.37156 -111.46924,-127.19257 10.79526,66.19329 32.50216,130.40788 111.46924,127.19257 z"
             style="fill:#bec841;fill-opacity:1;fill-rule:evenodd;stroke:none" />
          <path
             inkscape:connector-curvature="0"
             sodipodi:nodetypes="ccc"
             id="path2984"
             d="M 230.95444,631.93243 121.66391,508.22255 c 13.27232,70.37988 34.37154,126.76054 109.29053,123.70988 z"
             style="fill:#bec841;fill-opacity:1;fill-rule:evenodd;stroke:none" />
        </g>
        <g
           id="g2986"
           transform="matrix(1.034559,-0.276788,0.434429,1.005338,-608.7405,-129.3146)"
           style="fill:#bec841;fill-opacity:1;stroke:none">
          <path
             inkscape:connector-curvature="0"
             sodipodi:nodetypes="ccc"
             id="path2988"
             d="m 231.88637,633.39235 c 15.54046,-82.64247 -46.43556,-108.37156 -111.46924,-127.19257 10.79526,66.19329 32.50216,130.40788 111.46924,127.19257 z"
             style="fill:#bec841;fill-opacity:1;fill-rule:evenodd;stroke:none" />
          <path
             inkscape:connector-curvature="0"
             sodipodi:nodetypes="ccc"
             id="path2990"
             d="M 230.95444,631.93243 121.66391,508.22255 c 13.27232,70.37988 34.37154,126.76054 109.29053,123.70988 z"
             style="fill:#bec841;fill-opacity:1;fill-rule:evenodd;stroke:none" />
        </g>
        <g
           id="g2992"
           transform="matrix(0.746779,0.767624,-0.665138,0.870071,125.8572,-397.6447)"
           style="fill:#bec841;fill-opacity:1;stroke:none">
          <g
             id="g2994"
             transform="matrix(0.915872,0.283064,-0.296023,1.000365,202.0032,-80.53104)"
             style="fill:#bec841;fill-opacity:1;stroke:none">
            <path
               inkscape:connector-curvature="0"
               style="fill:#bec841;fill-opacity:1;fill-rule:evenodd;stroke:none"
               d="m 231.88637,633.39235 c 15.54046,-82.64247 -46.43556,-108.37156 -111.46924,-127.19257 10.79526,66.19329 32.50216,130.40788 111.46924,127.19257 z"
               id="path2996"
               sodipodi:nodetypes="ccc" />
            <path
               inkscape:connector-curvature="0"
               style="fill:#bec841;fill-opacity:1;fill-rule:evenodd;stroke:none"
               d="M 230.95444,631.93243 121.66391,508.22255 c 13.27232,70.37988 34.37154,126.76054 109.29053,123.70988 z"
               id="path2998"
               sodipodi:nodetypes="ccc" />
          </g>
        </g>
        <g
           id="g3000"
           transform="matrix(1.060106,-0.15198,0.311976,1.049811,-573.176,-289.8567)"
           style="fill:#bec841;fill-opacity:1;stroke:none">
          <path
             inkscape:connector-curvature="0"
             sodipodi:nodetypes="ccc"
             id="path3002"
             d="m 231.88637,633.39235 c 15.54046,-82.64247 -46.43556,-108.37156 -111.46924,-127.19257 10.79526,66.19329 32.50216,130.40788 111.46924,127.19257 z"
             style="fill:#bec841;fill-opacity:1;fill-rule:evenodd;stroke:none" />
          <path
             inkscape:connector-curvature="0"
             sodipodi:nodetypes="ccc"
             id="path3004"
             d="M 230.95444,631.93243 121.66391,508.22255 c 13.27232,70.37988 34.37154,126.76054 109.29053,123.70988 z"
             style="fill:#bec841;fill-opacity:1;fill-rule:evenodd;stroke:none" />
        </g>
        <g
           id="g3006"
           transform="matrix(0.271022,1.036085,-1.007742,0.428823,425.1599,-343.1004)"
           style="fill:#bec841;fill-opacity:1;stroke:none">
          <path
             inkscape:connector-curvature="0"
             sodipodi:nodetypes="ccc"
             id="path3008"
             d="m 231.88637,633.39235 c 15.54046,-82.64247 -46.43556,-108.37156 -111.46924,-127.19257 10.79526,66.19329 32.50216,130.40788 111.46924,127.19257 z"
             style="fill:#bec841;fill-opacity:1;fill-rule:evenodd;stroke:none" />
          <path
             inkscape:connector-curvature="0"
             sodipodi:nodetypes="ccc"
             id="path3010"
             d="M 230.95444,631.93243 121.66391,508.22255 c 13.27232,70.37988 34.37154,126.76054 109.29053,123.70988 z"
             style="fill:#bec841;fill-opacity:1;fill-rule:evenodd;stroke:none" />
        </g>
        <g
           id="g3012"
           transform="matrix(1.038141,0.263036,-0.111168,1.089529,-337.7276,-516.5949)"
           style="fill:#bec841;fill-opacity:1;stroke:none">
          <path
             inkscape:connector-curvature="0"
             sodipodi:nodetypes="ccc"
             id="path3014"
             d="m 231.88637,633.39235 c 15.54046,-82.64247 -46.43556,-108.37156 -111.46924,-127.19257 10.79526,66.19329 32.50216,130.40788 111.46924,127.19257 z"
             style="fill:#bec841;fill-opacity:1;fill-rule:evenodd;stroke:none" />
          <path
             inkscape:connector-curvature="0"
             sodipodi:nodetypes="ccc"
             id="path3016"
             d="M 230.95444,631.93243 121.66391,508.22255 c 13.27232,70.37988 34.37154,126.76054 109.29053,123.70988 z"
             style="fill:#bec841;fill-opacity:1;fill-rule:evenodd;stroke:none" />
        </g>
        <g
           id="g3018"
           transform="matrix(-0.01253547,1.070872,-1.085257,0.147144,574.4317,-341.5833)"
           style="fill:#bec841;fill-opacity:1;stroke:none">
          <path
             inkscape:connector-curvature="0"
             sodipodi:nodetypes="ccc"
             id="path3020"
             d="m 231.88637,633.39235 c 15.54046,-82.64247 -46.43556,-108.37156 -111.46924,-127.19257 10.79526,66.19329 32.50216,130.40788 111.46924,127.19257 z"
             style="fill:#bec841;fill-opacity:1;fill-rule:evenodd;stroke:none" />
          <path
             inkscape:connector-curvature="0"
             sodipodi:nodetypes="ccc"
             id="path3022"
             d="M 230.95444,631.93243 121.66391,508.22255 c 13.27232,70.37988 34.37154,126.76054 109.29053,123.70988 z"
             style="fill:#bec841;fill-opacity:1;fill-rule:evenodd;stroke:none" />
        </g>
        <g
           id="g3024"
           transform="matrix(0.880588,0.6095,-0.485195,0.981844,-70.36761,-666.8372)"
           style="fill:#bec841;fill-opacity:1;stroke:none">
          <path
             inkscape:connector-curvature="0"
             sodipodi:nodetypes="ccc"
             id="path3026"
             d="m 231.88637,633.39235 c 15.54046,-82.64247 -46.43556,-108.37156 -111.46924,-127.19257 10.79526,66.19329 32.50216,130.40788 111.46924,127.19257 z"
             style="fill:#bec841;fill-opacity:1;fill-rule:evenodd;stroke:none" />
          <path
             inkscape:connector-curvature="0"
             sodipodi:nodetypes="ccc"
             id="path3028"
             d="M 230.95444,631.93243 121.66391,508.22255 c 13.27232,70.37988 34.37154,126.76054 109.29053,123.70988 z"
             style="fill:#bec841;fill-opacity:1;fill-rule:evenodd;stroke:none" />
        </g>
        <g
           id="g3030"
           transform="matrix(0.102611,1.066018,-1.06316,0.262912,572.8813,-541.2853)"
           style="fill:#bec841;fill-opacity:1;stroke:none">
          <path
             inkscape:connector-curvature="0"
             sodipodi:nodetypes="ccc"
             id="path3032"
             d="m 231.88637,633.39235 c 15.54046,-82.64247 -46.43556,-108.37156 -111.46924,-127.19257 10.79526,66.19329 32.50216,130.40788 111.46924,127.19257 z"
             style="fill:#bec841;fill-opacity:1;fill-rule:evenodd;stroke:none" />
          <path
             inkscape:connector-curvature="0"
             sodipodi:nodetypes="ccc"
             id="path3034"
             d="M 230.95444,631.93243 121.66391,508.22255 c 13.27232,70.37988 34.37154,126.76054 109.29053,123.70988 z"
             style="fill:#bec841;fill-opacity:1;fill-rule:evenodd;stroke:none" />
        </g>
        <g
           id="g3036"
           transform="matrix(0.738484,0.775608,-0.674452,0.862871,122.1255,-776.6216)"
           style="fill:#bec841;fill-opacity:1;stroke:none">
          <path
             inkscape:connector-curvature="0"
             sodipodi:nodetypes="ccc"
             id="path3038"
             d="m 231.88637,633.39235 c 15.54046,-82.64247 -46.43556,-108.37156 -111.46924,-127.19257 10.79526,66.19329 32.50216,130.40788 111.46924,127.19257 z"
             style="fill:#bec841;fill-opacity:1;fill-rule:evenodd;stroke:none" />
          <path
             inkscape:connector-curvature="0"
             sodipodi:nodetypes="ccc"
             id="path3040"
             d="M 230.95444,631.93243 121.66391,508.22255 c 13.27232,70.37988 34.37154,126.76054 109.29053,123.70988 z"
             style="fill:#bec841;fill-opacity:1;fill-rule:evenodd;stroke:none" />
        </g>
      </g>
    </g>
    <path
       sodipodi:type="arc"
       style="opacity:0.51971328;fill:#009500;fill-opacity:1;fill-rule:nonzero;stroke:#007d00;stroke-width:0.84947389;stroke-linecap:round;stroke-miterlimit:4;stroke-opacity:1;stroke-dasharray:none;stroke-dashoffset:0;enable-background:new"
       id="path3042"
       sodipodi:cx="352.54324"
       sodipodi:cy="905.89008"
       sodipodi:rx="13.131983"
       sodipodi:ry="17.172594"
       d="m 365.67523,905.89008 c 0,9.48416 -5.87939,17.17259 -13.13199,17.17259 -7.25259,0 -13.13198,-7.68843 -13.13198,-17.17259 0,-9.48417 5.87939,-17.1726 13.13198,-17.1726 7.2526,0 13.13199,7.68843 13.13199,17.1726 z"
       transform="matrix(0.1580687,0,0,0.12087609,-478.58319,-18.11895)"
       inkscape:export-filename="/home/reuillon/Projects/openmole-com/slides/images/since2008.png"
       inkscape:export-xdpi="200"
       inkscape:export-ydpi="200" />
    <flowRoot
       xml:space="preserve"
       id="flowRoot5313"
       style="font-size:3.1122694px;font-style:normal;font-variant:normal;font-weight:bold;font-stretch:normal;text-align:start;line-height:125%;letter-spacing:0px;word-spacing:0px;writing-mode:lr-tb;text-anchor:start;fill:#fecb34;fill-opacity:1;stroke:none;enable-background:new;font-family:Century Schoolbook L;-inkscape-font-specification:Century Schoolbook L Bold"
       transform="matrix(8.9621246,0,0,8.9621246,3450.2043,-3047.1374)"
       inkscape:export-filename="/home/reuillon/Projects/openmole-com/slides/images/since2008.png"
       inkscape:export-xdpi="200"
       inkscape:export-ydpi="200"><flowRegion
         id="flowRegion5315"><rect
           id="rect5317"
           width="462.85715"
           height="267.14285"
           x="-435.71429"
           y="343.79074"
           style="font-size:3.1122694px;font-style:normal;font-variant:normal;font-weight:bold;font-stretch:normal;text-align:start;line-height:125%;writing-mode:lr-tb;text-anchor:start;fill:#fecb34;fill-opacity:1;font-family:Century Schoolbook L;-inkscape-font-specification:Century Schoolbook L Bold" /></flowRegion><flowPara
         id="flowPara5319">2008</flowPara></flowRoot>    <g
       transform="matrix(0.78269642,0,0,0.78269642,-494.30288,4.9982297)"
       style="font-size:10px;font-style:normal;font-variant:normal;font-weight:bold;font-stretch:normal;text-align:start;line-height:125%;letter-spacing:0px;word-spacing:0px;writing-mode:lr-tb;text-anchor:start;fill:#fecb34;fill-opacity:1;stroke:none;enable-background:new;font-family:Century Schoolbook L;-inkscape-font-specification:Century Schoolbook L Bold"
       id="flowRoot5644"
       inkscape:path-effect="#path-effect5717"
       inkscape:export-filename="/home/reuillon/Projects/openmole-com/slides/images/since2008.png"
       inkscape:export-xdpi="200"
       inkscape:export-ydpi="200">
      <path
         d="m 23.147808,78.908256 c -0.06285,-0.137448 -0.125447,-0.275028 -0.187784,-0.412735 -0.282148,-0.06446 -0.564359,-0.130078 -0.846618,-0.196837 0.289931,-0.750547 0.291799,-1.342246 0.01351,-1.990072 -0.612237,-1.425217 -2.257686,-1.906167 -4.109766,-1.16464 -1.698899,0.680197 -2.563982,2.049842 -2.309247,3.762071 0.03101,0.226462 0.06268,0.45302 0.09503,0.679667 0.105514,0.699571 0.124594,0.925901 0.05022,1.240537 -0.08449,0.366062 -0.425356,0.707679 -0.905498,0.922475 -0.960282,0.429591 -1.862487,0.146378 -2.240788,-0.73142 -0.491356,-1.140129 0.329731,-2.663141 2.195235,-4.051979 -0.06809,-0.167977 -0.135814,-0.336079 -0.203164,-0.504303 -1.305745,0.545623 -2.611262,1.091928 -3.91655,1.638916 0.06118,0.153543 0.122678,0.306993 0.184485,0.46035 0.358631,0.100452 0.71736,0.199249 1.076161,0.296379 -0.385123,0.880918 -0.402982,1.658341 -0.05317,2.470594 0.682143,1.583893 2.525403,2.052765 4.437262,1.172928 1.73433,-0.798137 2.36153,-1.962541 2.164964,-3.845165 -0.01608,-0.175026 -0.03176,-0.349969 -0.04705,-0.524826 -0.110084,-0.825833 -0.107485,-0.825585 -0.08346,-1.117155 0.04048,-0.523669 0.352734,-0.90905 0.921751,-1.143353 0.846587,-0.348599 1.673826,-0.07505 1.989222,0.661324 0.415206,0.969396 -0.247955,2.173157 -1.940188,3.611025 0.07583,0.167777 0.152047,0.335379 0.22865,0.502803 1.161652,-0.580231 2.323917,-1.159093 3.486788,-1.736584 z"
         id="path5653"
         inkscape:original-d="m 4.4425,81.333094 -0.45,0 -0.52,0.46 c -0.5599994,-0.38 -1.1000007,-0.54 -1.8,-0.54 -1.53999846,0 -2.59,0.900001 -2.59,2.23 0,1.219998 0.90000157,2.09 2.47,2.38 l 0.62,0.12 c 0.6399994,0.12 0.8400002,0.17 1.08,0.3 0.2799997,0.15 0.44,0.45 0.44,0.8 0,0.699999 -0.5700009,1.17 -1.44,1.17 -1.1299989,0 -2.12000055,-0.890002 -2.67,-2.39 l -0.51,0 0.06,2.83 0.45,0 0.62,-0.59 c 0.60999939,0.459999 1.2500008,0.67 2.05,0.67 1.5599984,0 2.64,-0.980002 2.64,-2.38 0,-1.269999 -0.7500017,-1.980001 -2.48,-2.36 l -0.48,-0.11 c -0.7699992,-0.15 -0.7700003,-0.15 -1.02,-0.24 -0.44999955,-0.16 -0.68,-0.450001 -0.68,-0.86 0,-0.61 0.56000079,-1.05 1.35,-1.05 1.039999,0 1.8700006,0.730001 2.46,2.15 l 0.53,0 -0.13,-2.59"
         inkscape:connector-curvature="0"
         style="fill:#fecb34;fill-opacity:1" />
      <path
         d="m 18.220587,87.747422 c -0.563807,0.121383 -0.82275,0.144337 -1.165204,0.135928 -0.547923,-0.01345 -1.002774,-0.27638 -1.204764,-0.679445 -0.399054,-0.796299 0.323616,-1.722434 2.00036,-2.538352 1.609135,-0.783018 2.755702,-0.82877 3.106831,-0.12694 0.13577,0.271374 0.08831,0.576858 -0.126365,0.685561 -0.04025,0.02038 -0.116808,0.03574 -0.307195,0.02574 -0.362603,-0.01737 -0.502614,0.0052 -0.757923,0.133504 -0.577805,0.290426 -0.818079,0.81832 -0.583961,1.27538 0.26826,0.523715 0.895688,0.618172 1.575354,0.262753 1.092797,-0.571458 1.433626,-1.663785 0.871627,-2.788558 -0.771008,-1.543077 -2.765401,-1.988645 -4.822098,-1.027396 -1.988593,0.929419 -2.824443,2.640445 -2.029388,4.239051 0.365428,0.734763 0.88282,1.084058 1.746398,1.182412 0.547318,0.07613 1.028488,0.02232 1.730083,-0.161728 -0.01186,-0.206129 -0.02311,-0.412101 -0.03376,-0.617911 z"
         id="path5655"
         inkscape:original-d="m 9.9921875,86.853094 c -0.1399999,0.369999 -0.2300001,0.53 -0.38,0.73 -0.2399998,0.319999 -0.6400004,0.51 -1.05,0.51 -0.8099992,0 -1.28,-0.700002 -1.28,-1.94 0,-1.189999 0.4400008,-1.89 1.19,-1.89 0.2899997,0 0.53,0.12 0.53,0.28 0,0.03 -0.02,0.08 -0.11,0.19 -0.1699998,0.209999 -0.21,0.3 -0.21,0.49 0,0.429999 0.3400005,0.73 0.82,0.73 0.5499995,0 0.9000005,-0.340001 0.9000005,-0.85 0,-0.819999 -0.7800017,-1.36 -1.9900005,-1.36 -1.6599983,0 -2.86,1.080001 -2.86,2.59 0,1.459998 1.0800016,2.44 2.69,2.44 0.7399993,0 1.2300004,-0.200001 1.67,-0.68 0.2899995,-0.3 0.4500005,-0.600001 0.6000005,-1.07 l -0.5200005,-0.17"
         inkscape:connector-curvature="0"
         style="fill:#fecb34;fill-opacity:1" />
      <path
         d="m 23.873067,88.855652 c -0.428379,-0.69324 -0.849331,-1.392058 -1.262868,-2.096084 l -0.677318,0.35981 c 0.02295,0.04322 0.04593,0.08643 0.06894,0.129617 0.300746,0.564547 0.251162,0.627064 -0.926043,1.263694 l -2.341182,1.266107 -0.608443,0.329045 c -0.529079,0.286125 -0.681121,0.230626 -1.006789,-0.381534 -0.0069,-0.01296 -0.01378,-0.02591 -0.02067,-0.03887 l -0.677317,0.35981 c 0.542556,1.020669 1.10073,2.033614 1.674662,3.037972 l 0.665879,-0.379947 c -0.01093,-0.01912 -0.02184,-0.03825 -0.03276,-0.05738 -0.332865,-0.583463 -0.29862,-0.741491 0.212846,-1.028188 l 0.616383,-0.345506 z m 3.069217,-2.650012 c -0.236189,-0.430136 -0.95533,-0.497864 -1.590662,-0.155298 -0.63533,0.342565 -0.983329,0.997228 -0.750902,1.420349 0.247262,0.450128 0.959696,0.521063 1.615163,0.153061 0.629249,-0.353283 0.95777,-0.996756 0.726401,-1.418112 z"
         id="path5657"
         inkscape:original-d="m 13.438594,83.893094 -2.35,0.07 0,0.51 0.14,0 c 0.609999,0 0.64,0.05 0.64,0.94 l 0,1.77 0,0.46 c 0,0.399999 -0.110001,0.47 -0.74,0.47 l -0.04,0 0,0.51 3.13,0 0,-0.51 -0.06,0 c -0.61,0 -0.72,-0.07 -0.72,-0.46 l 0,-0.47 0,-3.29 m -0.81,-2.64 c -0.49,0 -0.89,0.4 -0.89,0.88 0,0.479999 0.4,0.89 0.87,0.89 0.499999,0 0.9,-0.390001 0.9,-0.89 0,-0.48 -0.400001,-0.88 -0.88,-0.88"
         inkscape:connector-curvature="0"
         style="fill:#fecb34;fill-opacity:1" />
      <path
         d="m 24.24845,96.60018 0.201439,-0.13082 c 1.875904,-1.21826 2.54386,-2.797697 1.753393,-4.085348 -0.433132,-0.705561 -1.121492,-1.099192 -2.047489,-1.162308 -0.847647,-0.04843 -1.849989,0.198677 -2.708695,0.695409 -0.923758,0.534362 -1.69274,1.367871 -1.969432,2.170526 -0.247303,0.734171 -0.148052,1.544872 0.295295,2.264047 0.682521,1.107151 1.810076,1.409105 3.417932,0.935299 -0.01285,-0.203384 -0.02504,-0.406597 -0.03656,-0.609637 -1.219862,0.268039 -1.907361,0.112293 -2.2853,-0.495645 -0.267465,-0.430233 -0.21522,-0.979377 0.131758,-1.508474 0.250856,-0.36881 0.611075,-0.673786 1.339367,-1.124544 0.618882,1.028253 1.254923,2.04577 1.908292,3.051495 z m -1.194708,-3.468414 c 1.22298,-0.736037 2.172948,-0.844956 2.500549,-0.311899 0.27846,0.453098 -0.100454,1.034898 -1.10585,1.664868 -0.305435,0.191383 -0.447022,0.192054 -0.559714,0.01107 -0.28173,-0.452456 -0.560053,-0.907168 -0.834985,-1.36404 z"
         id="path5659"
         inkscape:original-d="m 19.9,86.343094 0,-0.16 c 0,-1.489999 -0.930001,-2.44 -2.39,-2.44 -0.799999,0 -1.470001,0.26 -1.97,0.77 -0.45,0.469999 -0.72,1.13 -0.72,1.79 0,0.709999 0.310001,1.43 0.81,1.86 0.46,0.389999 1.130001,0.61 1.89,0.61 1.169999,0 1.94,-0.520001 2.38,-1.59 l -0.49,-0.2 c -0.4,0.779999 -0.850001,1.11 -1.5,1.11 -0.46,0 -0.86,-0.220001 -1.11,-0.6 -0.17,-0.27 -0.24,-0.580001 -0.25,-1.15 l 3.35,0 m -3.34,-0.55 c 0,-0.949999 0.380001,-1.53 0.98,-1.53 0.509999,0 0.79,0.42 0.79,1.21 0,0.239999 -0.07,0.32 -0.27,0.32 l -1.5,0"
         inkscape:connector-curvature="0"
         style="fill:#fecb34;fill-opacity:1" />
      <path
         d="m 28.963402,97.032044 c -0.477639,-0.6291 -0.948131,-1.264906 -1.411489,-1.907072 L 26.9123,95.545529 c 0.02866,0.04365 0.05736,0.08728 0.08609,0.130886 0.350508,0.531972 0.319679,0.59019 -0.839984,1.366586 l -2.169692,1.452611 -0.573597,0.384024 c -0.511248,0.342281 -0.655509,0.292987 -1.043654,-0.295691 -0.0081,-0.01226 -0.01617,-0.02453 -0.02425,-0.0368 L 21.7076,98.967704 c 0.620863,0.942092 1.256952,1.874406 1.908395,2.796136 l 0.62503,-0.44074 c -0.37512,-0.53098 -0.350118,-0.68246 0.130444,-1.01599 l 0.57914,-0.401947 1.195245,-0.829547 c 0.554496,-0.384842 0.899253,-0.571948 1.267001,-0.673715 0.53956,-0.169983 1.031436,-0.06824 1.249362,0.238754 0.284516,0.400802 0.0312,0.919208 -0.746395,1.481225 l -1.858942,1.34357 -0.571048,0.41273 c -0.473847,0.34248 -0.625182,0.31586 -1.002497,-0.21358 l -0.623135,0.44326 c 0.655272,0.91908 1.325914,1.82749 2.012056,2.72441 l 0.607285,-0.46364 c -0.0089,-0.0117 -0.01785,-0.0233 -0.02677,-0.035 -0.428234,-0.56051 -0.427121,-0.71285 0.06448,-1.08132 l 0.551548,-0.41341 2.002358,-1.50086 c 0.74339,-0.55721 1.129255,-0.99127 1.311243,-1.475377 0.206047,-0.501981 0.137085,-1.025188 -0.176049,-1.4598 -0.475723,-0.660277 -1.123284,-0.828954 -2.327877,-0.619011 z"
         id="path5661"
         inkscape:original-d="m 22.732188,83.893094 -2.290001,0.07 0,0.51 0.150001,0 c 0.609999,0 0.639999,0.04 0.639999,0.97 l 0,1.74 0,0.46 c 0,0.409999 -0.11,0.47 -0.75,0.47 l -0.04,0 0,0.51 3.05,0 0,-0.51 c -0.589999,0 -0.69,-0.07 -0.69,-0.46 l 0,-0.47 0,-0.97 c 0,-0.45 0.04,-0.710001 0.16,-0.95 0.16,-0.36 0.510001,-0.59 0.87,-0.59 0.47,0 0.73,0.34 0.73,0.98 l 0,1.53 0,0.47 c 0,0.389999 -0.1,0.46 -0.69,0.46 l 0,0.51 3.05,0 0,-0.51 -0.04,0 c -0.639999,0 -0.75,-0.06 -0.75,-0.47 l 0,-0.46 0,-1.67 c 0,-0.62 -0.11,-1.000001 -0.379999,-1.29 -0.27,-0.31 -0.720001,-0.48 -1.240001,-0.48 -0.789999,0 -1.29,0.29 -1.779999,1.03 l 0,-0.88"
         inkscape:connector-curvature="0"
         style="fill:#fecb34;fill-opacity:1" />
      <path
         d="m 34.066167,103.73815 c -0.286248,-0.34164 -0.569967,-0.68561 -0.851165,-1.03184 l 2.299899,-1.87029 c -0.131621,-0.16227 -0.262681,-0.32508 -0.393181,-0.48842 -1.595192,1.07394 -2.729488,1.26605 -3.457965,0.58961 l -0.616958,0.47551 c 0.150277,0.1952 0.301314,0.38976 0.45311,0.58366 l -2.817424,2.20791 c -0.966646,0.75753 -1.223072,1.01331 -1.436259,1.42014 -0.268193,0.50637 -0.205215,1.06884 0.194926,1.56183 0.400141,0.49299 0.94088,0.69802 1.545758,0.5813 0.544758,-0.0953 1.199547,-0.43376 1.691489,-0.84874 0.0572,-0.0482 0.148715,-0.12547 0.256174,-0.23021 -0.122924,-0.1457 -0.245395,-0.29179 -0.367413,-0.43826 -0.844284,0.71712 -1.489757,0.92583 -1.775803,0.57752 -0.202325,-0.24636 -0.04838,-0.48489 0.741485,-1.12721 l 2.985223,-2.4276 c 0.284107,0.34968 0.570774,0.6971 0.860012,1.04221 z"
         id="path5663"
         inkscape:original-d="m 30.907656,83.893094 -1.3,0 0,-1.98 -0.63,0 c -0.16,1.279998 -0.700001,1.95 -1.65,2.06 l 0,0.52 0.71,0 0,2.39 c 0,0.819999 0.04,1.06 0.21,1.34 0.21,0.349999 0.640001,0.55 1.21,0.55 0.57,0 1.020001,-0.190001 1.29,-0.55 0.25,-0.32 0.4,-0.800001 0.4,-1.23 0,-0.05 0,-0.13 -0.01,-0.23 l -0.53,0 c 0.01,0.739999 -0.22,1.16 -0.63,1.16 -0.289999,0 -0.37,-0.180001 -0.37,-0.86 l 0,-2.57 1.3,0 0,-0.6"
         inkscape:connector-curvature="0"
         style="fill:#fecb34;fill-opacity:1" />
      <path
         d="m 36.141974,106.12477 c -0.565117,-0.57365 -1.122559,-1.1561 -1.672338,-1.747 l -0.580579,0.4955 c 0.03145,0.0369 0.06293,0.0737 0.09443,0.11053 0.411852,0.48123 0.377521,0.55228 -0.627481,1.42624 l -1.998711,1.73812 -0.519439,0.45171 c -0.451685,0.3928 -0.612318,0.37158 -1.063879,-0.15656 -0.0096,-0.0112 -0.01911,-0.0224 -0.02866,-0.0335 l -0.580578,0.4955 c 0.753616,0.88209 1.523766,1.7508 2.310589,2.60526 l 0.561358,-0.51689 c -0.01496,-0.0162 -0.02991,-0.0325 -0.04485,-0.0487 -0.455796,-0.4957 -0.457654,-0.65755 -0.02463,-1.04873 l 0.521847,-0.47143 z m 2.40257,-3.23954 c -0.318131,-0.35959 -1.0268,-0.26448 -1.569562,0.20604 -0.542761,0.47052 -0.741565,1.17878 -0.426491,1.53493 0.335185,0.37888 1.039605,0.2869 1.594331,-0.21508 0.532539,-0.48191 0.713359,-1.17364 0.401722,-1.52589 z"
         id="path5665"
         inkscape:original-d="m 33.985469,83.893094 -2.35,0.07 0,0.51 0.14,0 c 0.609999,0 0.64,0.05 0.64,0.94 l 0,1.77 0,0.46 c 0,0.399999 -0.110001,0.47 -0.74,0.47 l -0.04,0 0,0.51 3.13,0 0,-0.51 -0.06,0 c -0.61,0 -0.72,-0.07 -0.72,-0.46 l 0,-0.47 0,-3.29 m -0.81,-2.64 c -0.49,0 -0.89,0.4 -0.89,0.88 0,0.479999 0.4,0.89 0.87,0.89 0.499999,0 0.9,-0.390001 0.9,-0.89 0,-0.48 -0.400001,-0.88 -0.88,-0.88"
         inkscape:connector-curvature="0"
         style="fill:#fecb34;fill-opacity:1" />
      <path
         d="m 39.617995,109.74466 c -0.30543,-0.29885 -0.608464,-0.6002 -0.909111,-0.904 l 0.606603,-0.59975 c 0.713024,-0.70497 0.961447,-0.92193 1.265289,-1.08325 0.314468,-0.17186 0.654825,-0.19094 0.794819,-0.052 0.063,0.0625 0.06996,0.15355 0.02782,0.19608 -0.03161,0.0319 -0.05969,0.0462 -0.129988,0.0609 -0.23198,0.0231 -0.535074,0.18582 -0.736001,0.38705 -0.412427,0.41306 -0.493338,0.96705 -0.189306,1.26431 0.332987,0.32556 0.944864,0.18501 1.432133,-0.3227 0.642781,-0.66974 0.691534,-1.59385 0.116563,-2.16489 -0.907484,-0.90128 -2.563488,-0.50172 -4.16851,1.02406 l -0.140982,0.13402 c -0.205086,-0.21566 -0.409022,-0.43246 -0.611809,-0.65041 l -0.65727,0.61152 c 0.204964,0.22029 0.411094,0.43944 0.618394,0.65745 l -2.917239,2.77322 -0.509704,0.48454 c -0.433789,0.41237 -0.595488,0.39827 -1.085135,-0.12665 -0.01004,-0.0108 -0.02008,-0.0215 -0.03012,-0.0323 l -0.547287,0.51007 c 0.835081,0.89613 1.688719,1.77627 2.561078,2.63941 l 0.525969,-0.53242 c -0.04718,-0.0467 -0.09431,-0.0934 -0.141387,-0.14017 -0.502119,-0.49891 -0.511063,-0.66094 -0.08538,-1.08182 l 0.500181,-0.49453 2.862738,-2.83041 c 0.30392,0.30719 0.610264,0.61194 0.919041,0.9142 z"
         id="path5667"
         inkscape:original-d="m 38.876875,83.893094 -1.25,0 0,-0.57 c 0,-0.67 0.02,-0.890001 0.12,-1.11 0.1,-0.23 0.33,-0.4 0.53,-0.4 0.09,0 0.16,0.04 0.16,0.08 0,0.03 -0.01,0.05 -0.05,0.09 -0.15,0.12 -0.25,0.34 -0.25,0.53 0,0.389999 0.33,0.69 0.75,0.69 0.46,0 0.8,-0.350001 0.8,-0.82 0,-0.62 -0.620001,-1.09 -1.45,-1.09 -1.309999,0 -2.18,0.990001 -2.18,2.47 l 0,0.13 -0.87,0 0,0.6 0.87,0 0,2.69 0,0.47 c 0,0.399999 -0.110001,0.47 -0.76,0.47 l -0.04,0 0,0.5 3.3,0 0,-0.5 -0.18,0 c -0.639999,0 -0.75,-0.07 -0.75,-0.47 l 0,-0.47 0,-2.69 1.25,0 0,-0.6"
         inkscape:connector-curvature="0"
         style="fill:#fecb34;fill-opacity:1" />
      <path
         d="m 41.620744,111.63649 c -0.617237,-0.51535 -1.226706,-1.04071 -1.828421,-1.5757 l -0.532004,0.54763 c 0.03472,0.0337 0.06946,0.0673 0.104244,0.10097 0.454603,0.43954 0.427249,0.51339 -0.491736,1.47853 l -1.827645,1.91944 -0.474981,0.49883 c -0.413026,0.43377 -0.575376,0.42747 -1.075201,-0.0584 -0.01058,-0.0103 -0.02115,-0.0206 -0.03173,-0.0309 l -0.532003,0.54763 c 0.834493,0.81222 1.685856,1.60896 2.55423,2.38937 l 0.509913,-0.56949 c -0.0165,-0.0148 -0.033,-0.0296 -0.04948,-0.0445 -0.50291,-0.45236 -0.520173,-0.61393 -0.125945,-1.04525 l 0.475095,-0.51978 z m 2.087585,-3.45319 c -0.349776,-0.32476 -1.045631,-0.16076 -1.542114,0.35891 -0.496482,0.51967 -0.62873,1.24219 -0.281808,1.56518 0.369065,0.3436 1.061831,0.18275 1.56676,-0.37069 0.484732,-0.5313 0.5998,-1.23527 0.257162,-1.5534 z"
         id="path5669"
         inkscape:original-d="m 41.563594,83.893094 -2.35,0.07 0,0.51 0.14,0 c 0.609999,0 0.64,0.05 0.64,0.94 l 0,1.77 0,0.46 c 0,0.399999 -0.110001,0.47 -0.74,0.47 l -0.04,0 0,0.51 3.13,0 0,-0.51 -0.06,0 c -0.61,0 -0.72,-0.07 -0.72,-0.46 l 0,-0.47 0,-3.29 m -0.81,-2.64 c -0.49,0 -0.89,0.4 -0.89,0.88 0,0.479999 0.4,0.89 0.87,0.89 0.499999,0 0.9,-0.390001 0.9,-0.89 0,-0.48 -0.400001,-0.88 -0.88,-0.88"
         inkscape:connector-curvature="0"
         style="fill:#fecb34;fill-opacity:1" />
      <path
         d="m 43.44857,118.98026 c -0.460605,0.34548 -0.686526,0.47383 -1.001956,0.60784 -0.504687,0.21443 -1.032106,0.16047 -1.386938,-0.12687 -0.701009,-0.56767 -0.423598,-1.71119 0.77293,-3.13577 1.148282,-1.36715 2.169693,-1.87754 2.770406,-1.39044 0.232276,0.18834 0.313381,0.48329 0.163521,0.6709 -0.0281,0.0352 -0.09104,0.081 -0.267405,0.15124 -0.335227,0.13524 -0.453045,0.21348 -0.632023,0.43543 -0.405053,0.50231 -0.405647,1.08131 -0.0029,1.39826 0.461426,0.36317 1.069266,0.18427 1.534757,-0.42333 0.748438,-0.97694 0.60629,-2.09897 -0.351778,-2.87702 -0.681253,-0.55325 -1.532643,-0.70497 -2.413395,-0.49459 -0.819342,0.1953 -1.662836,0.70482 -2.383919,1.52293 -0.729491,0.82765 -1.115549,1.71614 -1.133981,2.5498 -0.01691,0.82075 0.324552,1.58772 1.021921,2.15796 0.646222,0.52841 1.270654,0.63722 2.099843,0.36949 0.531437,-0.15707 0.946035,-0.40688 1.5042,-0.86819 -0.0987,-0.18238 -0.196445,-0.36493 -0.293236,-0.54764 z"
         id="path5671"
         inkscape:original-d="m 47.375,86.853094 c -0.14,0.369999 -0.23,0.53 -0.38,0.73 -0.24,0.319999 -0.64,0.51 -1.05,0.51 -0.809999,0 -1.28,-0.700002 -1.28,-1.94 0,-1.189999 0.440001,-1.89 1.19,-1.89 0.29,0 0.53,0.12 0.53,0.28 0,0.03 -0.02,0.08 -0.11,0.19 -0.17,0.209999 -0.21,0.3 -0.21,0.49 0,0.429999 0.34,0.73 0.82,0.73 0.549999,0 0.9,-0.340001 0.9,-0.85 0,-0.819999 -0.780001,-1.36 -1.99,-1.36 -1.659998,0 -2.86,1.080001 -2.86,2.59 0,1.459998 1.080002,2.44 2.69,2.44 0.739999,0 1.23,-0.200001 1.67,-0.68 0.29,-0.3 0.45,-0.600001 0.6,-1.07 l -0.52,-0.17"
         inkscape:connector-curvature="0"
         style="fill:#fecb34;fill-opacity:1" />
      <path
         d="m 53.478079,115.78024 c -0.686752,-0.34918 -1.369267,-0.71237 -2.047066,-1.08902 l -0.434283,0.63016 c 0.05089,0.0351 0.101828,0.0702 0.152809,0.10513 0.491028,0.33679 0.483256,0.40061 -0.260694,1.50961 l -3.627801,5.40795 -0.392872,0.58565 c -0.334359,0.49843 -0.488559,0.50763 -1.086585,0.0967 -0.01227,-0.008 -0.02453,-0.0169 -0.03679,-0.0253 l -0.433998,0.63035 c 0.944664,0.64991 1.904944,1.27843 2.880204,1.88423 l 0.403998,-0.64964 c -0.550495,-0.34202 -0.586824,-0.49292 -0.264591,-0.99913 l 0.370568,-0.58214 0.225563,-0.35434 c 0.250999,-0.0833 0.501085,-0.16787 0.750238,-0.2537 -0.01412,0.6461 -0.02025,1.29434 -0.01823,1.94458 -0.0022,0.17409 -0.04763,0.35685 -0.117424,0.47239 -0.100817,0.16689 -0.279743,0.18205 -0.527596,0.0304 -0.03178,-0.0194 -0.06354,-0.0389 -0.09528,-0.0584 l -0.400538,0.65173 c 0.9818,0.60269 1.978607,1.18237 2.989778,1.73771 l 0.368364,-0.67007 c -0.343183,-0.18852 -0.385459,-0.33154 -0.385246,-1.31432 -0.01799,-1.13681 -0.01092,-2.26791 0.02034,-3.39266 0.397309,-0.13436 0.792113,-0.27211 1.184327,-0.41321 0.633507,-0.23733 0.979568,-0.24644 1.320527,-0.0546 0.06879,0.0387 0.137647,0.0773 0.206571,0.11574 l 0.372355,-0.66791 c -0.870501,-0.48572 -1.730339,-0.99248 -2.578945,-1.51908 l -0.403084,0.65019 c 0.03504,0.0217 0.07011,0.0434 0.105187,0.0651 0.333276,0.2059 0.450065,0.45095 0.3104,0.68199 -0.09311,0.15402 -0.248215,0.27081 -0.533997,0.37758 -0.650456,0.23567 -1.307785,0.46237 -1.971619,0.68001 z"
         id="path5673"
         inkscape:original-d="m 53.5825,81.253094 -2.4,0.15 0,0.51 0.19,0 c 0.609999,0 0.64,0.04 0.64,0.93 l 0,4.34 0,0.47 c 0,0.399999 -0.110001,0.46 -0.76,0.46 l -0.04,0 0,0.51 3.05,0 0,-0.51 c -0.579999,0 -0.68,-0.07 -0.68,-0.47 l 0,-0.46 0,-0.28 0.46,-0.41 0.92,1.11 c 0.08,0.1 0.13,0.22 0.13,0.31 0,0.13 -0.13,0.2 -0.39,0.2 l -0.1,0 0,0.51 3.06,0 0,-0.51 c -0.35,0 -0.44,-0.07 -0.88,-0.64 l -1.57,-1.96 0.77,-0.64 c 0.41,-0.35 0.7,-0.47 1.08,-0.47 l 0.23,0 0,-0.51 -2.94,0 0,0.51 0.12,0 c 0.38,0 0.6,0.1 0.6,0.28 0,0.12 -0.07,0.24 -0.25,0.4 l -1.24,1.08 0,-4.91"
         inkscape:connector-curvature="0"
         style="fill:#fecb34;fill-opacity:1" />
      <path
         d="m 57.237359,122.45088 c -0.709757,-0.31333 -1.414579,-0.64072 -2.114125,-0.98165 l -0.36533,0.67171 c 0.04527,0.0246 0.09057,0.0492 0.135896,0.0737 0.552991,0.29919 0.553748,0.36387 -0.09666,1.59708 l -1.216897,2.3073 -0.321708,0.60997 c -0.286739,0.54367 -0.439387,0.56894 -1.068759,0.22742 -0.01311,-0.007 -0.02622,-0.0142 -0.03933,-0.0214 l -0.365331,0.67171 c 1.010478,0.54908 2.035168,1.07385 3.073433,1.57301 l 0.33123,-0.68901 c -0.595757,-0.28642 -0.648145,-0.4329 -0.388827,-0.95686 l 0.312511,-0.63144 0.644969,-1.30318 c 0.299213,-0.60456 0.510516,-0.93473 0.782233,-1.20203 0.388745,-0.41022 0.864187,-0.56189 1.200692,-0.40249 0.439324,0.20811 0.471704,0.78224 0.07161,1.65423 l -0.956481,2.08461 -0.293821,0.64038 c -0.243808,0.53137 -0.390887,0.58277 -0.988556,0.30006 l -0.326852,0.6911 c 1.041638,0.49275 2.096773,0.95972 3.164768,1.39958 l 0.290661,-0.7074 c -0.01384,-0.006 -0.02769,-0.0114 -0.04153,-0.0171 -0.664314,-0.27402 -0.740887,-0.40872 -0.499539,-0.97409 l 0.270781,-0.63432 0.983052,-2.30285 c 0.364965,-0.85495 0.482434,-1.4237 0.40255,-1.93237 -0.06793,-0.53618 -0.379424,-0.95157 -0.856919,-1.17103 -0.725424,-0.3334 -1.361819,-0.16076 -2.310216,0.60688 z"
         id="path5675"
         inkscape:original-d="m 60.232188,83.893094 -2.29,0.07 0,0.51 0.15,0 c 0.609999,0 0.64,0.04 0.64,0.97 l 0,1.74 0,0.46 c 0,0.409999 -0.110001,0.47 -0.75,0.47 l -0.04,0 0,0.51 3.049999,0 0,-0.51 c -0.589999,0 -0.689999,-0.07 -0.689999,-0.46 l 0,-0.47 0,-0.97 c 0,-0.45 0.04,-0.710001 0.159999,-0.95 0.16,-0.36 0.510001,-0.59 0.870001,-0.59 0.469999,0 0.729999,0.34 0.729999,0.98 l 0,1.53 0,0.47 c 0,0.389999 -0.1,0.46 -0.689999,0.46 l 0,0.51 3.05,0 0,-0.51 -0.04,0 c -0.639999,0 -0.75,-0.06 -0.75,-0.47 l 0,-0.46 0,-1.67 c 0,-0.62 -0.11,-1.000001 -0.38,-1.29 -0.269999,-0.31 -0.72,-0.48 -1.24,-0.48 -0.789999,0 -1.29,0.29 -1.779999,1.03 l 0,-0.88"
         inkscape:connector-curvature="0"
         style="fill:#fecb34;fill-opacity:1" />
      <path
         d="m 64.264053,125.15602 c -0.913834,-0.31571 -1.878491,-0.0531 -2.695288,0.63826 -0.537967,0.4553 -1.00909,1.09769 -1.328221,1.89337 -0.325059,0.81047 -0.428616,1.60898 -0.317551,2.31797 0.166226,1.05626 0.816286,1.91303 1.836437,2.2657 0.85232,0.29465 1.725476,0.15542 2.446723,-0.31886 0.721247,-0.47428 1.290231,-1.28193 1.591533,-2.31085 0.299195,-1.02173 0.263788,-2.02291 -0.01345,-2.82604 -0.277234,-0.80313 -0.795858,-1.40931 -1.520187,-1.65955 z m -0.273786,0.73044 c 0.338092,0.11692 0.533825,0.56127 0.49751,1.10197 -0.03677,0.50896 -0.221091,1.34781 -0.462782,2.08917 -0.590283,1.81063 -1.317733,2.6962 -1.999919,2.46046 -0.714163,-0.24678 -0.728077,-1.32527 -0.04773,-3.18438 0.680349,-1.8591 1.365715,-2.69103 2.012919,-2.46722 z"
         id="path5677"
         inkscape:original-d="m 67.677656,83.743094 c -1.589998,0 -2.77,1.080001 -2.77,2.52 0,1.449998 1.150002,2.51 2.73,2.51 1.579999,0 2.75,-1.060002 2.75,-2.49 0,-1.419999 -1.190001,-2.54 -2.71,-2.54 m -0.02,0.52 c 0.35,0 0.67,0.24 0.8,0.59 0.12,0.329999 0.2,0.9 0.2,1.42 0,1.269998 -0.37,1.98 -1.01,1.98 -0.669999,0 -1.01,-0.670002 -1.01,-1.99 0,-1.319999 0.350001,-2 1.02,-2"
         inkscape:connector-curvature="0"
         style="fill:#fecb34;fill-opacity:1" />
      <path
         d="m 72.658161,132.4529 c -0.143945,-1.15552 -0.270251,-2.31066 -0.378886,-3.46499 -0.01608,-0.14031 -0.01423,-0.26205 -4e-4,-0.33575 0.04427,-0.23584 0.224988,-0.3077 0.609343,-0.23927 0.0236,0.004 0.04721,0.008 0.07081,0.0126 l 0.133274,-0.75321 c -0.928941,-0.16422 -1.85373,-0.35047 -2.773229,-0.55873 l -0.169038,0.74589 c 0.370562,0.0839 0.457792,0.20941 0.49155,0.69226 0.02123,0.31139 0.04376,0.62288 0.06759,0.93446 -0.422665,0.77931 -0.855253,1.55491 -1.297739,2.32659 -0.06856,-1.1475 -0.1205,-2.29368 -0.155803,-3.43815 -0.0078,-0.27943 -0.0074,-0.2794 0.01015,-0.35229 0.06679,-0.27697 0.170491,-0.3123 0.573981,-0.23402 l 0.173009,-0.74497 c -0.908436,-0.21086 -1.811571,-0.44324 -2.708305,-0.69713 l -0.208347,0.7358 c 0.376957,0.1379 0.466774,0.34805 0.483589,1.00491 0.05119,1.98112 0.156343,3.96857 0.315274,5.96012 0.280682,0.0674 0.561784,0.1329 0.843281,0.19659 0.712152,-1.18677 1.400089,-2.38342 2.063718,-3.58919 0.109546,1.36476 0.243379,2.73102 0.401448,4.0981 0.279874,0.0523 0.560068,0.10279 0.84056,0.15149 0.887028,-1.62705 1.729167,-3.27011 2.526177,-4.92727 0.439845,-0.90592 0.67682,-1.14454 1.141263,-1.12965 l 0.0985,-0.75864 c -0.758142,-0.0983 -1.514284,-0.21115 -2.267821,-0.33842 l -0.127503,0.75422 c 0.02364,0.004 0.04728,0.008 0.07092,0.0119 0.425591,0.0714 0.658333,0.37993 0.593684,0.79489 -0.02771,0.17785 -0.105415,0.4087 -0.265633,0.74781 -0.375404,0.80112 -0.760551,1.5992 -1.155421,2.39404 z"
         id="path5679"
         inkscape:original-d="m 77.130938,87.083094 -0.920001,-2.23 c -0.04,-0.09 -0.06,-0.17 -0.06,-0.22 0,-0.16 0.160001,-0.23 0.540001,-0.23 l 0.07,0 0,-0.51 -2.789999,0 0,0.51 c 0.369999,0 0.48,0.07 0.61,0.38 l 0.25,0.6 -0.72,1.7 -0.870001,-2.21 c -0.07,-0.18 -0.07,-0.18 -0.07,-0.23 0,-0.19 0.09,-0.23 0.490001,-0.24 l 0,-0.51 -2.760001,0 0,0.51 c 0.39,0.02 0.530001,0.14 0.710001,0.56 l 1.629999,3.8 0.760001,0 1.14,-2.63 1.069999,2.63 0.75,0 1.57,-3.51 c 0.29,-0.64 0.490001,-0.82 0.940001,-0.85 l 0,-0.51 -2.260001,0 0,0.51 0.07,0 c 0.42,0 0.690001,0.18 0.690001,0.46 0,0.12 -0.04,0.28 -0.14,0.52 l -0.7,1.7"
         inkscape:connector-curvature="0"
         style="fill:#fecb34;fill-opacity:1" />
      <path
         d="m 78.852524,124.43133 c -0.762307,0.0114 -1.526216,0.007 -2.290999,-0.0124 l -0.09482,0.75911 c 0.06062,0.008 0.121258,0.015 0.181907,0.0224 0.584147,0.0709 0.606708,0.13075 0.459835,1.4577 l -0.716213,6.47078 -0.07756,0.70075 c -0.06601,0.59638 -0.199025,0.67613 -0.92276,0.58651 -0.01485,-0.002 -0.02969,-0.004 -0.04454,-0.006 l -0.09444,0.75917 c 1.171235,0.14585 2.34619,0.26074 3.523276,0.34462 l 0.05436,-0.76314 c -0.02611,-0.002 -0.05222,-0.004 -0.07832,-0.006 -0.212585,-0.0154 -0.511009,-0.0841 -0.584286,-0.15027 -0.12666,-0.10062 -0.149869,-0.22313 -0.118499,-0.59685 l 0.05898,-0.70259 z"
         id="path5681"
         inkscape:original-d="m 82.157656,81.253094 -2.4,0.15 0,0.51 0.19,0 c 0.61,0 0.64,0.04 0.64,0.93 l 0,4.34 0,0.47 c 0,0.399999 -0.11,0.46 -0.76,0.46 l -0.04,0 0,0.51 3.12,0 0,-0.51 -0.07,0 c -0.19,0 -0.46,-0.03 -0.53,-0.07 -0.12,-0.06 -0.15,-0.140001 -0.15,-0.39 l 0,-0.47 0,-5.93"
         inkscape:connector-curvature="0"
         style="fill:#fecb34;fill-opacity:1" />
      <path
         d="m 85.051524,132.2475 -0.0051,-0.23992 c -0.0189,-0.88771 -0.191283,-1.64396 -0.481233,-2.23312 -0.43623,-0.89367 -1.130216,-1.40382 -2.020064,-1.41902 -0.809017,-0.0138 -1.496068,0.34844 -2.049193,1.08672 -0.49864,0.68093 -0.846506,1.6502 -0.908103,2.63838 -0.06626,1.06304 0.205162,2.16369 0.734654,2.83528 0.487542,0.60946 1.240801,0.9698 2.105831,0.98427 0.982595,0.0164 1.720534,-0.41592 2.215391,-1.29152 0,0 0,0 0,0 0.173577,-0.31113 0.317969,-0.67813 0.434638,-1.10146 -0.152583,-0.0815 -0.304756,-0.16334 -0.456517,-0.2456 -0.02747,-0.0148 -0.05493,-0.0296 -0.08236,-0.0444 -0.419672,1.17645 -0.928031,1.67638 -1.656766,1.66897 -0.51572,-0.005 -0.958328,-0.34621 -1.218239,-0.92401 -0.176236,-0.4103 -0.236792,-0.87781 -0.219225,-1.73278 1.053024,0.0349 2.106885,0.0438 3.160259,0.0267 0.148693,-0.002 0.297372,-0.005 0.446037,-0.008 z m -3.568332,-0.84251 c 0.04698,-1.42435 0.464766,-2.27926 1.079406,-2.26909 0.522445,0.009 0.807318,0.63805 0.803533,1.82311 -0.0011,0.36001 -0.07595,0.48009 -0.288575,0.47844 -0.531552,-0.004 -1.063066,-0.0149 -1.594364,-0.0325 z"
         id="path5683"
         inkscape:original-d="m 88.513281,86.343094 0,-0.16 c 0,-1.489999 -0.930001,-2.44 -2.39,-2.44 -0.799999,0 -1.47,0.26 -1.97,0.77 -0.449999,0.469999 -0.72,1.13 -0.72,1.79 0,0.709999 0.310001,1.43 0.81,1.86 0.46,0.389999 1.130001,0.61 1.89,0.61 1.169999,0 1.940001,-0.520001 2.38,-1.59 l -0.49,-0.2 c -0.399999,0.779999 -0.85,1.11 -1.5,1.11 -0.459999,0 -0.86,-0.220001 -1.11,-0.6 -0.17,-0.27 -0.24,-0.580001 -0.25,-1.15 l 3.35,0 m -3.34,-0.55 c 0,-0.949999 0.380001,-1.53 0.98,-1.53 0.51,0 0.79,0.42 0.79,1.21 0,0.239999 -0.07,0.32 -0.27,0.32 l -1.5,0"
         inkscape:connector-curvature="0"
         style="fill:#fecb34;fill-opacity:1" />
      <path
         d="m 90.791989,124.27998 c -0.81809,0.15164 -1.639339,0.29098 -2.463445,0.41775 l 0.04842,0.763 c 0.105809,-0.007 0.211608,-0.0135 0.317396,-0.0206 0.604974,-0.0403 0.639076,0.015 0.738835,1.34534 l 0.17598,2.34676 c -0.4452,-0.65814 -0.925125,-0.93978 -1.570924,-0.90293 -1.312102,0.0749 -2.288021,1.79496 -2.222536,3.98351 0.06504,2.17355 1.104551,3.63309 2.554618,3.55069 0.803113,-0.0456 1.346896,-0.49096 1.728857,-1.42208 l 0.08186,1.07613 c 0.862273,-0.12099 1.721853,-0.25385 2.578494,-0.3984 l -0.08379,-0.80495 c -0.09864,0.0103 -0.197305,0.0204 -0.295984,0.0304 -0.394718,0.0399 -0.427817,0.0422 -0.525435,-0.0538 -0.109997,-0.10996 -0.159511,-0.286 -0.201504,-0.73366 z m -2.218205,4.93852 c 0.642896,-0.0403 1.138193,1.00338 1.263008,2.66252 0.122565,1.62924 -0.255608,2.78657 -0.939262,2.82968 -0.694681,0.0438 -1.140858,-0.8959 -1.227607,-2.60287 -0.09055,-1.78185 0.240226,-2.84769 0.903861,-2.88933 z"
         id="path5685"
         inkscape:original-d="m 94.535469,81.253094 -2.53,0.15 0,0.51 0.32,0 c 0.609999,0 0.64,0.04 0.64,0.93 l 0,1.57 c -0.38,-0.46 -0.830001,-0.67 -1.46,-0.67 -1.279999,0 -2.28,1.130001 -2.28,2.59 0,1.449998 0.890001,2.44 2.19,2.44 0.719999,0 1.23,-0.270001 1.64,-0.87 l 0,0.72 2.34,-0.11 0,-0.54 -0.27,0 c -0.36,0 -0.39,0 -0.47,-0.07 -0.09,-0.08 -0.12,-0.200001 -0.12,-0.5 l 0,-6.15 m -2.57,3.17 c 0.619999,0 1.02,0.720001 1.02,1.83 0,1.089999 -0.420001,1.84 -1.04,1.84 -0.63,0 -0.99,-0.640001 -0.99,-1.78 0,-1.189999 0.37,-1.89 1.01,-1.89"
         inkscape:connector-curvature="0"
         style="fill:#fecb34;fill-opacity:1" />
      <path
         d="m 95.639972,133.3735 c -0.575458,0.0789 -0.715752,0.0198 -0.761915,-0.33686 -0.04809,-0.37155 0.1305,-0.51361 0.753875,-0.59995 0.06449,-0.009 0.128964,-0.0179 0.193431,-0.027 0.709142,-0.0997 1.093429,-0.25047 1.457154,-0.58082 0.556269,-0.49721 0.787135,-1.31261 0.635253,-2.21407 -0.117025,-0.69457 -0.358871,-1.10873 -0.89514,-1.56868 0.0901,-0.28778 0.187807,-0.45564 0.30997,-0.4759 0.03054,-0.005 0.05336,0.006 0.06319,0.0655 l 0.0098,0.0591 c 0.05655,0.34001 0.388004,0.6191 0.665072,0.57121 0.359163,-0.0621 0.561425,-0.52524 0.46574,-1.05621 -0.103659,-0.57522 -0.473531,-0.90383 -0.915408,-0.82807 -0.45192,0.0775 -0.782597,0.49607 -1.10439,1.38051 -0.431567,-0.22082 -0.909972,-0.30043 -1.428826,-0.22777 -1.393782,0.19519 -2.285074,1.37512 -2.120141,2.8496 0.111621,0.99788 0.597439,1.68488 1.417026,1.95998 -0.811519,0.3129 -1.170504,0.8324 -1.084421,1.60694 0.07284,0.65538 0.491148,1.10796 1.162606,1.26753 -0.723951,0.23938 -1.106624,0.76179 -1.030058,1.46199 0.107518,0.98326 1.087033,1.37182 2.941275,1.11495 2.115879,-0.2931 3.138763,-1.38353 2.86518,-2.96357 -0.143183,-0.82694 -0.622481,-1.45792 -1.200711,-1.59133 -0.384288,-0.10432 -0.869046,-0.0864 -1.649864,0.0271 -0.249428,0.0363 -0.499009,0.0715 -0.748737,0.1058 z m -0.413282,-5.07158 c 0.492649,-0.0692 0.837216,0.48448 1.005202,1.61096 0.156935,1.05236 -0.0376,1.71869 -0.538697,1.78899 -0.31985,0.0449 -0.545068,-0.0915 -0.71121,-0.44729 -0.16021,-0.31127 -0.269204,-0.73535 -0.331592,-1.21083 -0.142323,-1.08469 0.05286,-1.66834 0.576297,-1.74183 z m 1.419594,7.04842 c 0.687478,-0.0996 0.824235,-0.0926 1.038174,0.0409 0.113669,0.0733 0.213014,0.27001 0.243344,0.46245 0.09566,0.60694 -0.419377,0.99694 -1.581612,1.1589 -0.868855,0.12108 -1.40582,-0.13163 -1.474531,-0.68184 -0.04086,-0.32716 0.06364,-0.58155 0.320348,-0.78098 0.485311,-0.0628 0.970086,-0.12927 1.454277,-0.19944 z"
         id="path5687"
         inkscape:original-d="m 98.165156,87.653094 c -0.529999,0 -0.65,-0.05 -0.65,-0.29 0,-0.25 0.180001,-0.33 0.76,-0.33 l 0.18,0 c 0.66,0 1.030001,-0.06 1.41,-0.24 0.580004,-0.27 0.920004,-0.780001 0.920004,-1.39 0,-0.47 -0.16,-0.770001 -0.6,-1.13 0.13,-0.18 0.25,-0.28 0.37,-0.28 0.03,0 0.05,0.01 0.05,0.05 l 0,0.04 c 0,0.229999 0.27,0.45 0.54,0.45 0.35,0 0.62,-0.280001 0.62,-0.64 0,-0.39 -0.3,-0.65 -0.74,-0.65 -0.45,0 -0.84,0.24 -1.280004,0.79 -0.379999,-0.19 -0.83,-0.29 -1.34,-0.29 -1.369998,0 -2.36,0.720001 -2.36,1.71 0,0.669999 0.380001,1.16 1.1,1.41 -0.779999,0.14 -1.16,0.46 -1.16,0.98 0,0.439999 0.330001,0.77 0.91,0.93 -0.669999,0.1 -1.06,0.42 -1.06,0.89 0,0.659999 0.810002,0.98 2.44,0.98 1.859994,0 2.900004,-0.590001 2.900004,-1.66 0,-0.56 -0.33,-1.03 -0.83,-1.18 -0.33,-0.11 -0.770004,-0.15 -1.490004,-0.15 l -0.69,0 m 0.27,-3.39 c 0.48,0 0.73,0.4 0.73,1.16 0,0.709999 -0.27,1.13 -0.74,1.13 -0.299999,0 -0.49,-0.110001 -0.6,-0.36 -0.11,-0.22 -0.16,-0.510001 -0.16,-0.83 0,-0.73 0.260001,-1.1 0.77,-1.1 m 0.38,4.79 c 0.62,0 0.74,0.02 0.91,0.13 0.09,0.06 0.15,0.2 0.15,0.33 0,0.409999 -0.500001,0.61 -1.53,0.61 -0.769999,0 -1.21,-0.210001 -1.21,-0.58 0,-0.22 0.12,-0.38 0.37,-0.49 l 1.31,0"
         inkscape:connector-curvature="0"
         style="fill:#fecb34;fill-opacity:1" />
      <path
         d="m 104.73255,129.64873 -0.0568,-0.23303 c -0.52902,-2.17 -1.79412,-3.31948 -3.26165,-3.00382 -0.80413,0.17296 -1.40003,0.6882 -1.767758,1.53678 -0.327863,0.77991 -0.432587,1.80376 -0.254869,2.7768 0.191181,1.04674 0.716137,2.04881 1.380167,2.57741 0.60932,0.47807 1.40917,0.65552 2.23757,0.47753 1.27531,-0.274 1.9366,-1.2367 2.02159,-2.90831 -0.19624,-0.055 -0.39206,-0.11069 -0.58744,-0.16696 -0.1513,1.23779 -0.52766,1.83371 -1.22801,1.98751 -0.49563,0.10883 -0.99673,-0.12313 -1.37942,-0.62572 -0.26375,-0.35879 -0.4304,-0.79918 -0.61118,-1.6342 1.17409,-0.23877 2.34363,-0.50022 3.50781,-0.78399 z m -3.66168,-0.0259 c -0.28395,-1.39524 -0.0709,-2.32444 0.53741,-2.45548 0.51707,-0.11138 0.93827,0.43803 1.19799,1.59333 0.0789,0.35098 0.0326,0.48451 -0.17505,0.53052 -0.51917,0.11504 -1.03931,0.22559 -1.56035,0.33163 z"
         id="path5689"
         inkscape:original-d="m 107.04844,86.343094 0,-0.16 c 0,-1.489999 -0.93,-2.44 -2.39,-2.44 -0.8,0 -1.47,0.26 -1.97,0.77 -0.45,0.469999 -0.72,1.13 -0.72,1.79 0,0.709999 0.31,1.43 0.81,1.86 0.46,0.389999 1.13,0.61 1.89,0.61 1.17,0 1.94,-0.520001 2.38,-1.59 l -0.49,-0.2 c -0.4,0.779999 -0.85,1.11 -1.5,1.11 -0.46,0 -0.86,-0.220001 -1.11,-0.6 -0.17,-0.27 -0.24,-0.580001 -0.25,-1.15 l 3.35,0 m -3.34,-0.55 c 0,-0.949999 0.38,-1.53 0.98,-1.53 0.51,0 0.79,0.42 0.79,1.21 0,0.239999 -0.07,0.32 -0.27,0.32 l -1.5,0"
         inkscape:connector-curvature="0"
         style="fill:#fecb34;fill-opacity:1" />
      <path
         d="m 109.57759,124.48614 c -0.7638,0.27691 -1.53165,0.54374 -2.30327,0.80031 l 0.2097,0.73535 c 0.0501,-0.0143 0.10013,-0.0286 0.15018,-0.043 0.6206,-0.17821 0.6383,-0.15453 1.05135,1.20875 l 1.59464,5.40758 0.19933,0.67595 c 0.16964,0.57527 0.08,0.71377 -0.62037,0.91358 -0.0146,0.004 -0.0292,0.008 -0.0438,0.0125 l 0.20558,0.72093 c 1.18718,-0.33806 2.36802,-0.69786 3.54183,-1.07908 l -0.23187,-0.71307 c -0.0397,0.0129 -0.0794,0.0257 -0.11906,0.0386 -0.70368,0.2276 -0.85539,0.16244 -1.03525,-0.40978 l -0.21134,-0.67236 -0.48563,-1.54499 c 0.61899,0.49714 1.19541,0.64357 1.7984,0.44349 1.41755,-0.47035 1.90346,-2.46937 1.13793,-4.58493 -0.70428,-1.94631 -2.12852,-3.03711 -3.37834,-2.61966 -0.66397,0.22177 -0.98097,0.66925 -1.17226,1.62542 z m 1.38089,0.50119 c 0.59404,-0.19509 1.22331,0.58732 1.79292,2.26282 0.54064,1.59032 0.46766,2.67802 -0.19284,2.89407 -0.70243,0.22977 -1.38611,-0.54774 -1.89404,-2.16431 -0.53041,-1.68811 -0.42879,-2.75521 0.29396,-2.99258 z"
         id="path5691"
         inkscape:original-d="m 112.80172,83.893094 -2.36,0.07 0,0.51 0.15,0 c 0.62,0 0.63,0.02 0.64,0.97 l 0,3.76 0,0.47 c 0,0.399999 -0.11,0.47 -0.75,0.47 l -0.04,0 0,0.5 3.23,0 0,-0.5 -0.11,0 c -0.65,0 -0.76,-0.07 -0.76,-0.47 l 0,-0.47 0,-1.08 c 0.4,0.439999 0.85,0.65 1.42,0.65 1.34,0 2.36,-1.140002 2.36,-2.64 0,-1.379999 -0.94,-2.39 -2.22,-2.39 -0.68,0 -1.11,0.22 -1.56,0.79 l 0,-0.64 m 1.12,0.6 c 0.6,0 0.93,0.630001 0.93,1.81 0,1.119999 -0.38,1.79 -1.01,1.79 -0.67,0 -1.05,-0.630001 -1.05,-1.76 0,-1.179999 0.4,-1.84 1.13,-1.84"
         inkscape:connector-curvature="0"
         style="fill:#fecb34;fill-opacity:1" />
      <path
         d="m 115.94564,122.22176 c -0.70019,0.31608 -1.4047,0.62354 -2.11329,0.92224 l 0.26465,0.71771 c 0.0489,-0.018 0.0978,-0.0361 0.1466,-0.0542 0.596,-0.22098 0.64574,-0.17799 1.13996,1.12649 l 0.92468,2.44064 0.24446,0.64523 c 0.21788,0.5751 0.13711,0.70456 -0.52542,0.9491 -0.0138,0.005 -0.0276,0.0102 -0.0414,0.0153 l 0.26465,0.71771 c 1.16172,-0.42814 2.3154,-0.87814 3.46025,-1.34964 l -0.29143,-0.70738 c -0.0748,0.0308 -0.14969,0.0615 -0.22459,0.0922 -0.6537,0.26735 -0.80073,0.22648 -1.02881,-0.34469 l -0.25588,-0.64083 -0.11126,-0.27863 c -0.38939,-0.97517 -0.65981,-2.14302 -0.66369,-2.85353 -0.003,-0.59738 0.0968,-0.92967 0.36625,-1.20386 -0.0216,0.30128 0.002,0.46982 0.10532,0.71943 0.24599,0.59631 0.73751,0.89713 1.15797,0.71952 0.47912,-0.20239 0.61829,-0.86849 0.32574,-1.54286 -0.34629,-0.79824 -1.03724,-1.20037 -1.64514,-0.94545 -0.73138,0.3067 -0.98673,1.1198 -0.82917,2.54227 z"
         id="path5693"
         inkscape:original-d="m 119.35141,83.893094 -2.23,0.07 0,0.51 0.15,0 c 0.61,0 0.64,0.04 0.64,0.97 l 0,1.74 0,0.46 c 0,0.409999 -0.11,0.47 -0.75,0.47 l -0.04,0 0,0.51 3.34,0 0,-0.51 -0.22,0 c -0.64,0 -0.75,-0.06 -0.75,-0.47 l 0,-0.46 0,-0.2 c 0,-0.7 0.17,-1.490001 0.42,-1.93 0.21,-0.37 0.42,-0.55 0.76,-0.65 -0.13,0.18 -0.17,0.29 -0.17,0.47 0,0.429999 0.32,0.74 0.75,0.74 0.49,0 0.86,-0.370001 0.86,-0.86 0,-0.58 -0.46,-1.01 -1.1,-1.01 -0.77,0 -1.3,0.440001 -1.66,1.36 l 0,-1.21"
         inkscape:connector-curvature="0"
         style="fill:#fecb34;fill-opacity:1" />
      <path
         d="m 121.39899,119.5976 c -1.47892,0.7038 -1.94464,2.66989 -1.07745,4.6485 0.87322,1.99233 2.68893,2.94094 4.27969,2.18497 1.59076,-0.75597 2.02139,-2.77298 1.04109,-4.68137 -0.97345,-1.89504 -2.82951,-2.82492 -4.24333,-2.1521 z m 0.31645,0.71339 c 0.32835,-0.15616 0.78387,0.0231 1.13623,0.43564 0.32979,0.39012 0.78204,1.12083 1.12498,1.82157 0.83755,1.71143 0.93894,2.84962 0.29968,3.15351 -0.66923,0.31814 -1.43282,-0.43879 -2.26281,-2.23682 -0.82999,-1.79802 -0.92664,-2.87496 -0.29808,-3.1739 z"
         id="path5695"
         inkscape:original-d="m 125.21672,83.743094 c -1.59,0 -2.77,1.080001 -2.77,2.52 0,1.449998 1.15,2.51 2.73,2.51 1.58,0 2.75,-1.060002 2.75,-2.49 0,-1.419999 -1.19,-2.54 -2.71,-2.54 m -0.02,0.52 c 0.35,0 0.67,0.24 0.8,0.59 0.12,0.329999 0.2,0.9 0.2,1.42 0,1.269998 -0.37,1.98 -1.01,1.98 -0.67,0 -1.01,-0.670002 -1.01,-1.99 0,-1.319999 0.35,-2 1.02,-2"
         inkscape:connector-curvature="0"
         style="fill:#fecb34;fill-opacity:1" />
      <path
         d="m 127.37451,112.1516 c -0.67487,0.49386 -1.35781,0.97872 -2.04852,1.45435 l 0.3759,0.66644 c 0.0928,-0.0524 0.18555,-0.10486 0.27818,-0.15754 0.52974,-0.30126 0.58469,-0.26611 1.25319,0.88971 l 1.17928,2.03893 c -0.68804,-0.39931 -1.24412,-0.44363 -1.8111,-0.12805 -1.15196,0.64118 -1.28005,2.61772 -0.26405,4.55829 1.00904,1.92729 2.57972,2.78786 3.84675,2.08418 0.70174,-0.38974 0.99675,-1.02665 0.93553,-2.03166 l 0.54176,0.9345 c 0.72302,-0.4828 1.43907,-0.9748 2.14791,-1.47581 l -0.42466,-0.68987 c -0.0844,0.052 -0.16891,0.10381 -0.25349,0.15553 -0.33829,0.20684 -0.36703,0.22336 -0.49667,0.17899 -0.14681,-0.0515 -0.26785,-0.18883 -0.50004,-0.57437 z m 0.14111,5.42116 c 0.56255,-0.31695 1.46348,0.40821 2.29756,1.84956 0.81905,1.41537 0.98214,2.62252 0.38606,2.95823 -0.60568,0.34113 -1.41656,-0.3111 -2.23917,-1.81062 -0.85868,-1.56529 -1.02515,-2.67 -0.44445,-2.99717 z"
         id="path5697"
         inkscape:original-d="m 133.93,81.253094 -2.53,0.15 0,0.51 0.32,0 c 0.61,0 0.64,0.04 0.64,0.93 l 0,1.57 c -0.38,-0.46 -0.83,-0.67 -1.46,-0.67 -1.28,0 -2.28,1.130001 -2.28,2.59 0,1.449998 0.89,2.44 2.19,2.44 0.72,0 1.23,-0.270001 1.64,-0.87 l 0,0.72 2.34,-0.11 0,-0.54 -0.27,0 c -0.36,0 -0.39,0 -0.47,-0.07 -0.09,-0.08 -0.12,-0.200001 -0.12,-0.5 l 0,-6.15 m -2.57,3.17 c 0.62,0 1.02,0.720001 1.02,1.83 0,1.089999 -0.42,1.84 -1.04,1.84 -0.63,0 -0.99,-0.640001 -0.99,-1.78 0,-1.189999 0.37,-1.89 1.01,-1.89"
         inkscape:connector-curvature="0"
         style="fill:#fecb34;fill-opacity:1" />
      <path
         d="m 135.31944,111.67129 c -0.25117,0.19588 -0.50334,0.39054 -0.75652,0.58396 -0.39603,0.30231 -0.79473,0.60148 -1.19604,0.89746 l 0.42735,0.63454 c 0.0461,-0.031 0.0922,-0.0621 0.13818,-0.0932 0.52651,-0.35594 0.58499,-0.32599 1.37475,0.82395 l 0.67937,0.98919 c 0.4246,0.61825 0.62711,0.98881 0.72189,1.37832 0.14402,0.51939 0.0195,1.02169 -0.32766,1.25405 -0.4568,0.30572 -0.9059,0.043 -1.53228,-0.90962 l -2.37367,-3.60975 c -0.66205,0.47716 -1.33097,0.94573 -2.00651,1.40553 l 0.40306,0.65031 c 0.0472,-0.0293 0.0944,-0.0586 0.14164,-0.088 0.54857,-0.34133 0.57207,-0.32337 1.34271,0.87548 l 1.01828,1.61023 c 0.59332,0.93825 0.75567,1.15522 1.11087,1.42723 0.69307,0.53727 1.44398,0.60997 2.0772,0.19277 0.66116,-0.4356 0.89127,-1.0626 0.81261,-2.30124 l 0.69716,1.01337 c 0.16847,-0.13244 0.33646,-0.26541 0.50399,-0.39891 0.50851,-0.40486 1.01289,-0.81436 1.51306,-1.22842 l -0.47606,-0.65556 c -0.0831,0.0603 -0.16628,0.12048 -0.24955,0.18052 -0.41933,0.30238 -0.55269,0.26685 -0.86611,-0.17296 l -0.20024,-0.281 z"
         id="path5699"
         inkscape:original-d="m 140.76969,83.893094 -2.37,0.07 0,0.51 0.16,0 c 0.61,0 0.64,0.04 0.64,0.97 l 0,0.8 c 0,0.499999 -0.04,0.78 -0.17,1.03 -0.16,0.339999 -0.51,0.57 -0.89,0.57 -0.5,0 -0.71,-0.310001 -0.71,-1.07 l 0,-2.88 -2.37,0.07 0,0.51 0.16,0 c 0.62,0 0.63,0.02 0.64,0.97 l 0,1.27 c 0,0.739999 0.02,0.92 0.16,1.2 0.27,0.549999 0.8,0.86 1.48,0.86 0.71,0 1.19,-0.260001 1.77,-0.97 l 0,0.82 2.33,-0.11 0,-0.54 -0.28,0 c -0.47,0 -0.55,-0.07 -0.55,-0.43 l 0,-0.23 0,-3.42"
         inkscape:connector-curvature="0"
         style="fill:#fecb34;fill-opacity:1" />
      <path
         d="m 142.8618,111.51211 c 0.23206,0.52681 0.30637,0.7755 0.36655,1.11227 0.0963,0.53883 -0.0712,1.03742 -0.42661,1.31652 -0.70224,0.55138 -1.75313,0.0286 -2.88238,-1.45042 -1.08371,-1.41941 -1.35619,-2.53057 -0.74224,-3.0121 0.2374,-0.18619 0.54484,-0.20041 0.69408,-0.0123 0.028,0.0353 0.0584,0.10701 0.0869,0.29501 0.0559,0.35774 0.10589,0.49011 0.28234,0.71413 0.39933,0.507 0.96353,0.63661 1.36334,0.31594 0.45811,-0.36743 0.42358,-0.99991 -0.0612,-1.59241 -0.77939,-0.95267 -1.91276,-1.0664 -2.89571,-0.29639 -1.34852,1.05638 -1.39141,3.0899 -0.0503,4.916 1.29667,1.76563 3.14147,2.24645 4.55507,1.14457 0.64972,-0.50646 0.89001,-1.08447 0.81384,-1.94959 -0.0348,-0.5511 -0.18411,-1.01088 -0.50561,-1.6596 -0.19939,0.0535 -0.39873,0.10627 -0.59804,0.15834 z"
         id="path5701"
         inkscape:original-d="m 146.53516,86.853094 c -0.14,0.369999 -0.23,0.53 -0.38,0.73 -0.24,0.319999 -0.64,0.51 -1.05,0.51 -0.81,0 -1.28,-0.700002 -1.28,-1.94 0,-1.189999 0.44,-1.89 1.19,-1.89 0.29,0 0.53,0.12 0.53,0.28 0,0.03 -0.02,0.08 -0.11,0.19 -0.17,0.209999 -0.21,0.3 -0.21,0.49 0,0.429999 0.34,0.73 0.82,0.73 0.55,0 0.9,-0.340001 0.9,-0.85 0,-0.819999 -0.78,-1.36 -1.99,-1.36 -1.66,0 -2.86,1.080001 -2.86,2.59 0,1.459998 1.08,2.44 2.69,2.44 0.74,0 1.23,-0.200001 1.67,-0.68 0.29,-0.3 0.45,-0.600001 0.6,-1.07 l -0.52,-0.17"
         inkscape:connector-curvature="0"
         style="fill:#fecb34;fill-opacity:1" />
      <path
         d="m 147.4222,106.5414 -0.16344,-0.17603 c -1.52198,-1.63927 -3.1912,-2.02606 -4.32158,-1.02949 -0.61939,0.54607 -0.88852,1.28963 -0.79359,2.21157 0.0961,0.84236 0.50786,1.78749 1.14118,2.54936 0.68129,0.81959 1.63156,1.43638 2.46981,1.57276 0.76576,0.11906 1.54949,-0.1168 2.18435,-0.67649 0.97737,-0.86163 1.08347,-2.02463 0.3413,-3.52753 -0.19832,0.0476 -0.39657,0.0944 -0.59474,0.14057 0.47267,1.15587 0.43588,1.85996 -0.0997,2.33619 -0.37904,0.33702 -0.92964,0.37922 -1.50992,0.1275 -0.40601,-0.18433 -0.76743,-0.4873 -1.33472,-1.12799 0.90803,-0.78387 1.80195,-1.58418 2.68108,-2.40042 z m -3.21256,1.76846 c -0.93206,-1.07942 -1.20104,-1.99599 -0.73283,-2.40902 0.39797,-0.35109 1.03526,-0.0772 1.82737,0.80553 0.24063,0.26816 0.26548,0.40751 0.10648,0.54936 -0.3975,0.35461 -0.79786,0.70601 -1.20102,1.05413 z"
         id="path5703"
         inkscape:original-d="m 152.75156,86.343094 0,-0.16 c 0,-1.489999 -0.93,-2.44 -2.39,-2.44 -0.8,0 -1.47,0.26 -1.97,0.77 -0.45,0.469999 -0.72,1.13 -0.72,1.79 0,0.709999 0.31,1.43 0.81,1.86 0.46,0.389999 1.13,0.61 1.89,0.61 1.17,0 1.94,-0.520001 2.38,-1.59 l -0.49,-0.2 c -0.4,0.779999 -0.85,1.11 -1.5,1.11 -0.46,0 -0.86,-0.220001 -1.11,-0.6 -0.17,-0.27 -0.24,-0.580001 -0.25,-1.15 l 3.35,0 m -3.34,-0.55 c 0,-0.949999 0.38,-1.53 0.98,-1.53 0.51,0 0.79,0.42 0.79,1.21 0,0.239999 -0.07,0.32 -0.27,0.32 l -1.5,0"
         inkscape:connector-curvature="0"
         style="fill:#fecb34;fill-opacity:1" />
      <path
         d="m 146.97699,101.87815 c -0.52309,0.5646 -1.05335,1.12324 -1.59059,1.67574 l 0.52411,0.55814 c 0.038,-0.0357 0.0761,-0.0715 0.11407,-0.10728 0.46351,-0.43665 0.5262,-0.41637 1.49057,0.59319 l 1.80432,1.88887 0.477,0.49936 c 0.42515,0.44507 0.40127,0.59576 -0.11313,1.07924 -0.0107,0.0101 -0.0214,0.0201 -0.0322,0.0302 l 0.52411,0.55814 c 0.90191,-0.84699 1.78852,-1.71036 2.65916,-2.5896 l -0.54391,-0.53876 c -0.0569,0.0575 -0.11391,0.11489 -0.17096,0.17224 -0.49796,0.50044 -0.64925,0.52001 -1.08195,0.0823 l -0.48546,-0.49109 -0.21107,-0.21352 c -0.73875,-0.74732 -1.44287,-1.71859 -1.72293,-2.37216 -0.23568,-0.54942 -0.27243,-0.89489 -0.13041,-1.25267 0.0972,0.28621 0.18485,0.4323 0.3769,0.62237 0.45879,0.45404 1.02902,0.54009 1.34767,0.21282 0.36313,-0.37293 0.23271,-1.04117 -0.29903,-1.5493 -0.62942,-0.60146 -1.42318,-0.70355 -1.88513,-0.23171 -0.55579,0.56769 -0.47531,1.4172 0.22384,2.66722 z"
         id="path5705"
         inkscape:original-d="m 155.50375,83.893094 -2.23,0.07 0,0.51 0.15,0 c 0.61,0 0.64,0.04 0.64,0.97 l 0,1.74 0,0.46 c 0,0.409999 -0.11,0.47 -0.75,0.47 l -0.04,0 0,0.51 3.34,0 0,-0.51 -0.22,0 c -0.64,0 -0.75,-0.06 -0.75,-0.47 l 0,-0.46 0,-0.2 c 0,-0.7 0.17,-1.490001 0.42,-1.93 0.21,-0.37 0.42,-0.55 0.76,-0.65 -0.13,0.18 -0.17,0.29 -0.17,0.47 0,0.429999 0.32,0.74 0.75,0.74 0.49,0 0.86,-0.370001 0.86,-0.86 0,-0.58 -0.46,-1.01 -1.1,-1.01 -0.77,0 -1.3,0.440001 -1.66,1.36 l 0,-1.21"
         inkscape:connector-curvature="0"
         style="fill:#fecb34;fill-opacity:1" />
      <path
         d="m 153.90347,94.15198 c -0.0934,0.114756 -0.187,0.229295 -0.28091,0.343615 0.004,0.168181 0.008,0.336551 0.0112,0.505106 -0.50535,0.09267 -0.87102,0.295789 -1.19186,0.67248 -0.74862,0.878945 -0.54337,2.178861 0.51114,3.115817 0.42629,0.378769 0.92498,0.608739 1.40945,0.648854 0.53955,0.04567 0.90518,-0.05105 1.52275,-0.449354 0.23224,-0.148207 0.4641,-0.297591 0.69554,-0.448154 0.47605,-0.308979 0.81084,-0.315147 1.15727,-0.02781 0.41572,0.344802 0.44932,0.846614 0.0711,1.294087 -0.5494,0.6501 -1.45482,0.70699 -2.86815,0.154965 -0.10731,0.121895 -0.21492,0.243525 -0.32283,0.364895 0.65865,0.5616 1.31762,1.12284 1.97689,1.68372 0.10328,-0.11633 0.2063,-0.2329 0.30904,-0.3497 0.0278,-0.16795 0.0551,-0.33581 0.082,-0.50359 0.51825,-0.092 1.04494,-0.40406 1.41883,-0.84652 0.84844,-1.004069 0.60941,-2.386316 -0.55734,-3.329228 -0.49004,-0.396024 -1.00003,-0.599745 -1.47982,-0.604992 -0.44303,-0.0028 -0.68801,0.08652 -1.38561,0.498297 -0.28874,0.173178 -0.57801,0.34451 -0.86779,0.513997 -0.48495,0.266861 -0.6885,0.270534 -0.98326,0.01494 -0.38545,-0.334238 -0.41859,-0.844589 -0.0884,-1.232392 0.43126,-0.506518 1.13188,-0.55109 2.41179,-0.171273 0.10523,-0.128151 0.21013,-0.256573 0.31468,-0.385263 -0.62213,-0.487224 -1.24405,-0.974723 -1.86575,-1.462497 z"
         id="path5707"
         inkscape:original-d="m 165.55016,83.843094 -0.43,0 -0.37,0.22 c -0.38,-0.22 -0.76,-0.32 -1.24,-0.32 -1.12,0 -1.93,0.680001 -1.93,1.62 0,0.379999 0.15,0.73 0.42,0.99 0.3,0.289999 0.59,0.43 1.24,0.57 l 0.73,0.16 c 0.5,0.11 0.7,0.28 0.7,0.58 0,0.359999 -0.33,0.59 -0.86,0.59 -0.77,0 -1.34,-0.430001 -1.82,-1.38 l -0.45,0 0.05,1.73 0.42,0 0.39,-0.18 c 0.37,0.219999 0.89,0.35 1.41,0.35 1.18,0 2.01,-0.700001 2.01,-1.7 0,-0.42 -0.15,-0.770001 -0.43,-1.02 -0.26,-0.23 -0.47,-0.32 -1.19,-0.5 l -0.9,-0.22 c -0.49,-0.13 -0.62,-0.230001 -0.62,-0.49 0,-0.34 0.35,-0.58 0.84,-0.58 0.64,0 1.11,0.340001 1.6,1.16 l 0.47,0 -0.04,-1.58"
         inkscape:connector-curvature="0"
         style="fill:#fecb34;fill-opacity:1" />
      <path
         d="m 156.02597,91.56651 c -0.45945,0.666359 -0.92805,1.327195 -1.40558,1.982299 l 0.59831,0.476754 c 0.0303,-0.03804 0.0606,-0.0761 0.0909,-0.11419 0.3956,-0.497843 0.47222,-0.477546 1.52343,0.345291 l 2.09059,1.636429 0.54332,0.425287 c 0.47245,0.369813 0.48221,0.531567 0.0495,1.075374 -0.009,0.01151 -0.0183,0.02302 -0.0275,0.03452 l 0.59831,0.476753 c 0.72244,-0.907251 1.42915,-1.827096 2.11956,-2.759107 l -0.61442,-0.455443 c -0.0131,0.01773 -0.0263,0.03545 -0.0394,0.05317 -0.40093,0.540418 -0.55959,0.572702 -1.0264,0.220307 L 159.964,94.539274 z m -3.64554,-1.749109 c -0.2955,0.383662 -0.0683,1.064785 0.49796,1.509387 0.56631,0.444602 1.30192,0.504338 1.59385,0.125296 0.31056,-0.403236 0.0882,-1.080572 -0.51064,-1.531888 -0.57488,-0.433263 -1.2917,-0.478627 -1.58117,-0.102795 z"
         id="path5709"
         inkscape:original-d="m 168.79016,83.893094 -2.35,0.07 0,0.51 0.14,0 c 0.61,0 0.64,0.05 0.64,0.94 l 0,1.77 0,0.46 c 0,0.399999 -0.11,0.47 -0.74,0.47 l -0.04,0 0,0.51 3.13,0 0,-0.51 -0.06,0 c -0.61,0 -0.72,-0.07 -0.72,-0.46 l 0,-0.47 0,-3.29 m -0.81,-2.64 c -0.49,0 -0.89,0.4 -0.89,0.88 0,0.479999 0.4,0.89 0.87,0.89 0.5,0 0.9,-0.390001 0.9,-0.89 0,-0.48 -0.4,-0.88 -0.88,-0.88"
         inkscape:connector-curvature="0"
         style="fill:#fecb34;fill-opacity:1" />
      <path
         d="m 158.17592,88.598749 c -0.42037,0.666784 -0.84974,1.32863 -1.28792,1.985343 l 0.61684,0.452098 c 0.0308,-0.04201 0.0616,-0.08405 0.0923,-0.126105 0.3749,-0.513138 0.44007,-0.504732 1.5721,0.309602 l 2.11798,1.523593 0.55993,0.402789 c 0.49907,0.359006 0.50325,0.511523 0.0863,1.081255 -0.009,0.01187 -0.0174,0.02374 -0.0261,0.0356 l 0.61684,0.452097 c 0.66786,-0.911827 1.32017,-1.835144 1.95643,-2.769555 l -0.63189,-0.430493 c -0.36637,0.538017 -0.51719,0.567749 -0.99783,0.234764 l -0.57923,-0.401291 -1.19544,-0.828195 c -0.55458,-0.384214 -0.85055,-0.641383 -1.07479,-0.949932 -0.34834,-0.445462 -0.42594,-0.94137 -0.21536,-1.252967 0.27493,-0.406806 0.84905,-0.351754 1.64846,0.178748 l 1.91109,1.268229 0.58706,0.389587 c 0.48714,0.323273 0.51534,0.474428 0.15127,1.014028 l 0.63372,0.42775 c 0.63225,-0.93717 1.24837,-1.885385 1.84785,-2.844249 l -0.64813,-0.40534 c -0.008,0.01248 -0.0156,0.02495 -0.0234,0.03742 -0.37469,0.598661 -0.5179,0.651261 -1.03599,0.320678 l -0.58127,-0.370898 -2.11027,-1.346521 c -0.78346,-0.499906 -1.32569,-0.708394 -1.84275,-0.708532 -0.54226,-0.01638 -1.00724,0.231994 -1.30336,0.677474 -0.44988,0.676787 -0.3796,1.34143 0.23947,2.395233 z"
         id="path5711"
         inkscape:original-d="m 172.34156,83.893094 -2.29,0.07 0,0.51 0.15,0 c 0.61,0 0.64,0.04 0.64,0.97 l 0,1.74 0,0.46 c 0,0.409999 -0.11,0.47 -0.75,0.47 l -0.04,0 0,0.51 3.05,0 0,-0.51 c -0.59,0 -0.69,-0.07 -0.69,-0.46 l 0,-0.47 0,-0.97 c 0,-0.45 0.04,-0.710001 0.16,-0.95 0.16,-0.36 0.51,-0.59 0.87,-0.59 0.47,0 0.73,0.34 0.73,0.98 l 0,1.53 0,0.47 c 0,0.389999 -0.1,0.46 -0.69,0.46 l 0,0.51 3.05,0 0,-0.51 -0.04,0 c -0.64,0 -0.75,-0.06 -0.75,-0.47 l 0,-0.46 0,-1.67 c 0,-0.62 -0.11,-1.000001 -0.38,-1.29 -0.27,-0.31 -0.72,-0.48 -1.24,-0.48 -0.79,0 -1.29,0.29 -1.78,1.03 l 0,-0.88"
         inkscape:connector-curvature="0"
         style="fill:#fecb34;fill-opacity:1" />
      <path
         d="m 167.01155,82.748449 c 0.41339,0.399539 0.57587,0.601583 0.75842,0.890555 0.29209,0.462356 0.32467,0.987684 0.10044,1.380713 -0.443,0.776471 -1.61255,0.688274 -3.21301,-0.256584 -1.53593,-0.90676 -2.20553,-1.831926 -1.81955,-2.506918 0.14924,-0.260997 0.42795,-0.389503 0.63686,-0.271742 0.0392,0.02208 0.0943,0.07693 0.19158,0.239936 0.18658,0.309548 0.28266,0.413152 0.53022,0.553918 0.56026,0.318575 1.13097,0.226043 1.37969,-0.221278 0.28498,-0.512554 0.0139,-1.084127 -0.65811,-1.448539 -1.08049,-0.585919 -2.16945,-0.264719 -2.78745,0.81431 -0.84783,1.480321 -0.12603,3.376846 1.7996,4.566211 1.86186,1.149981 3.75224,0.901986 4.64799,-0.654566 0.41171,-0.715433 0.41684,-1.34254 0.0204,-2.114751 -0.2398,-0.497143 -0.55145,-0.866043 -1.09377,-1.344261 -0.16419,0.125065 -0.32862,0.249397 -0.49331,0.372996 z"
         id="path5713"
         inkscape:original-d="m 181.45703,86.853094 c -0.14,0.369999 -0.23,0.53 -0.38,0.73 -0.24,0.319999 -0.64,0.51 -1.05,0.51 -0.81,0 -1.28,-0.700002 -1.28,-1.94 0,-1.189999 0.44,-1.89 1.19,-1.89 0.29,0 0.53,0.12 0.53,0.28 0,0.03 -0.02,0.08 -0.11,0.19 -0.17,0.209999 -0.21,0.3 -0.21,0.49 0,0.429999 0.34,0.73 0.82,0.73 0.55,0 0.9,-0.340001 0.9,-0.85 0,-0.819999 -0.78,-1.36 -1.99,-1.36 -1.66,0 -2.86,1.080001 -2.86,2.59 0,1.459998 1.08,2.44 2.69,2.44 0.74,0 1.23,-0.200001 1.67,-0.68 0.29,-0.3 0.45,-0.600001 0.6,-1.07 l -0.52,-0.17"
         inkscape:connector-curvature="0"
         style="fill:#fecb34;fill-opacity:1" />
      <path
         d="m 169.33315,76.417086 -0.21837,-0.09957 c -2.03357,-0.927259 -3.7189,-0.645611 -4.37931,0.700765 -0.36188,0.737741 -0.32658,1.524314 0.11143,2.338973 0.40883,0.740804 1.14717,1.458099 2.02087,1.922263 0.93989,0.499326 2.05182,0.709015 2.87875,0.515406 0.75332,-0.181988 1.38919,-0.700459 1.76369,-1.462366 0.57653,-1.172938 0.23073,-2.290804 -1.03062,-3.39272 -0.16486,0.120372 -0.32993,0.239983 -0.49522,0.358833 0.87899,0.885601 1.11353,1.551273 0.79974,2.197381 -0.22206,0.457246 -0.71515,0.707301 -1.34708,0.696312 -0.44526,-0.01527 -0.8943,-0.157494 -1.66185,-0.533315 0.54067,-1.069844 1.06022,-2.150673 1.55797,-3.241961 z m -2.28913,2.860587 c -1.27127,-0.642188 -1.86872,-1.385261 -1.595,-1.943644 0.23266,-0.474626 0.92494,-0.464848 1.99338,0.04688 0.32459,0.155462 0.40082,0.27455 0.30829,0.466154 -0.2313,0.479009 -0.46688,0.955895 -0.70667,1.43061 z"
         id="path5715"
         inkscape:original-d="m 187.67344,86.343094 0,-0.16 c 0,-1.489999 -0.93,-2.44 -2.39,-2.44 -0.8,0 -1.47,0.26 -1.97,0.77 -0.45,0.469999 -0.72,1.13 -0.72,1.79 0,0.709999 0.31,1.43 0.81,1.86 0.46,0.389999 1.13,0.61 1.89,0.61 1.17,0 1.94,-0.520001 2.38,-1.59 l -0.49,-0.2 c -0.4,0.779999 -0.85,1.11 -1.5,1.11 -0.46,0 -0.86,-0.220001 -1.11,-0.6 -0.17,-0.27 -0.24,-0.580001 -0.25,-1.15 l 3.35,0 m -3.34,-0.55 c 0,-0.949999 0.38,-1.53 0.98,-1.53 0.51,0 0.79,0.42 0.79,1.21 0,0.239999 -0.07,0.32 -0.27,0.32 l -1.5,0"
         inkscape:connector-curvature="0"
         style="fill:#fecb34;fill-opacity:1" />
    </g>
  </g>
</svg>
