<?xml version="1.0" encoding="UTF-8" standalone="no"?>
<!-- Created with Inkscape (http://www.inkscape.org/) -->

<svg
   xmlns:dc="http://purl.org/dc/elements/1.1/"
   xmlns:cc="http://creativecommons.org/ns#"
   xmlns:rdf="http://www.w3.org/1999/02/22-rdf-syntax-ns#"
   xmlns:svg="http://www.w3.org/2000/svg"
   xmlns="http://www.w3.org/2000/svg"
   xmlns:sodipodi="http://sodipodi.sourceforge.net/DTD/sodipodi-0.dtd"
   xmlns:inkscape="http://www.inkscape.org/namespaces/inkscape"
   width="210mm"
   height="297mm"
   viewBox="0 0 744.09448819 1052.3622047"
   id="svg2"
   version="1.1"
   inkscape:version="0.91 r13725"
   sodipodi:docname="lovelyLobster.svg">
  <defs
     id="defs4" />
  <sodipodi:namedview
     id="base"
     pagecolor="#ffffff"
     bordercolor="#666666"
     borderopacity="1.0"
     inkscape:pageopacity="0.0"
     inkscape:pageshadow="2"
     inkscape:zoom="0.98994949"
     inkscape:cx="-699.77604"
     inkscape:cy="520"
     inkscape:document-units="px"
     inkscape:current-layer="layer1"
     showgrid="false"
     inkscape:window-width="1366"
     inkscape:window-height="744"
     inkscape:window-x="0"
     inkscape:window-y="24"
     inkscape:window-maximized="1" />
  <metadata
     id="metadata7">
    <rdf:RDF>
      <cc:Work
         rdf:about="">
        <dc:format>image/svg+xml</dc:format>
        <dc:type
           rdf:resource="http://purl.org/dc/dcmitype/StillImage" />
        <dc:title></dc:title>
      </cc:Work>
    </rdf:RDF>
  </metadata>
  <g
     inkscape:label="Calque 1"
     inkscape:groupmode="layer"
     id="layer1">
    <rect
       style="opacity:1;fill:#ffffff;fill-opacity:1;stroke:none;stroke-width:5;stroke-linecap:square;stroke-linejoin:round;stroke-miterlimit:4;stroke-dasharray:none;stroke-dashoffset:0;stroke-opacity:1"
       id="rect4167"
       width="351.53308"
       height="345.47217"
       x="-588.91895"
       y="369.49908"
       inkscape:export-xdpi="130"
       inkscape:export-ydpi="130" />
    <path
       style="fill:#ff8080"
       d="m -476.38909,669.4253 c -7.14067,-2.34003 -9.95639,-6.11929 -9.91964,-13.31419 0.0605,-11.84979 14.7182,-28.29818 34.17019,-38.34474 l 8.80785,-4.54908 0,-5.01866 c 0,-2.76026 -0.44655,-5.85304 -0.99232,-6.87284 -1.14702,-2.14322 -5.34081,-3.66424 -12.66441,-4.59317 l -5.15672,-0.65408 -5.74771,7.77205 c -3.16124,4.27464 -8.62695,12.31454 -12.14602,17.86646 -7.44026,11.73824 -7.94629,12.34093 -9.25927,11.02795 -1.16808,-1.16808 7.12971,-22.32417 12.57492,-32.06113 2.03221,-3.63393 5.41785,-8.41831 7.52364,-10.63196 l 3.82872,-4.02482 8.71475,0.5437 c 8.64765,0.5395 8.69592,0.52943 6.26959,-1.3088 -1.34485,-1.01886 -4.84453,-2.77333 -7.77709,-3.89881 l -5.33192,-2.04632 -7.53147,6.15419 c -4.14231,3.3848 -11.47671,9.90858 -16.29866,14.49729 -8.60373,8.18757 -11.00603,9.70915 -11.00603,6.97104 0,-4.51768 24.03435,-32.99275 30.39516,-36.01116 4.56097,-2.16432 7.00275,-2.01548 14.10484,0.85978 l 6,2.42908 -4,-3.42248 c -2.2,-1.88237 -5.45014,-4.20681 -7.22253,-5.16543 -3.12803,-1.69183 -3.36263,-1.67567 -8,0.55099 -2.62761,1.26166 -11.12897,6.08234 -18.89191,10.71261 -7.76294,4.63027 -14.40044,8.41868 -14.75,8.41868 -5.28382,0 19.43926,-22.84241 31.8859,-29.46035 5.9568,-3.16726 8.82193,-3.1768 14.29548,-0.0476 4.15364,2.37464 4.30494,2.39126 4,0.43959 -0.24142,-1.54504 -3.5339,-3.45886 -13.81694,-8.03135 -7.89317,-3.50981 -14.50386,-7.12378 -15.91708,-8.70164 -1.32939,-1.48428 -2.56689,-2.58619 -2.75,-2.44869 -1.1834,0.88864 -2.89342,-0.79257 -9.46083,-9.30146 l -7.37209,-9.55141 -5,0.74021 c -16.78308,2.48458 -31.56795,-3.16273 -45.00703,-17.19115 -26.77224,-27.94626 -31.11965,-77.80866 -8.78718,-100.78414 6.13374,-6.31034 7.61848,-5.89702 8.44225,2.35017 0.85803,8.5902 3.87649,21.04235 8.32062,34.32536 8.20292,24.51765 17.73109,41.5938 29.88603,53.56104 l 6.49894,6.39857 0.70868,-3.77761 c 1.25147,-6.67092 -0.26805,-24.42874 -2.91103,-34.01954 -5.57707,-20.23802 -17.10734,-46.56818 -26.59855,-60.73965 -2.85096,-4.2568 -4.90257,-8.1943 -4.55913,-8.75 0.34344,-0.55569 3.72741,-1.01035 7.51993,-1.01035 36.87134,0 68.14273,52.09668 57.32453,95.5 -1.53549,6.16047 -6.3658,16.69454 -9.02323,19.67811 -1.69972,1.90831 -1.64491,2.02892 4.66462,10.26455 4.5356,5.92018 5.4476,6.49179 21.68726,13.59289 l 4.1667,1.82197 -4.29584,-6.17876 c -8.24927,-11.865 -10.84129,-18.2088 -11.30933,-27.67876 -0.34414,-6.96325 -0.0318,-9.52987 1.72762,-14.19636 6.59988,-17.50487 27.84049,-32.80364 45.54414,-32.80364 11.91463,0 25.4899,6.77096 35.65664,17.78452 7.70144,8.34291 11.04966,15.6368 11.62955,25.33418 0.61861,10.34507 -2.91951,20.29983 -11.45493,32.22926 -1.90778,2.66637 -3.28384,5.0328 -3.05792,5.25872 0.22592,0.22592 5.13406,-1.80039 10.90697,-4.5029 9.6431,-4.51429 10.92944,-5.45812 15.82661,-11.61247 5.31303,-6.67698 5.32479,-6.70744 3.60667,-9.34506 -3.87149,-5.94342 -7.66383,-14.98524 -9.22127,-21.98565 -2.19933,-9.88556 -1.45616,-28.52577 1.5613,-39.1606 8.89481,-31.3491 32.83235,-54 57.06738,-54 5.23656,0 6.979,0.34144 6.979,1.36758 0,0.75217 -2.09443,4.46467 -4.65429,8.25 -6.184,9.14445 -16.09513,29.90999 -21.70534,45.4765 -7.19964,19.97663 -9.98381,37.1419 -7.98574,49.23468 l 0.63262,3.82877 6.442,-6.32877 c 3.54311,-3.48082 8.43206,-9.09093 10.86435,-12.46693 11.29047,-15.67104 25.27084,-53.98511 27.95479,-76.61183 0.85058,-7.17075 2.23028,-7.38245 8.11134,-1.24464 8.33712,8.70111 13.10838,21.30609 14.00326,36.99464 1.62875,28.55436 -12.03626,58.31568 -33.49216,72.94329 -11.1627,7.6102 -21.36529,10.04287 -34.67083,8.26679 l -5,-0.66741 -7.31165,9.47866 c -4.61962,5.98877 -8.00051,9.47867 -9.18262,9.47867 -1.02902,0 -2.13606,0.83528 -2.46008,1.85618 -0.38489,1.21268 -5.78178,4.22422 -15.56739,8.68683 -11.02078,5.02588 -14.97826,7.29439 -14.97826,8.58584 0,1.56774 0.45389,1.49568 4.25,-0.67478 5.33401,-3.04977 7.62212,-3.0593 13.54797,-0.0565 10.48641,5.31387 34.6324,26.43854 32.61967,28.53806 -0.7956,0.82991 -3.92794,-0.61314 -11.82281,-5.44672 -5.90724,-3.61666 -14.50917,-8.44485 -19.11539,-10.7293 -9.53348,-4.72812 -10.01496,-4.66245 -17.88197,2.43916 l -4.09747,3.69881 6,-2.42508 c 3.3,-1.33379 7.1494,-2.43576 8.55422,-2.44881 3.21272,-0.0299 10.35162,4.53424 15.01495,9.59948 7.86888,8.54705 20.93083,26.17891 20.93083,28.25377 0,2.47846 -2.66276,0.71214 -12.35783,-8.19749 -5.5782,-5.12627 -12.94796,-11.62624 -16.37726,-14.44438 l -6.23508,-5.12389 -4.26492,1.45469 c -2.3457,0.80007 -6.06491,2.54833 -8.26491,3.88502 l -4,2.43034 9.26321,-0.58952 9.26322,-0.58951 3.81287,4.00816 c 2.09707,2.20448 5.86201,8.00898 8.36651,12.89887 4.91839,9.6029 11.79419,26.44179 11.79419,28.88409 0,3.51728 -2.84955,0.90459 -7.92136,-7.26291 -2.98174,-4.80173 -8.6036,-13.16138 -12.49301,-18.577 l -7.07166,-9.8466 -5.00699,0.63422 c -6.88096,0.87159 -11.7697,2.47958 -13.25698,4.36044 -0.6875,0.86943 -1.25,3.88697 -1.25,6.70565 l 0,5.12485 5.65559,2.34411 c 12.81744,5.31254 31.24674,21.03166 36.32252,30.98101 5.96804,11.69834 1.78918,21.90555 -9.67182,23.62423 -9.20113,1.37979 -30.72672,-4.7877 -40.97958,-11.74143 -5.4332,-3.68492 -10.09819,-9.39391 -11.51327,-14.08989 -1.135,-3.76653 -2.81344,-5.08507 -2.81344,-2.21016 0,3.11902 -4.03778,9.30879 -8.95833,13.73279 -10.00272,8.9933 -36.56094,16.96722 -46.10007,13.84122 z m 44.74155,-167.20251 c 2.37303,-1.14877 5.55261,-3.83916 7.06573,-5.97865 1.51312,-2.13949 3.25561,-3.8996 3.87222,-3.91134 0.6166,-0.0117 2.15102,1.48173 3.40982,3.31883 4.08465,5.96115 8.42018,8.15982 16.09027,8.15982 6.33414,0 6.99112,-0.21652 10.25463,-3.37964 9.53398,-9.24069 5.48867,-26.12553 -7.81912,-32.63642 -6.88372,-3.36789 -12.17256,-2.90277 -17.74806,1.56085 -2.03025,1.62536 -3.99584,2.95521 -4.36799,2.95521 -0.37214,0 -2.17954,-1.31958 -4.01644,-2.9324 -9.78154,-8.58831 -26.31209,-1.33948 -30.08124,13.19096 -1.32077,5.09172 -0.93378,9.50544 1.20483,13.74144 1.40587,2.78463 5.15494,6.45399 7.4522,7.29377 3.47145,1.26901 10.59061,0.59873 14.68315,-1.38243 z m -0.64328,-11.3633 c -2.64768,-3.19026 1.25886,-8.20486 4.37631,-5.61761 1.88116,1.56123 2.0537,4.19969 0.38382,5.86957 -1.60329,1.60329 -3.29471,1.51376 -4.76013,-0.25196 z m 19.16013,0.25196 c -2.803,-2.803 -0.0762,-7.53027 3.65963,-6.34455 2.52028,0.7999 3.40875,3.17455 2.1016,5.61699 -1.16355,2.17411 -3.96136,2.52743 -5.76123,0.72756 z"
       id="path4147"
       inkscape:connector-curvature="0"
       inkscape:export-xdpi="130"
       inkscape:export-ydpi="130" />
    <g
       id="layer1-9"
       transform="matrix(0.03971902,0,0,0.03971902,-419.09442,474.44901)"
       style="fill:#ff8080;fill-opacity:1"
       inkscape:export-xdpi="130"
       inkscape:export-ydpi="130">
      <path
         style="fill:#ff8080;fill-opacity:1"
         id="path2417"
         d="M 297.29747,550.86823 C 283.52243,535.43191 249.1268,505.33855 220.86277,483.99412 137.11867,420.75228 125.72108,411.5999 91.719238,380.29088 29.03471,322.57071 2.413622,264.58086 2.5048478,185.95124 2.5493594,147.56739 5.1656152,132.77929 15.914734,110.15398 34.151433,71.768267 61.014996,43.244667 95.360052,25.799457 119.68545,13.443675 131.6827,7.9542046 172.30448,7.7296236 c 42.49329,-0.234834 51.43863,4.7197234 76.43471,18.4518354 30.42451,16.714318 61.7399,52.435708 68.21323,77.810591 l 3.9981,15.6724 9.85963,-21.584508 c 55.71617,-121.972928 233.59836,-120.148052 295.50229,3.031588 19.63767,39.07605 21.79364,122.51317 4.38012,169.51287 -22.71527,61.30937 -65.38001,108.05053 -164.00634,179.67658 -64.68082,46.97364 -137.88474,118.04586 -142.98067,128.02803 -5.91548,11.58753 -0.28216,1.8159 -26.40808,-27.46078 z"
         inkscape:connector-curvature="0" />
      <g
         id="g2221"
         transform="translate(129.28571,-64.285714)"
         style="fill:#ff8080;fill-opacity:1" />
    </g>
    <g
       transform="matrix(0.03971902,0,0,0.03971902,-449.09442,474.44901)"
       id="g4161"
       style="fill:#ff8080;fill-opacity:1"
       inkscape:export-xdpi="130"
       inkscape:export-ydpi="130">
      <path
         inkscape:connector-curvature="0"
         d="M 297.29747,550.86823 C 283.52243,535.43191 249.1268,505.33855 220.86277,483.99412 137.11867,420.75228 125.72108,411.5999 91.719238,380.29088 29.03471,322.57071 2.413622,264.58086 2.5048478,185.95124 2.5493594,147.56739 5.1656152,132.77929 15.914734,110.15398 34.151433,71.768267 61.014996,43.244667 95.360052,25.799457 119.68545,13.443675 131.6827,7.9542046 172.30448,7.7296236 c 42.49329,-0.234834 51.43863,4.7197234 76.43471,18.4518354 30.42451,16.714318 61.7399,52.435708 68.21323,77.810591 l 3.9981,15.6724 9.85963,-21.584508 c 55.71617,-121.972928 233.59836,-120.148052 295.50229,3.031588 19.63767,39.07605 21.79364,122.51317 4.38012,169.51287 -22.71527,61.30937 -65.38001,108.05053 -164.00634,179.67658 -64.68082,46.97364 -137.88474,118.04586 -142.98067,128.02803 -5.91548,11.58753 -0.28216,1.8159 -26.40808,-27.46078 z"
         id="path4163"
         style="fill:#ff8080;fill-opacity:1" />
      <g
         transform="translate(129.28571,-64.285714)"
         id="g4165"
         style="fill:#ff8080;fill-opacity:1" />
    </g>
    <rect
       inkscape:export-ydpi="130"
       inkscape:export-xdpi="130"
       y="342.22498"
       x="-1008.1323"
       height="381.83765"
       width="351.53308"
       id="rect4169"
       style="opacity:1;fill:#ffffff;fill-opacity:1;stroke:none;stroke-width:5;stroke-linecap:square;stroke-linejoin:round;stroke-miterlimit:4;stroke-dasharray:none;stroke-dashoffset:0;stroke-opacity:1" />
    <path
       inkscape:export-ydpi="130"
       inkscape:export-xdpi="130"
       inkscape:connector-curvature="0"
       id="path4171"
       d="m -895.60239,678.51667 c -7.14067,-2.34003 -9.95639,-6.11929 -9.91964,-13.31419 0.0605,-11.84979 14.7182,-28.29818 34.17019,-38.34474 l 8.80785,-4.54908 0,-5.01866 c 0,-2.76026 -0.44655,-5.85304 -0.99232,-6.87284 -1.14702,-2.14322 -5.34081,-3.66424 -12.66441,-4.59317 l -5.15672,-0.65408 -5.74771,7.77205 c -3.16124,4.27464 -8.62695,12.31454 -12.14602,17.86646 -7.44026,11.73824 -7.94629,12.34093 -9.25927,11.02795 -1.16808,-1.16808 7.12971,-22.32417 12.57492,-32.06113 2.03221,-3.63393 5.41785,-8.41831 7.52364,-10.63196 l 3.82872,-4.02482 8.71475,0.5437 c 8.64765,0.5395 8.69592,0.52943 6.26959,-1.3088 -1.34485,-1.01886 -4.84453,-2.77333 -7.77709,-3.89881 l -5.33192,-2.04632 -7.53147,6.15419 c -4.14231,3.3848 -11.47671,9.90858 -16.29866,14.49729 -8.60373,8.18757 -11.00603,9.70915 -11.00603,6.97104 0,-4.51768 24.03435,-32.99275 30.39516,-36.01116 4.56097,-2.16432 7.00275,-2.01548 14.10484,0.85978 l 6,2.42908 -4,-3.42248 c -2.2,-1.88237 -5.45014,-4.20681 -7.22253,-5.16543 -3.12803,-1.69183 -3.36263,-1.67567 -8,0.55099 -2.62761,1.26166 -11.12897,6.08234 -18.89191,10.71261 -7.76294,4.63027 -14.40044,8.41868 -14.75,8.41868 -5.28382,0 19.43926,-22.84241 31.8859,-29.46035 5.9568,-3.16726 8.82193,-3.1768 14.29548,-0.0476 4.15364,2.37464 4.30494,2.39126 4,0.43959 -0.24142,-1.54504 -3.5339,-3.45886 -13.81694,-8.03135 -7.89317,-3.50981 -14.50386,-7.12378 -15.91708,-8.70164 -1.32939,-1.48428 -2.56689,-2.58619 -2.75,-2.44869 -1.1834,0.88864 -2.89342,-0.79257 -9.46083,-9.30146 l -7.37209,-9.55141 -5,0.74021 c -16.78308,2.48458 -31.56795,-3.16273 -45.00703,-17.19115 -26.77224,-27.94626 -31.11968,-77.80866 -8.78718,-100.78414 6.13374,-6.31034 7.61848,-5.89702 8.44225,2.35017 0.85803,8.5902 3.87649,21.04235 8.32062,34.32536 8.20292,24.51765 17.73109,41.5938 29.88603,53.56104 l 6.49894,6.39857 0.70868,-3.77761 c 1.25147,-6.67092 -0.26805,-24.42874 -2.91103,-34.01954 -5.57707,-20.23802 -17.10734,-46.56818 -26.59855,-60.73965 -2.85096,-4.2568 -4.90257,-8.1943 -4.55913,-8.75 0.34344,-0.55569 3.72741,-1.01035 7.51993,-1.01035 36.87134,0 68.14273,52.09668 57.32453,95.5 -1.53549,6.16047 -6.3658,16.69454 -9.02323,19.67811 -1.69972,1.90831 -1.64491,2.02892 4.66462,10.26455 4.5356,5.92018 5.4476,6.49179 21.68726,13.59289 l 4.1667,1.82197 -4.29584,-6.17876 c -8.24927,-11.865 -10.84129,-18.2088 -11.30933,-27.67876 -0.34414,-6.96325 -0.0318,-9.52987 1.72762,-14.19636 6.59988,-17.50487 27.84049,-32.80364 45.54414,-32.80364 11.91463,0 25.4899,6.77096 35.65664,17.78452 7.70144,8.34291 11.04966,15.6368 11.62955,25.33418 0.61861,10.34507 -2.91951,20.29983 -11.45493,32.22926 -1.90778,2.66637 -3.28384,5.0328 -3.05792,5.25872 0.22592,0.22592 5.13406,-1.80039 10.90697,-4.5029 9.6431,-4.51429 10.92944,-5.45812 15.82661,-11.61247 5.31303,-6.67698 5.32479,-6.70744 3.60667,-9.34506 -3.87149,-5.94342 -7.66383,-14.98524 -9.22127,-21.98565 -2.19933,-9.88556 -1.45616,-28.52577 1.5613,-39.1606 8.89481,-31.3491 32.83235,-54 57.06738,-54 5.23656,0 6.979,0.34144 6.979,1.36758 0,0.75217 -2.09443,4.46467 -4.65429,8.25 -6.184,9.14445 -16.09513,29.90999 -21.70534,45.4765 -7.19964,19.97663 -9.98381,37.1419 -7.98574,49.23468 l 0.63262,3.82877 6.442,-6.32877 c 3.54311,-3.48082 8.43206,-9.09093 10.86435,-12.46693 11.29047,-15.67104 25.27084,-53.98511 27.95479,-76.61183 0.85058,-7.17075 2.23027,-7.38245 8.11133,-1.24464 8.33712,8.70111 13.10838,21.30609 14.00326,36.99464 1.62875,28.55436 -12.03626,58.31568 -33.49215,72.94329 -11.1627,7.6102 -21.36529,10.04287 -34.67083,8.26679 l -5,-0.66741 -7.31165,9.47866 c -4.61962,5.98877 -8.00051,9.47867 -9.18262,9.47867 -1.02902,0 -2.13606,0.83528 -2.46008,1.85618 -0.38489,1.21268 -5.78178,4.22422 -15.56739,8.68683 -11.02078,5.02588 -14.97826,7.29439 -14.97826,8.58584 0,1.56774 0.45389,1.49568 4.25,-0.67478 5.33401,-3.04977 7.62212,-3.0593 13.54797,-0.0565 10.48641,5.31387 34.6324,26.43854 32.61967,28.53806 -0.7956,0.82991 -3.92794,-0.61314 -11.82281,-5.44672 -5.90724,-3.61666 -14.50917,-8.44485 -19.11539,-10.7293 -9.53348,-4.72812 -10.01496,-4.66245 -17.88197,2.43916 l -4.09747,3.69881 6,-2.42508 c 3.3,-1.33379 7.1494,-2.43576 8.55422,-2.44881 3.21272,-0.0299 10.35162,4.53424 15.01495,9.59948 7.86888,8.54705 20.93083,26.17891 20.93083,28.25377 0,2.47846 -2.66276,0.71214 -12.35783,-8.19749 -5.5782,-5.12627 -12.94796,-11.62624 -16.37726,-14.44438 l -6.23508,-5.12389 -4.26492,1.45469 c -2.3457,0.80007 -6.06491,2.54833 -8.26491,3.88502 l -4,2.43034 9.26321,-0.58952 9.26322,-0.58951 3.81287,4.00816 c 2.09707,2.20448 5.86201,8.00898 8.36651,12.89887 4.91839,9.6029 11.79419,26.44179 11.79419,28.88409 0,3.51728 -2.84955,0.90459 -7.92136,-7.26291 -2.98174,-4.80173 -8.6036,-13.16138 -12.49301,-18.577 l -7.07166,-9.8466 -5.00699,0.63422 c -6.88096,0.87159 -11.7697,2.47958 -13.25698,4.36044 -0.6875,0.86943 -1.25,3.88697 -1.25,6.70565 l 0,5.12485 5.65559,2.34411 c 12.81744,5.31254 31.24674,21.03166 36.32252,30.98101 5.96804,11.69834 1.78918,21.90555 -9.67182,23.62423 -9.20113,1.37979 -30.72672,-4.7877 -40.97958,-11.74143 -5.4332,-3.68492 -10.09819,-9.39391 -11.51327,-14.08989 -1.135,-3.76653 -2.81344,-5.08507 -2.81344,-2.21016 0,3.11902 -4.03778,9.30879 -8.95833,13.73279 -10.00272,8.9933 -36.56094,16.96722 -46.10007,13.84122 z m 44.74155,-167.20251 c 2.37303,-1.14877 5.55261,-3.83916 7.06573,-5.97865 1.51312,-2.13949 3.25561,-3.8996 3.87222,-3.91134 0.6166,-0.0117 2.15102,1.48173 3.40982,3.31883 4.08465,5.96115 8.42018,8.15982 16.09027,8.15982 6.33414,0 6.99112,-0.21652 10.25463,-3.37964 9.53398,-9.24069 5.48867,-26.12553 -7.81912,-32.63642 -6.88372,-3.36789 -12.17256,-2.90277 -17.74806,1.56085 -2.03025,1.62536 -3.99584,2.95521 -4.36799,2.95521 -0.37214,0 -2.17954,-1.31958 -4.01644,-2.9324 -9.78154,-8.58831 -26.31209,-1.33948 -30.08124,13.19096 -1.32077,5.09172 -0.93378,9.50544 1.20483,13.74144 1.40587,2.78463 5.15494,6.45399 7.4522,7.29377 3.47145,1.26901 10.59061,0.59873 14.68315,-1.38243 z m -0.64328,-11.3633 c -2.64768,-3.19026 1.25886,-8.20486 4.37631,-5.61761 1.88116,1.56123 2.0537,4.19969 0.38382,5.86957 -1.60329,1.60329 -3.29471,1.51376 -4.76013,-0.25196 z m 19.16013,0.25196 c -2.803,-2.803 -0.0762,-7.53027 3.65963,-6.34455 2.52028,0.7999 3.40875,3.17455 2.1016,5.61699 -1.16355,2.17411 -3.96136,2.52743 -5.76123,0.72756 z"
       style="fill:#ff8080" />
    <g
       inkscape:export-ydpi="130"
       inkscape:export-xdpi="130"
       style="fill:#ff5555;fill-opacity:1"
       transform="matrix(0.03971237,7.2672979e-4,-7.2672979e-4,0.03971237,-831.00114,391.06859)"
       id="g4173"
       inkscape:transform-center-y="-12.771982"
       inkscape:transform-center-x="-9.0121547">
      <path
         inkscape:connector-curvature="0"
         d="M 297.29747,550.86823 C 283.52243,535.43191 249.1268,505.33855 220.86277,483.99412 137.11867,420.75228 125.72108,411.5999 91.719238,380.29088 29.03471,322.57071 2.413622,264.58086 2.5048478,185.95124 2.5493594,147.56739 5.1656152,132.77929 15.914734,110.15398 34.151433,71.768267 61.014996,43.244667 95.360052,25.799457 119.68545,13.443675 131.6827,7.9542046 172.30448,7.7296236 c 42.49329,-0.234834 51.43863,4.7197234 76.43471,18.4518354 30.42451,16.714318 61.7399,52.435708 68.21323,77.810591 l 3.9981,15.6724 9.85963,-21.584508 c 55.71617,-121.972928 233.59836,-120.148052 295.50229,3.031588 19.63767,39.07605 21.79364,122.51317 4.38012,169.51287 -22.71527,61.30937 -65.38001,108.05053 -164.00634,179.67658 -64.68082,46.97364 -137.88474,118.04586 -142.98067,128.02803 -5.91548,11.58753 -0.28216,1.8159 -26.40808,-27.46078 z"
         id="path4175"
         style="fill:#ff5555;fill-opacity:1" />
      <g
         style="fill:#ff5555;fill-opacity:1"
         transform="translate(129.28571,-64.285714)"
         id="g4177" />
    </g>
    <g
       inkscape:export-ydpi="130"
       inkscape:export-xdpi="130"
       style="fill:#ff5555;fill-opacity:1"
       id="g4179"
       transform="matrix(0.0340143,-0.02050921,0.02050921,0.0340143,-886.66783,437.29145)">
      <path
         style="fill:#ff5555;fill-opacity:1"
         id="path4181"
         d="M 297.29747,550.86823 C 283.52243,535.43191 249.1268,505.33855 220.86277,483.99412 137.11867,420.75228 125.72108,411.5999 91.719238,380.29088 29.03471,322.57071 2.413622,264.58086 2.5048478,185.95124 2.5493594,147.56739 5.1656152,132.77929 15.914734,110.15398 34.151433,71.768267 61.014996,43.244667 95.360052,25.799457 119.68545,13.443675 131.6827,7.9542046 172.30448,7.7296236 c 42.49329,-0.234834 51.43863,4.7197234 76.43471,18.4518354 30.42451,16.714318 61.7399,52.435708 68.21323,77.810591 l 3.9981,15.6724 9.85963,-21.584508 c 55.71617,-121.972928 233.59836,-120.148052 295.50229,3.031588 19.63767,39.07605 21.79364,122.51317 4.38012,169.51287 -22.71527,61.30937 -65.38001,108.05053 -164.00634,179.67658 -64.68082,46.97364 -137.88474,118.04586 -142.98067,128.02803 -5.91548,11.58753 -0.28216,1.8159 -26.40808,-27.46078 z"
         inkscape:connector-curvature="0" />
      <g
         style="fill:#ff5555;fill-opacity:1"
         id="g4183"
         transform="translate(129.28571,-64.285714)" />
    </g>
    <g
       inkscape:transform-center-x="4.5897619"
       inkscape:transform-center-y="-18.235587"
       id="g4185"
       transform="matrix(0.02973295,-0.02633538,0.02633538,0.02973295,-896.23436,376.81811)"
       style="fill:#ff5555;fill-opacity:1"
       inkscape:export-xdpi="130"
       inkscape:export-ydpi="130">
      <path
         style="fill:#ff5555;fill-opacity:1"
         id="path4187"
         d="M 297.29747,550.86823 C 283.52243,535.43191 249.1268,505.33855 220.86277,483.99412 137.11867,420.75228 125.72108,411.5999 91.719238,380.29088 29.03471,322.57071 2.413622,264.58086 2.5048478,185.95124 2.5493594,147.56739 5.1656152,132.77929 15.914734,110.15398 34.151433,71.768267 61.014996,43.244667 95.360052,25.799457 119.68545,13.443675 131.6827,7.9542046 172.30448,7.7296236 c 42.49329,-0.234834 51.43863,4.7197234 76.43471,18.4518354 30.42451,16.714318 61.7399,52.435708 68.21323,77.810591 l 3.9981,15.6724 9.85963,-21.584508 c 55.71617,-121.972928 233.59836,-120.148052 295.50229,3.031588 19.63767,39.07605 21.79364,122.51317 4.38012,169.51287 -22.71527,61.30937 -65.38001,108.05053 -164.00634,179.67658 -64.68082,46.97364 -137.88474,118.04586 -142.98067,128.02803 -5.91548,11.58753 -0.28216,1.8159 -26.40808,-27.46078 z"
         inkscape:connector-curvature="0" />
      <g
         id="g4189"
         transform="translate(129.28571,-64.285714)"
         style="fill:#ff5555;fill-opacity:1" />
    </g>
    <g
       transform="matrix(0.03971767,3.2712514e-4,-3.2712514e-4,0.03971767,-838.8272,551.6195)"
       id="g4191"
       style="fill:#ff5555;fill-opacity:1"
       inkscape:export-xdpi="130"
       inkscape:export-ydpi="130">
      <path
         inkscape:connector-curvature="0"
         d="M 297.29747,550.86823 C 283.52243,535.43191 249.1268,505.33855 220.86277,483.99412 137.11867,420.75228 125.72108,411.5999 91.719238,380.29088 29.03471,322.57071 2.413622,264.58086 2.5048478,185.95124 2.5493594,147.56739 5.1656152,132.77929 15.914734,110.15398 34.151433,71.768267 61.014996,43.244667 95.360052,25.799457 119.68545,13.443675 131.6827,7.9542046 172.30448,7.7296236 c 42.49329,-0.234834 51.43863,4.7197234 76.43471,18.4518354 30.42451,16.714318 61.7399,52.435708 68.21323,77.810591 l 3.9981,15.6724 9.85963,-21.584508 c 55.71617,-121.972928 233.59836,-120.148052 295.50229,3.031588 19.63767,39.07605 21.79364,122.51317 4.38012,169.51287 -22.71527,61.30937 -65.38001,108.05053 -164.00634,179.67658 -64.68082,46.97364 -137.88474,118.04586 -142.98067,128.02803 -5.91548,11.58753 -0.28216,1.8159 -26.40808,-27.46078 z"
         id="path4193"
         style="fill:#ff5555;fill-opacity:1" />
      <g
         transform="translate(129.28571,-64.285714)"
         id="g4195"
         style="fill:#ff5555;fill-opacity:1" />
    </g>
  </g>
</svg>
