<?xml version="1.0" encoding="UTF-8" standalone="no"?>
<!-- Created with Inkscape (http://www.inkscape.org/) -->

<svg
   xmlns:dc="http://purl.org/dc/elements/1.1/"
   xmlns:cc="http://creativecommons.org/ns#"
   xmlns:rdf="http://www.w3.org/1999/02/22-rdf-syntax-ns#"
   xmlns:svg="http://www.w3.org/2000/svg"
   xmlns="http://www.w3.org/2000/svg"
   xmlns:xlink="http://www.w3.org/1999/xlink"
   xmlns:sodipodi="http://sodipodi.sourceforge.net/DTD/sodipodi-0.dtd"
   xmlns:inkscape="http://www.inkscape.org/namespaces/inkscape"
   width="297mm"
   height="210mm"
   viewBox="0 0 1052.3622 744.09448"
   id="svg8144"
   version="1.1"
   inkscape:version="0.91 r13725"
   sodipodi:docname="instances-p2p.svg"
   inkscape:export-filename="/tmp/instances-p2p.png"
   inkscape:export-xdpi="133"
   inkscape:export-ydpi="133">
  <defs
     id="defs8146">
    <clipPath
       id="clipPath2630-4">
      <path
         d="m 113.39,491.46 68.03,0 0,68.03 -68.03,0 0,-68.03 z"
         id="path2632-4"
         inkscape:connector-curvature="0" />
    </clipPath>
    <radialGradient
       inkscape:collect="always"
       xlink:href="#radialGradient3162-4"
       id="radialGradient8018"
       gradientUnits="userSpaceOnUse"
       gradientTransform="matrix(42.9428,0,0,-42.9428,155.14,533.419)"
       cx="0"
       cy="0"
       r="1" />
    <radialGradient
       cx="0"
       cy="0"
       r="1"
       id="radialGradient3162-4"
       gradientUnits="userSpaceOnUse"
       gradientTransform="matrix(42.9428,0,0,-42.9428,155.14,533.419)">
      <stop
         id="stop2646-7"
         style="stop-color:#486492;stop-opacity:1"
         offset="0" />
      <stop
         id="stop2648-4"
         style="stop-color:#132746;stop-opacity:1"
         offset="1" />
    </radialGradient>
  </defs>
  <sodipodi:namedview
     id="base"
     pagecolor="#ffffff"
     bordercolor="#666666"
     borderopacity="1.0"
     inkscape:pageopacity="0.0"
     inkscape:pageshadow="2"
     inkscape:zoom="0.51536524"
     inkscape:cx="526.1811"
     inkscape:cy="372.04724"
     inkscape:document-units="px"
     inkscape:current-layer="layer1"
     showgrid="false"
     inkscape:window-width="1366"
     inkscape:window-height="744"
     inkscape:window-x="0"
     inkscape:window-y="24"
     inkscape:window-maximized="1" />
  <metadata
     id="metadata8149">
    <rdf:RDF>
      <cc:Work
         rdf:about="">
        <dc:format>image/svg+xml</dc:format>
        <dc:type
           rdf:resource="http://purl.org/dc/dcmitype/StillImage" />
        <dc:title></dc:title>
      </cc:Work>
    </rdf:RDF>
  </metadata>
  <g
     inkscape:label="Calque 1"
     inkscape:groupmode="layer"
     id="layer1"
     transform="translate(0,-308.26772)">
    <rect
       style="fill:#ffffff;fill-rule:evenodd;stroke:#000000;stroke-width:1px;stroke-linecap:butt;stroke-linejoin:miter;stroke-opacity:1"
       id="rect4365"
       width="1053.6217"
       height="748.9834"
       x="0"
       y="309.19995"
       inkscape:export-filename="/tmp/instances-p2p.png"
       inkscape:export-xdpi="170.67731"
       inkscape:export-ydpi="170.67731" />
    <path
       style="fill:none;fill-rule:evenodd;stroke:#000000;stroke-width:1px;stroke-linecap:butt;stroke-linejoin:miter;stroke-opacity:1"
       d="m 591.00925,861.92573 311.30854,11.60723"
       id="path4321"
       inkscape:connector-type="polyline"
       inkscape:connector-curvature="0"
       inkscape:connection-start="#g4306" />
    <g
       id="g4306"
       transform="translate(-104.78006,63.1652)">
      <rect
         style="fill:#e6e6e6;fill-rule:evenodd;stroke:#666666;stroke-width:1.596053;stroke-linecap:butt;stroke-linejoin:miter;stroke-miterlimit:4;stroke-dasharray:none;stroke-opacity:1"
         id="rect9621"
         width="209.55249"
         height="197.50397"
         x="486.23682"
         y="698.10193" />
      <g
         transform="matrix(0.79802653,0,0,0.79802653,433.54949,109.03323)"
         id="g9623">
        <ellipse
           ry="73.532715"
           rx="88.239258"
           cy="862.50354"
           cx="197.31621"
           id="ellipse9625"
           style="opacity:0.8;fill:#2c5aa0;fill-opacity:1;stroke:none;stroke-width:1;stroke-linecap:square;stroke-linejoin:miter;stroke-miterlimit:4;stroke-dasharray:none;stroke-dashoffset:0;stroke-opacity:1" />
        <flowRoot
           transform="translate(-206.93509,86.665119)"
           style="font-style:normal;font-weight:normal;font-size:28.92174339px;line-height:125%;font-family:'Bitstream Vera Sans';text-align:center;letter-spacing:0px;word-spacing:0px;text-anchor:middle;fill:#ffffff;fill-opacity:1;stroke:none;stroke-width:1px;stroke-linecap:butt;stroke-linejoin:miter;stroke-opacity:1"
           id="flowRoot9627"
           xml:space="preserve"><flowRegion
             id="flowRegion9629"><rect
               style="text-align:center;text-anchor:middle;fill:#ffffff"
               y="762.41071"
               x="273.81064"
               height="157.29607"
               width="264.71777"
               id="rect9631" /></flowRegion><flowPara
             style="line-height:38.99999857%;fill:#ffffff"
             id="flowPara9633">Production</flowPara><flowPara
             id="flowPara9635"> Instance</flowPara></flowRoot>        <path
           style="opacity:0.98000004;fill:#d40000;fill-opacity:1;stroke:#000000;stroke-width:0;stroke-linejoin:miter;stroke-miterlimit:4;stroke-dasharray:none;stroke-dashoffset:0;stroke-opacity:1"
           d="m 255.50897,787.76869 c -6.65464,0.14724 -11.96011,4.90857 -11.96011,10.79481 l 0,4.58964 -3.21857,0 0,15.60812 0.005,0 c -0.005,0.11274 -0.005,0.22578 -0.005,0.33967 0,4.53294 3.77767,8.18102 8.4729,8.18102 l 14.03829,0 c 4.69527,0 8.47764,-3.64808 8.47764,-8.18102 0,-0.11386 -0.005,-0.22697 -0.009,-0.33967 l 0.009,0 0,-15.60812 -3.21388,0 0,-4.58964 c 0,-5.97968 -5.47316,-10.79481 -12.27583,-10.79481 -0.1063,0 -0.21481,-0.002 -0.32044,0 z m -0.0566,3.14814 c 0.0808,-10e-4 0.16384,0 0.24505,0 3.88901,-0.0799 7.71158,2.44918 8.5059,5.80748 0.13521,2.14281 0.21137,4.28395 0.25449,6.42883 l -17.23803,0 c -0.005,-1.0256 -0.01,-2.04873 -0.033,-3.07357 -0.98438,-4.38553 3.178,-9.05759 8.26558,-9.16274 z m 0.35814,17.94438 c 0.18349,0 0.36903,0.0126 0.55607,0.0373 1.9951,0.26309 3.37174,1.89565 3.07249,3.64936 -0.13779,0.80752 -0.61171,1.50238 -1.27234,1.9883 l 1.27705,7.03774 -3.59556,0 -0.0518,0 -3.59085,0 1.27234,-7.03774 c -0.94119,-0.6948 -1.46331,-1.79431 -1.26763,-2.94101 0.27123,-1.58931 1.82652,-2.72968 3.60029,-2.73391 z"
           id="path9637"
           inkscape:connector-curvature="0" />
      </g>
    </g>
    <g
       transform="matrix(0.83441431,0,0,0.83441431,-256.97743,470.83454)"
       id="g7846">
      <polygon
         points="32.744,17.207 32.744,100.925 95.076,152.06 203.709,113.599 203.709,12.914 95.076,0.492 "
         id="polygon7848"
         style="fill:#2c5aa0;fill-opacity:1"
         inkscape:export-filename="/home/mathieu/Documents/ISC/sodata/comunications/citeDesSciences_05-2014/img/isc.png"
         inkscape:export-xdpi="130.82674"
         inkscape:export-ydpi="130.82674"
         transform="matrix(0.75180022,0,0,0.75180022,924.15955,527.38952)" />
      <g
         id="g7850"
         inkscape:export-filename="/home/mathieu/Documents/ISC/sodata/comunications/citeDesSciences_05-2014/img/isc.png"
         inkscape:export-xdpi="130.82674"
         inkscape:export-ydpi="130.82674"
         transform="matrix(0.75180022,0,0,0.75180022,924.15955,527.38952)"
         style="fill:#ffffff">
        <g
           id="g7852"
           style="fill:#ffffff">
          <path
             style="fill:#ffffff"
             inkscape:connector-curvature="0"
             d="m 100.075,40.817 c 0,0.882 0.072,0.99 1.098,1.026 l 0,0.576 -6.248,0 0,-0.576 c 1.008,-0.036 1.098,-0.145 1.098,-1.026 l 0,-8.498 c 0,-0.883 -0.09,-1.009 -1.098,-1.045 l 0,-0.558 6.248,0 0,0.558 c -1.026,0.036 -1.098,0.162 -1.098,1.045 l 0,8.498 z"
             id="path7854" />
          <path
             style="fill:#ffffff"
             inkscape:connector-curvature="0"
             d="m 106.229,33.092 0.234,1.225 c 1.045,-0.702 1.604,-1.261 2.863,-1.261 1.908,0 2.809,1.117 2.809,2.863 l 0,4.916 c 0,0.918 0.107,0.954 1.008,1.008 l 0,0.576 -5.455,0 0,-0.576 c 0.576,-0.072 0.648,-0.18 0.648,-0.685 l 0,-5.005 c 0,-1.207 -0.342,-1.603 -0.846,-1.603 -0.576,0 -0.938,0.432 -0.938,1.71 l 0,4.664 c 0,0.504 0.09,0.846 0.648,0.918 l 0,0.576 -5.455,0 0,-0.576 c 0.917,-0.054 1.008,0.054 1.008,-0.864 l 0,-6.014 c 0,-0.486 -0.091,-0.685 -0.378,-0.738 l -0.522,-0.09 0,-0.576 4.376,-0.468 z"
             id="path7856" />
          <path
             style="fill:#ffffff"
             inkscape:connector-curvature="0"
             d="m 113.896,38.909 0.613,0 c 0.576,1.44 1.801,3.079 3.043,3.079 0.611,0 1.062,-0.271 1.062,-1.045 0,-0.702 -0.648,-1.152 -1.891,-1.692 -1.459,-0.612 -2.701,-1.242 -2.701,-3.187 0,-1.927 1.439,-3.008 3.961,-3.008 0.955,0 2.107,0.198 2.971,0.631 l 0,2.719 -0.594,0 c -0.559,-1.513 -1.477,-2.665 -2.395,-2.665 -0.594,0 -1.062,0.307 -1.062,0.973 0,0.63 0.521,1.026 2.178,1.692 1.729,0.702 2.539,1.314 2.539,2.971 0,2.089 -1.494,3.277 -4.105,3.277 -0.918,0 -2.484,-0.181 -3.33,-0.774 l -0.289,-2.971 z"
             id="path7858" />
          <path
             style="fill:#ffffff"
             inkscape:connector-curvature="0"
             d="m 126.839,34.119 0,5.438 c 0,1.279 0.234,1.801 0.973,1.801 0.252,0 0.414,-0.054 0.631,-0.126 l 0.125,0.504 c -1.061,0.576 -1.908,0.919 -2.951,0.919 -1.639,0 -2.557,-0.631 -2.557,-2.395 l 0,-6.141 -0.92,0 0,-0.828 1.01,0 2.25,-2.143 1.439,0 0,2.143 1.514,0 0,0.828 -1.514,0 z"
             id="path7860" />
          <path
             style="fill:#ffffff"
             inkscape:connector-curvature="0"
             d="m 133.571,33.092 0.072,0.055 0,7.688 c 0,0.918 0.09,0.954 1.008,1.008 l 0,0.576 -5.904,0 0,-0.576 c 0.918,-0.054 1.008,-0.09 1.008,-1.008 l 0,-5.87 c 0,-0.486 -0.09,-0.685 -0.379,-0.738 l -0.521,-0.09 0,-0.576 4.716,-0.469 z m -3.691,-1.8 c 0,-0.847 0.686,-1.495 1.766,-1.495 1.098,0 1.781,0.648 1.781,1.495 0,0.846 -0.684,1.494 -1.781,1.494 -1.081,10e-4 -1.766,-0.648 -1.766,-1.494 z"
             id="path7862" />
          <path
             style="fill:#ffffff"
             inkscape:connector-curvature="0"
             d="m 139.782,34.119 0,5.438 c 0,1.279 0.234,1.801 0.973,1.801 0.252,0 0.414,-0.054 0.629,-0.126 l 0.127,0.504 c -1.062,0.576 -1.908,0.919 -2.953,0.919 -1.639,0 -2.557,-0.631 -2.557,-2.395 l 0,-6.141 -0.918,0 0,-0.828 1.008,0 2.25,-2.143 1.441,0 0,2.143 1.512,0 0,0.828 -1.512,0 z"
             id="path7864" />
          <path
             style="fill:#ffffff"
             inkscape:connector-curvature="0"
             d="m 148.044,41.267 c -0.307,0.216 -1.332,1.387 -2.701,1.387 -1.854,0 -2.988,-0.721 -2.988,-2.863 l 0,-4.987 c 0,-0.486 -0.107,-0.702 -0.396,-0.738 l -0.504,-0.09 0,-0.576 4.574,-0.216 0.107,0.071 0,6.374 c 0,1.026 0.377,1.549 0.846,1.549 0.523,0 0.918,-0.252 0.918,-2.017 l 0,-4.357 c 0,-0.486 -0.107,-0.702 -0.395,-0.738 l -0.506,-0.09 0,-0.576 4.574,-0.216 0.125,0.071 0,7.581 c 0,0.918 0.092,0.954 1.01,1.008 l 0,0.576 -4.395,0 -0.269,-1.153 z"
             id="path7866" />
          <path
             style="fill:#ffffff"
             inkscape:connector-curvature="0"
             d="m 157.942,34.119 0,5.438 c 0,1.279 0.234,1.801 0.973,1.801 0.252,0 0.414,-0.054 0.631,-0.126 l 0.125,0.504 c -1.061,0.576 -1.908,0.919 -2.951,0.919 -1.639,0 -2.557,-0.631 -2.557,-2.395 l 0,-6.141 -0.92,0 0,-0.828 1.01,0 2.25,-2.143 1.439,0 0,2.143 1.514,0 0,0.828 -1.514,0 z"
             id="path7868" />
        </g>
        <g
           id="g7870"
           style="fill:#ffffff">
          <path
             style="fill:#ffffff"
             inkscape:connector-curvature="0"
             d="m 104.81,58.835 c 0,0.918 0.09,0.954 1.008,1.008 l 0,0.576 -4.464,0 -0.162,-0.864 c -0.99,0.738 -1.783,1.099 -2.629,1.099 -2.232,0 -3.475,-1.639 -3.475,-4.735 0,-3.619 2.089,-4.862 4.754,-4.862 0.522,0 0.954,0.072 1.17,0.145 l 0,-1.765 c 0,-0.504 -0.09,-0.702 -0.378,-0.756 l -0.522,-0.072 0,-0.576 4.644,-0.396 0.055,0.036 0,11.162 z m -3.817,-5.816 c 0,-1.242 -0.541,-1.26 -0.829,-1.26 -0.558,0 -1.116,1.044 -1.116,3.799 0,2.827 0.666,3.745 1.314,3.745 0.468,0 0.648,-0.468 0.648,-0.918 l -0.017,-5.366 z"
             id="path7872" />
          <path
             style="fill:#ffffff"
             inkscape:connector-curvature="0"
             d="m 110.55,55.828 c 0.018,1.909 0.631,3.277 2.107,3.277 1.205,0 1.871,-0.216 2.447,-1.458 l 0.469,0.252 c -0.684,2.196 -2.34,2.755 -4.248,2.755 -3.205,0 -4.736,-1.369 -4.736,-4.754 0,-3.15 1.711,-4.844 4.826,-4.844 4.32,0 4.357,2.917 4.357,3.854 0,0.612 -0.162,0.918 -0.775,0.918 l -4.447,0 z m 1.097,-0.774 c 0.469,-0.036 0.613,-0.091 0.613,-0.811 0,-0.612 0,-2.503 -0.811,-2.503 -0.721,0 -0.9,1.818 -0.9,3.385 l 1.098,-0.071 z"
             id="path7874" />
          <path
             style="fill:#ffffff"
             inkscape:connector-curvature="0"
             d="m 116.776,56.909 0.613,0 c 0.576,1.44 1.799,3.079 3.043,3.079 0.611,0 1.061,-0.271 1.061,-1.045 0,-0.702 -0.646,-1.152 -1.891,-1.692 -1.457,-0.612 -2.699,-1.242 -2.699,-3.187 0,-1.927 1.439,-3.008 3.961,-3.008 0.953,0 2.105,0.198 2.971,0.631 l 0,2.719 -0.594,0 c -0.559,-1.513 -1.477,-2.665 -2.395,-2.665 -0.596,0 -1.062,0.307 -1.062,0.973 0,0.63 0.521,1.026 2.178,1.692 1.729,0.702 2.539,1.314 2.539,2.971 0,2.089 -1.494,3.277 -4.105,3.277 -0.918,0 -2.484,-0.181 -3.33,-0.774 l -0.29,-2.971 z"
             id="path7876" />
        </g>
        <g
           id="g7878"
           style="fill:#ffffff">
          <path
             style="fill:#ffffff"
             inkscape:connector-curvature="0"
             d="m 102.361,70.353 c -0.846,-2.251 -1.656,-3.259 -2.827,-3.259 -0.738,0 -1.495,0.306 -1.495,1.458 0,0.937 0.99,1.675 2.232,2.197 2.666,1.152 3.584,1.854 3.584,4.033 0,2.088 -1.279,3.924 -4.898,3.924 -1.117,0 -2.773,-0.305 -3.799,-0.99 l -0.252,-3.493 0.666,0 c 1.062,2.323 1.999,3.782 3.511,3.782 0.9,0 1.458,-0.504 1.458,-1.424 0,-0.701 -0.162,-1.458 -1.981,-2.25 -2.989,-1.278 -3.619,-2.323 -3.619,-4.178 0,-2.341 1.656,-3.727 4.537,-3.727 1.314,0 2.575,0.252 3.565,0.666 l 0,3.259 -0.682,0 z"
             id="path7880" />
          <path
             style="fill:#ffffff"
             inkscape:connector-curvature="0"
             d="m 113.882,69.867 c -0.648,0 -0.793,0.09 -1.062,0.685 -0.541,1.152 -1.746,4.609 -2.754,7.328 -0.865,2.322 -1.477,4.033 -3.188,4.033 -0.955,0 -1.639,-0.521 -1.639,-1.277 0,-0.775 0.648,-1.477 1.35,-1.477 0.396,0 0.504,0.143 0.756,0.396 0.254,0.252 0.486,0.467 0.775,0.467 0.449,0 0.666,-0.467 0.432,-1.008 -0.973,-2.143 -3.043,-6.77 -3.781,-8.319 -0.287,-0.594 -0.377,-0.756 -1.08,-0.828 l 0,-0.576 5.996,0 0,0.576 -0.594,0.072 c -0.342,0.036 -0.361,0.252 -0.217,0.648 0.451,1.314 1.08,2.719 1.621,4.051 l 0.072,0 c 0.449,-1.566 0.936,-3.403 1.08,-4.123 0.072,-0.378 0.018,-0.54 -0.289,-0.576 l -0.648,-0.072 0,-0.576 3.17,0 0,0.576 z"
             id="path7882" />
          <path
             style="fill:#ffffff"
             inkscape:connector-curvature="0"
             d="m 113.968,74.909 0.613,0 c 0.576,1.441 1.801,3.08 3.043,3.08 0.611,0 1.062,-0.271 1.062,-1.045 0,-0.703 -0.648,-1.152 -1.891,-1.693 -1.459,-0.612 -2.701,-1.242 -2.701,-3.186 0,-1.927 1.439,-3.008 3.961,-3.008 0.955,0 2.107,0.198 2.971,0.631 l 0,2.719 -0.594,0 c -0.559,-1.513 -1.477,-2.665 -2.395,-2.665 -0.594,0 -1.062,0.307 -1.062,0.973 0,0.63 0.521,1.026 2.178,1.692 1.729,0.702 2.539,1.314 2.539,2.971 0,2.088 -1.494,3.277 -4.105,3.277 -0.918,0 -2.484,-0.182 -3.33,-0.775 l -0.289,-2.971 z"
             id="path7884" />
          <path
             style="fill:#ffffff"
             inkscape:connector-curvature="0"
             d="m 126.911,70.119 0,5.438 c 0,1.279 0.234,1.801 0.973,1.801 0.252,0 0.414,-0.055 0.631,-0.127 l 0.125,0.504 c -1.061,0.576 -1.908,0.92 -2.951,0.92 -1.639,0 -2.557,-0.631 -2.557,-2.395 l 0,-6.141 -0.92,0 0,-0.828 1.01,0 2.25,-2.143 1.439,0 0,2.143 1.514,0 0,0.828 -1.514,0 z"
             id="path7886" />
          <path
             style="fill:#ffffff"
             inkscape:connector-curvature="0"
             d="m 132.942,73.828 c 0.018,1.909 0.629,3.278 2.105,3.278 1.207,0 1.873,-0.217 2.449,-1.459 l 0.469,0.252 c -0.686,2.197 -2.342,2.756 -4.25,2.756 -3.205,0 -4.736,-1.369 -4.736,-4.754 0,-3.15 1.711,-4.844 4.826,-4.844 4.322,0 4.357,2.917 4.357,3.854 0,0.612 -0.162,0.918 -0.773,0.918 l -4.447,0 z m -0.738,-6.464 c -0.451,-0.359 -0.703,-0.576 -0.703,-0.936 0,-0.486 0.594,-0.919 1.045,-0.919 0.27,0 0.559,0.198 0.811,0.828 l 0.863,2.197 -0.324,0.234 -1.692,-1.404 z m 1.836,5.69 c 0.469,-0.036 0.611,-0.091 0.611,-0.811 0,-0.612 0,-2.503 -0.809,-2.503 -0.721,0 -0.9,1.818 -0.9,3.385 l 1.098,-0.071 z"
             id="path7888" />
          <path
             style="fill:#ffffff"
             inkscape:connector-curvature="0"
             d="m 143.274,69.092 0.234,1.243 c 1.08,-0.721 1.709,-1.279 3.006,-1.279 1.117,0 2.107,0.45 2.504,1.351 1.133,-0.828 1.799,-1.351 3.096,-1.351 1.836,0 2.736,1.117 2.736,2.863 l 0,4.917 c 0,0.918 0.109,0.953 1.01,1.008 l 0,0.576 -5.457,0 0,-0.576 c 0.576,-0.072 0.648,-0.18 0.648,-0.686 l 0,-5.094 c 0,-0.973 -0.305,-1.513 -0.881,-1.513 -0.506,0 -0.9,0.432 -0.9,1.71 l 0,4.897 c 0,0.506 0.07,0.613 0.646,0.686 l 0,0.576 -5.186,0 0,-0.576 c 0.576,-0.072 0.648,-0.18 0.648,-0.686 l 0,-5.094 c 0,-0.973 -0.287,-1.513 -0.881,-1.513 -0.504,0 -0.9,0.432 -0.9,1.71 l 0,4.897 c 0,0.506 0.09,0.613 0.648,0.686 l 0,0.576 -5.457,0 0,-0.576 c 0.918,-0.055 1.01,-0.09 1.01,-1.008 l 0,-5.871 c 0,-0.486 -0.092,-0.685 -0.379,-0.738 l -0.521,-0.09 0,-0.576 4.376,-0.469 z"
             id="path7890" />
          <path
             style="fill:#ffffff"
             inkscape:connector-curvature="0"
             d="m 160.571,73.828 c 0.018,1.909 0.631,3.278 2.107,3.278 1.205,0 1.871,-0.217 2.447,-1.459 l 0.469,0.252 c -0.684,2.197 -2.34,2.756 -4.248,2.756 -3.205,0 -4.736,-1.369 -4.736,-4.754 0,-3.15 1.711,-4.844 4.826,-4.844 4.32,0 4.357,2.917 4.357,3.854 0,0.612 -0.162,0.918 -0.775,0.918 l -4.447,0 z m 1.098,-0.774 c 0.469,-0.036 0.613,-0.091 0.613,-0.811 0,-0.612 0,-2.503 -0.811,-2.503 -0.721,0 -0.9,1.818 -0.9,3.385 l 1.098,-0.071 z"
             id="path7892" />
          <path
             style="fill:#ffffff"
             inkscape:connector-curvature="0"
             d="m 166.78,74.909 0.611,0 c 0.576,1.441 1.801,3.08 3.043,3.08 0.613,0 1.062,-0.271 1.062,-1.045 0,-0.703 -0.648,-1.152 -1.891,-1.693 -1.457,-0.612 -2.701,-1.242 -2.701,-3.186 0,-1.927 1.441,-3.008 3.963,-3.008 0.953,0 2.105,0.198 2.971,0.631 l 0,2.719 -0.596,0 c -0.557,-1.513 -1.477,-2.665 -2.395,-2.665 -0.594,0 -1.062,0.307 -1.062,0.973 0,0.63 0.523,1.026 2.18,1.692 1.729,0.702 2.539,1.314 2.539,2.971 0,2.088 -1.494,3.277 -4.105,3.277 -0.918,0 -2.484,-0.182 -3.332,-0.775 l -0.287,-2.971 z"
             id="path7894" />
        </g>
        <g
           id="g7896"
           style="fill:#ffffff">
          <path
             style="fill:#ffffff"
             inkscape:connector-curvature="0"
             d="m 104.864,88.389 c -0.504,-1.494 -1.404,-3.295 -2.917,-3.295 -2.413,0 -2.701,3.871 -2.701,5.402 0,2.143 0.396,5.545 2.791,5.545 1.603,0 2.161,-1.35 3.062,-3.492 l 0.629,0 -0.287,3.348 c -1.135,0.613 -2.521,0.811 -3.889,0.811 -2.287,0 -3.835,-0.377 -4.952,-1.404 -1.062,-0.953 -1.603,-2.646 -1.603,-4.609 0,-1.781 0.414,-3.457 1.495,-4.555 1.044,-1.081 2.449,-1.711 5.293,-1.711 0.972,0 2.899,0.253 3.708,0.738 l 0,3.223 -0.629,0 z"
             id="path7898" />
          <path
             style="fill:#ffffff"
             inkscape:connector-curvature="0"
             d="m 111.81,96.654 c -3.727,0 -5.076,-1.91 -5.076,-4.791 0,-2.898 1.35,-4.807 5.076,-4.807 3.729,0 5.078,1.908 5.078,4.807 0,2.881 -1.35,4.791 -5.078,4.791 z m 0,-0.666 c 0.848,0 1.117,-1.639 1.117,-4.143 0,-2.377 -0.27,-4.033 -1.117,-4.033 -0.936,0 -1.115,1.801 -1.115,4.033 -10e-4,2.378 0.179,4.143 1.115,4.143 z"
             id="path7900" />
          <path
             style="fill:#ffffff"
             inkscape:connector-curvature="0"
             d="m 122.214,87.092 0.234,1.244 c 1.08,-0.721 1.711,-1.279 3.006,-1.279 1.117,0 2.107,0.449 2.504,1.35 1.135,-0.828 1.801,-1.35 3.096,-1.35 1.838,0 2.738,1.117 2.738,2.863 l 0,4.916 c 0,0.918 0.107,0.953 1.008,1.008 l 0,0.576 -5.455,0 0,-0.576 c 0.576,-0.072 0.648,-0.18 0.648,-0.686 l 0,-5.094 c 0,-0.973 -0.307,-1.514 -0.883,-1.514 -0.504,0 -0.9,0.432 -0.9,1.711 l 0,4.896 c 0,0.506 0.072,0.613 0.648,0.686 l 0,0.576 -5.186,0 0,-0.576 c 0.576,-0.072 0.648,-0.18 0.648,-0.686 l 0,-5.094 c 0,-0.973 -0.289,-1.514 -0.883,-1.514 -0.504,0 -0.9,0.432 -0.9,1.711 l 0,4.896 c 0,0.506 0.09,0.613 0.648,0.686 l 0,0.576 -5.455,0 0,-0.576 c 0.918,-0.055 1.008,-0.09 1.008,-1.008 l 0,-5.871 c 0,-0.486 -0.09,-0.684 -0.379,-0.738 l -0.521,-0.09 0,-0.576 4.376,-0.467 z"
             id="path7902" />
          <path
             style="fill:#ffffff"
             inkscape:connector-curvature="0"
             d="m 139.565,87.092 0.287,1.352 c 0.613,-0.486 1.369,-1.387 2.666,-1.387 3.078,0 3.35,3.223 3.35,4.412 0,2.664 -0.83,5.186 -4.916,5.186 -0.414,0 -0.756,-0.055 -1.062,-0.162 l 0,1.619 c 0,0.918 0.055,0.938 1.135,1.01 l 0,0.576 -5.941,0 0,-0.576 c 0.918,-0.037 1.025,-0.072 1.025,-1.01 l 0,-9.146 c 0,-0.486 -0.107,-0.684 -0.396,-0.738 l -0.504,-0.09 0,-0.576 4.356,-0.47 z m 0.325,7.562 c 0,0.938 0.342,1.352 0.828,1.352 1.08,0 1.188,-2.197 1.188,-3.943 0,-1.441 -0.107,-3.512 -1.17,-3.512 -0.611,0 -0.846,0.541 -0.846,1.26 l 0,4.843 z"
             id="path7904" />
          <path
             style="fill:#ffffff"
             inkscape:connector-curvature="0"
             d="m 146.655,96.42 0,-0.576 c 0.918,-0.055 1.027,-0.09 1.027,-1.008 l 0,-9.4 c 0,-0.503 -0.109,-0.702 -0.396,-0.755 l -0.504,-0.072 0,-0.577 4.609,-0.396 0.072,0.072 0,11.129 c 0,0.918 0.107,0.953 1.025,1.008 l 0,0.576 -5.833,0 z"
             id="path7906" />
          <path
             style="fill:#ffffff"
             inkscape:connector-curvature="0"
             d="m 157.187,91.828 c 0.02,1.908 0.631,3.277 2.107,3.277 1.207,0 1.873,-0.217 2.449,-1.459 l 0.467,0.252 c -0.684,2.197 -2.34,2.756 -4.248,2.756 -3.205,0 -4.736,-1.369 -4.736,-4.754 0,-3.15 1.711,-4.844 4.826,-4.844 4.32,0 4.357,2.916 4.357,3.854 0,0.611 -0.162,0.918 -0.775,0.918 l -4.447,0 z m 1.099,-0.773 c 0.467,-0.037 0.611,-0.092 0.611,-0.811 0,-0.613 0,-2.504 -0.811,-2.504 -0.719,0 -0.9,1.818 -0.9,3.385 l 1.1,-0.07 z"
             id="path7908" />
          <path
             style="fill:#ffffff"
             inkscape:connector-curvature="0"
             d="m 168.202,87.867 -0.467,0.055 c -0.234,0.035 -0.252,0.125 -0.109,0.414 l 0.848,1.637 0.072,0 c 0.342,-0.557 0.611,-1.08 0.9,-1.637 0.143,-0.271 0.125,-0.344 -0.145,-0.379 l -0.721,-0.09 0,-0.576 3.457,0 0,0.576 c -0.701,-0.018 -0.936,0.162 -1.277,0.504 -0.559,0.559 -1.082,1.117 -1.91,2.197 0.828,1.404 1.656,3.24 2.576,4.59 0.342,0.506 0.557,0.613 1.188,0.686 l 0,0.576 -6.176,0 0,-0.576 0.521,-0.072 c 0.271,-0.037 0.344,-0.217 0.217,-0.451 l -1.062,-2.033 -0.035,0 c -0.217,0.359 -0.576,1.133 -1.08,2.053 -0.127,0.252 0,0.414 0.232,0.432 l 0.686,0.072 0,0.576 -3.547,0 0,-0.576 c 0.773,-0.055 1.025,-0.18 1.385,-0.613 0.758,-0.9 1.244,-1.512 2,-2.592 -0.738,-1.207 -1.494,-3.025 -2.287,-4.213 -0.307,-0.434 -0.432,-0.504 -1.098,-0.559 l 0,-0.576 5.832,0 0,0.575 z"
             id="path7910" />
          <path
             style="fill:#ffffff"
             inkscape:connector-curvature="0"
             d="m 176.321,91.828 c 0.018,1.908 0.629,3.277 2.105,3.277 1.207,0 1.873,-0.217 2.449,-1.459 l 0.469,0.252 c -0.686,2.197 -2.342,2.756 -4.25,2.756 -3.205,0 -4.736,-1.369 -4.736,-4.754 0,-3.15 1.711,-4.844 4.826,-4.844 4.322,0 4.357,2.916 4.357,3.854 0,0.611 -0.162,0.918 -0.773,0.918 l -4.447,0 z m 1.098,-0.773 c 0.469,-0.037 0.611,-0.092 0.611,-0.811 0,-0.613 0,-2.504 -0.809,-2.504 -0.721,0 -0.9,1.818 -0.9,3.385 l 1.098,-0.07 z"
             id="path7912" />
          <path
             style="fill:#ffffff"
             inkscape:connector-curvature="0"
             d="m 182.548,92.908 0.611,0 c 0.576,1.441 1.801,3.08 3.043,3.08 0.613,0 1.062,-0.271 1.062,-1.045 0,-0.703 -0.648,-1.152 -1.891,-1.693 -1.457,-0.611 -2.701,-1.242 -2.701,-3.186 0,-1.928 1.441,-3.008 3.963,-3.008 0.953,0 2.105,0.197 2.971,0.631 l 0,2.719 -0.596,0 c -0.557,-1.514 -1.477,-2.666 -2.395,-2.666 -0.594,0 -1.062,0.307 -1.062,0.973 0,0.631 0.523,1.027 2.18,1.693 1.729,0.701 2.539,1.314 2.539,2.971 0,2.088 -1.494,3.277 -4.105,3.277 -0.918,0 -2.484,-0.182 -3.332,-0.775 l -0.287,-2.971 z"
             id="path7914" />
        </g>
        <g
           id="g7916"
           style="fill:#ffffff">
          <path
             style="fill:#ffffff"
             inkscape:connector-curvature="0"
             d="m 140.97,53.6 c 0,0.56 0.1,0.689 0.25,0.749 0.109,0.04 0.25,0.04 0.369,0.03 l 0,0.14 c -0.289,0.17 -0.639,0.271 -1.109,0.271 -0.469,0 -0.639,-0.26 -0.719,-0.609 -0.33,0.209 -0.75,0.609 -1.35,0.609 -0.939,0 -1.359,-0.66 -1.359,-1.369 0,-0.51 0.209,-0.899 0.959,-1.109 0.68,-0.181 1.5,-0.41 1.729,-0.65 l 0,-0.579 c 0,-0.62 -0.26,-0.909 -0.658,-0.909 -0.391,0 -0.689,0.249 -0.859,1.139 -0.051,0.21 -0.17,0.29 -0.371,0.29 -0.229,0 -0.648,-0.14 -0.648,-0.529 0,-0.51 0.699,-1.13 1.998,-1.13 1.609,0 1.77,0.779 1.77,1.359 l 0,2.297 z m -1.231,-1.669 c -0.219,0.109 -0.6,0.27 -0.908,0.439 -0.35,0.16 -0.48,0.399 -0.48,0.85 0,0.569 0.27,1.06 0.76,1.06 0.24,0 0.629,-0.14 0.629,-0.7 l 0,-1.649 z"
             id="path7918" />
          <path
             style="fill:#ffffff"
             inkscape:connector-curvature="0"
             d="m 143.79,53.959 c 0,0.41 0.041,0.44 0.781,0.49 l 0,0.22 -2.629,0 0,-0.22 c 0.549,-0.03 0.59,-0.08 0.59,-0.49 l 0,-3.028 c 0,-0.359 -0.08,-0.449 -0.24,-0.479 l -0.301,-0.04 0,-0.189 1.66,-0.271 0.109,0.899 c 0.59,-0.619 0.859,-0.909 1.25,-0.909 0.398,0 0.619,0.25 0.619,0.609 0,0.34 -0.25,0.74 -0.619,0.74 -0.15,0 -0.26,-0.07 -0.35,-0.15 -0.201,-0.18 -0.33,-0.27 -0.5,-0.27 -0.23,0 -0.371,0.22 -0.371,0.76 l 0,2.328 z"
             id="path7920" />
          <path
             style="fill:#ffffff"
             inkscape:connector-curvature="0"
             d="m 146.542,50.942 c 0,-0.38 -0.07,-0.45 -0.25,-0.48 l -0.281,-0.05 0,-0.189 1.75,-0.271 0.039,0.03 0,3.978 c 0,0.43 0.041,0.45 0.59,0.49 l 0,0.22 -2.428,0 0,-0.22 c 0.529,-0.03 0.58,-0.061 0.58,-0.49 l 0,-3.018 z m 0.619,-2.889 c 0.41,0 0.65,0.3 0.65,0.649 0,0.36 -0.25,0.66 -0.66,0.66 -0.41,0 -0.65,-0.3 -0.65,-0.66 0,-0.35 0.24,-0.649 0.65,-0.649 l 0.01,0 z"
             id="path7922" />
          <path
             style="fill:#ffffff"
             inkscape:connector-curvature="0"
             d="m 151.851,51.491 c -0.17,-0.729 -0.65,-1.309 -1.16,-1.309 -0.439,0 -0.67,0.27 -0.67,0.689 0,0.489 0.41,0.689 0.99,0.909 0.85,0.33 1.35,0.67 1.35,1.479 0,0.97 -0.76,1.529 -1.85,1.529 -0.52,0 -1.141,-0.13 -1.439,-0.39 l -0.11,-1.398 0.209,0 c 0.221,0.779 0.76,1.559 1.389,1.559 0.41,0 0.74,-0.21 0.74,-0.709 0,-0.46 -0.34,-0.72 -0.969,-0.97 -0.811,-0.319 -1.32,-0.729 -1.32,-1.449 0,-0.93 0.67,-1.489 1.719,-1.489 0.471,0 0.951,0.1 1.32,0.31 l 0,1.239 -0.199,0 z"
             id="path7924" />
        </g>
        <g
           id="g7926"
           style="fill:#ffffff">
          <path
             style="fill:#ffffff"
             inkscape:connector-curvature="0"
             d="m 133.21,61.879 c 0,0.48 0.061,0.54 0.73,0.57 l 0,0.22 -2.818,0 0,-0.22 c 0.699,-0.03 0.729,-0.07 0.729,-0.57 l 0,-5.007 c 0,-0.489 -0.029,-0.54 -0.729,-0.58 l 0,-0.22 2.818,0 0,0.22 c -0.66,0.04 -0.73,0.07 -0.73,0.58 l 0,5.007 z"
             id="path7928" />
          <path
             style="fill:#ffffff"
             inkscape:connector-curvature="0"
             d="m 134.882,56.393 c 0,-0.38 -0.07,-0.47 -0.24,-0.5 l -0.33,-0.05 0,-0.2 1.818,-0.18 0.012,0.01 0,6.497 c 0,0.419 0.039,0.439 0.588,0.479 l 0,0.22 -2.438,0 0,-0.22 c 0.549,-0.03 0.59,-0.061 0.59,-0.479 l 0,-5.577 z"
             id="path7930" />
          <path
             style="fill:#ffffff"
             inkscape:connector-curvature="0"
             d="m 138.601,60.201 c -0.01,1.079 0.291,2.029 1.279,2.029 0.689,0 1.08,-0.311 1.379,-0.97 l 0.17,0.08 c -0.299,0.84 -0.859,1.449 -1.959,1.449 -1.699,0 -2.197,-1.069 -2.197,-2.419 0,-1.329 0.59,-2.429 2.229,-2.429 1.789,0 1.969,1.249 1.969,1.909 0,0.26 -0.141,0.35 -0.48,0.35 l -2.39,0 z m 1.279,-0.25 c 0.24,0 0.311,-0.09 0.311,-0.35 0,-0.609 -0.1,-1.419 -0.75,-1.419 -0.689,0 -0.84,1.069 -0.84,1.769 l 1.279,0 z"
             id="path7932" />
          <path
             style="fill:#ffffff"
             inkscape:connector-curvature="0"
             d="m 147.03,55.883 -0.391,-0.05 0,-0.2 1.859,-0.17 0.02,0.02 0,6.477 c 0,0.42 0.061,0.46 0.619,0.49 l 0,0.22 -1.867,0 0,-0.51 c -0.51,0.399 -1.041,0.63 -1.42,0.63 -1.15,0 -1.818,-0.79 -1.818,-2.329 0,-0.839 0.26,-1.509 0.689,-1.919 0.43,-0.399 0.979,-0.6 1.668,-0.6 0.34,0 0.66,0.05 0.881,0.15 l 0,-1.709 c 10e-4,-0.4 -0.08,-0.48 -0.24,-0.5 z m 0.241,3.258 c 0,-0.22 0,-0.409 -0.08,-0.56 -0.111,-0.22 -0.35,-0.399 -0.74,-0.399 -0.66,0 -1.09,0.609 -1.09,2.108 0,1.17 0.43,1.989 1.109,1.989 0.33,0 0.551,-0.1 0.67,-0.32 0.109,-0.149 0.131,-0.35 0.131,-0.56 l 0,-2.258 z"
             id="path7934" />
          <path
             style="fill:#ffffff"
             inkscape:connector-curvature="0"
             d="m 150.979,60.201 c -0.01,1.079 0.291,2.029 1.279,2.029 0.691,0 1.08,-0.311 1.381,-0.97 l 0.17,0.08 c -0.301,0.84 -0.859,1.449 -1.959,1.449 -1.699,0 -2.199,-1.069 -2.199,-2.419 0,-1.329 0.59,-2.429 2.229,-2.429 1.789,0 1.969,1.249 1.969,1.909 0,0.26 -0.141,0.35 -0.48,0.35 l -2.39,0 z m 1.28,-0.25 c 0.24,0 0.311,-0.09 0.311,-0.35 0,-0.609 -0.1,-1.419 -0.75,-1.419 -0.689,0 -0.84,1.069 -0.84,1.769 l 1.279,0 z"
             id="path7936" />
          <path
             style="fill:#ffffff"
             inkscape:connector-curvature="0"
             d="m 161.179,56.073 0,1.72 -0.221,0 c -0.299,-1.08 -0.559,-1.439 -1.568,-1.439 l -0.66,0 c -0.279,0 -0.34,0.06 -0.34,0.35 l 0,2.559 1.189,0 c 0.66,0 0.779,-0.279 0.92,-0.959 l 0.221,0 0,2.196 -0.221,0 c -0.141,-0.68 -0.26,-0.959 -0.92,-0.959 l -1.189,0 0,2.338 c 0,0.5 0.061,0.53 0.881,0.57 l 0,0.22 -2.969,0 0,-0.22 c 0.648,-0.04 0.729,-0.07 0.729,-0.57 l 0,-5.007 c 0,-0.51 -0.029,-0.54 -0.729,-0.58 l 0,-0.22 4.877,0 z"
             id="path7938" />
          <path
             style="fill:#ffffff"
             inkscape:connector-curvature="0"
             d="m 163.63,61.959 c 0,0.41 0.041,0.44 0.779,0.49 l 0,0.22 -2.629,0 0,-0.22 c 0.551,-0.03 0.59,-0.08 0.59,-0.49 l 0,-3.028 c 0,-0.359 -0.08,-0.449 -0.238,-0.479 l -0.301,-0.04 0,-0.189 1.66,-0.271 0.109,0.899 c 0.59,-0.619 0.859,-0.909 1.248,-0.909 0.4,0 0.621,0.25 0.621,0.609 0,0.34 -0.25,0.74 -0.621,0.74 -0.148,0 -0.26,-0.07 -0.35,-0.15 -0.199,-0.18 -0.33,-0.27 -0.5,-0.27 -0.229,0 -0.369,0.22 -0.369,0.76 l 0,2.328 z"
             id="path7940" />
          <path
             style="fill:#ffffff"
             inkscape:connector-curvature="0"
             d="m 169.729,61.6 c 0,0.56 0.1,0.689 0.25,0.749 0.109,0.04 0.25,0.04 0.369,0.03 l 0,0.14 c -0.289,0.17 -0.641,0.271 -1.109,0.271 -0.471,0 -0.641,-0.26 -0.721,-0.609 -0.328,0.209 -0.748,0.609 -1.348,0.609 -0.939,0 -1.359,-0.66 -1.359,-1.369 0,-0.51 0.209,-0.899 0.959,-1.109 0.68,-0.181 1.5,-0.41 1.729,-0.65 l 0,-0.579 c 0,-0.62 -0.26,-0.909 -0.66,-0.909 -0.389,0 -0.689,0.249 -0.859,1.139 -0.049,0.21 -0.17,0.29 -0.369,0.29 -0.23,0 -0.65,-0.14 -0.65,-0.529 0,-0.51 0.701,-1.13 2,-1.13 1.609,0 1.77,0.779 1.77,1.359 l 0,2.297 z m -1.23,-1.669 c -0.219,0.109 -0.6,0.27 -0.908,0.439 -0.352,0.16 -0.48,0.399 -0.48,0.85 0,0.569 0.27,1.06 0.76,1.06 0.24,0 0.629,-0.14 0.629,-0.7 l 0,-1.649 z"
             id="path7942" />
          <path
             style="fill:#ffffff"
             inkscape:connector-curvature="0"
             d="m 175.538,61.99 c 0,0.43 0.041,0.42 0.59,0.46 l 0,0.22 -2.389,0 0,-0.22 c 0.4,-0.03 0.539,-0.021 0.539,-0.45 l 0,-2.608 c 0,-0.619 -0.279,-0.939 -0.789,-0.939 -0.42,0 -0.719,0.229 -0.85,0.479 -0.061,0.13 -0.09,0.34 -0.09,0.55 l 0,2.518 c 0,0.43 0.141,0.41 0.529,0.45 l 0,0.22 -2.378,0 0,-0.22 c 0.551,-0.03 0.59,-0.07 0.59,-0.5 l 0,-2.998 c 0,-0.39 -0.059,-0.47 -0.238,-0.49 l -0.301,-0.05 0,-0.189 1.67,-0.271 0.129,0.67 c 0.609,-0.37 1.039,-0.68 1.609,-0.68 0.949,0 1.379,0.58 1.379,1.479 l 0,2.569 z"
             id="path7944" />
          <path
             style="fill:#ffffff"
             inkscape:connector-curvature="0"
             d="m 180.798,61.32 c -0.289,1.069 -1.109,1.46 -1.979,1.46 -1.359,0 -2.148,-0.8 -2.148,-2.369 0,-1.459 0.77,-2.469 2.338,-2.469 0.9,0 1.709,0.4 1.709,1.01 0,0.399 -0.41,0.56 -0.709,0.56 -0.23,0 -0.379,-0.09 -0.42,-0.3 -0.109,-0.64 -0.24,-1.029 -0.709,-1.029 -0.49,0 -0.881,0.669 -0.881,1.969 0,1.379 0.531,2.079 1.25,2.079 0.539,0 1.059,-0.19 1.398,-0.979 l 0.151,0.068 z"
             id="path7946" />
          <path
             style="fill:#ffffff"
             inkscape:connector-curvature="0"
             d="m 182.7,60.201 c -0.01,1.079 0.289,2.029 1.279,2.029 0.689,0 1.08,-0.311 1.379,-0.97 l 0.17,0.08 c -0.299,0.84 -0.859,1.449 -1.959,1.449 -1.699,0 -2.199,-1.069 -2.199,-2.419 0,-1.329 0.59,-2.429 2.229,-2.429 1.789,0 1.971,1.249 1.971,1.909 0,0.26 -0.141,0.35 -0.48,0.35 l -2.39,0 z m 1.279,-0.25 c 0.24,0 0.311,-0.09 0.311,-0.35 0,-0.609 -0.102,-1.419 -0.75,-1.419 -0.689,0 -0.84,1.069 -0.84,1.769 l 1.279,0 z"
             id="path7948" />
        </g>
        <path
           style="fill:#ffffff"
           inkscape:connector-curvature="0"
           d="m 135.669,48.413 c -0.459,-0.279 -0.979,-0.34 -1.729,-0.34 l -2.828,0 0,0.22 c 0.699,0.04 0.738,0.07 0.738,0.57 l 0,5.007 c 0,0.066 0,0.123 -0.002,0.174 l 0.553,-0.611 0.229,0 0.574,0.619 C 133.202,53.999 133.2,53.94 133.2,53.87 l 0,-1.858 c 0.141,0.02 0.371,0.04 0.58,0.04 0.779,0 1.33,-0.13 1.748,-0.4 0.531,-0.31 0.881,-0.839 0.881,-1.659 0,-0.75 -0.269,-1.29 -0.74,-1.58 z m -1.859,3.398 c -0.389,0 -0.609,-0.08 -0.609,-0.43 l 0,-2.719 c 0,-0.27 0.031,-0.35 0.541,-0.35 0.709,0 1.268,0.55 1.268,1.709 -0.001,0.99 -0.251,1.79 -1.2,1.79 z"
           id="path7950" />
        <path
           style="fill:#ffffff"
           inkscape:connector-curvature="0"
           d="m 133.8,55.536 -1.158,-0.63 c -0.09,-0.061 -0.18,-0.07 -0.271,0 l -1.119,0.63 -0.109,-0.15 1.26,-1.39 0.229,0 1.291,1.39 -0.123,0.15 z"
           id="path7952" />
      </g>
      <g
         id="g7954"
         transform="matrix(0.81881233,0,0,-0.81881233,828.97897,1029.3278)"
         inkscape:export-filename="/home/mathieu/Documents/ISC/sodata/comunications/citeDesSciences_05-2014/img/isc.png"
         inkscape:export-xdpi="130.82674"
         inkscape:export-ydpi="130.82674">
        <g
           id="g7956"
           clip-path="url(#clipPath2630-4)"
           transform="translate(0.4,-1.20213)">
          <g
             id="g7958">
            <g
               id="g7960">
              <g
                 id="g7962">
                <path
                   style="fill:url(#radialGradient8018)"
                   id="path7964"
                   d="m 145.96,559.44 c -9.15,0.56 -17.4,-3.01 -24.52,-10.63 -9.27,-9.91 -9.1,-16.85 -6.57,-29.28 1.66,-8.15 6.5,-16.02 13.27,-21.59 7.88,-6.47 17.13,-8.13 26.76,-4.81 10.61,3.66 20.76,14.15 24.69,25.5 4.27,12.37 0.99,23.59 -9.02,30.77 -8.61,6.18 -16.89,9.56 -24.61,10.04"
                   inkscape:connector-curvature="0" />
              </g>
            </g>
          </g>
          <g
             style="fill-rule:nonzero"
             id="g7966">
            <path
               style="fill:#ffffff"
               id="path7968"
               d="m 142.74,498.04 c 0,-0.29 0.23,-0.39 0.9,-0.39 0.56,0 0.91,0.07 0.91,0.42 0,0.34 -0.35,0.42 -0.87,0.42 -0.6,0 -0.94,-0.07 -0.94,-0.45 z m 1.84,0.45 0,-0.01 c 0.16,-0.07 0.37,-0.19 0.37,-0.55 0,-0.58 -0.48,-0.81 -1.33,-0.81 -1.1,0 -1.27,0.39 -1.27,0.77 0,0.26 0.13,0.47 0.35,0.56 l 0,0.01 -1.1,0 0,0.5 3.29,0 0,-0.47"
               inkscape:connector-curvature="0" />
            <path
               style="fill:#ffffff"
               id="path7970"
               d="m 143.37,500.66 -0.13,0 c -0.31,0 -0.55,-0.1 -0.55,-0.39 0,-0.31 0.31,-0.41 0.63,-0.41 l 0.05,0 0,0.8 z m 0.34,-0.8 0.15,0 c 0.33,0 0.75,0.04 0.75,0.41 0,0.36 -0.41,0.4 -0.55,0.4 l 0,0.47 c 0.54,0 0.89,-0.33 0.89,-0.87 0,-0.4 -0.12,-0.91 -1.26,-0.91 -0.65,0 -1.34,0.14 -1.34,0.92 0,0.69 0.41,0.87 1.1,0.87 l 0.26,0 0,-1.29 z m -2.28,0.48 0,0.55 0.66,-0.49 0,-0.34"
               inkscape:connector-curvature="0" />
            <path
               style="fill:#ffffff"
               id="path7972"
               d="m 144.55,502.46 c 0,0.28 -0.21,0.41 -0.89,0.41 -0.56,0 -0.92,-0.07 -0.92,-0.42 0,-0.34 0.35,-0.42 0.88,-0.42 0.59,0 0.93,0.08 0.93,0.43 z m -2.14,-0.9 0,0.47 0.3,0 0,0.01 c -0.22,0.1 -0.36,0.29 -0.36,0.56 0,0.56 0.48,0.79 1.33,0.79 1.04,0 1.27,-0.42 1.27,-0.76 0,-0.27 -0.13,-0.47 -0.35,-0.56 l 0,-0.01 1.1,0 0,-0.5"
               inkscape:connector-curvature="0" />
            <path
               style="fill:#ffffff"
               id="path7974"
               d="m 143.58,504.93 c 0.1,-0.13 0.16,-0.4 0.23,-0.55 0.07,-0.14 0.22,-0.2 0.4,-0.2 0.21,0 0.37,0.1 0.37,0.3 0,0.3 -0.22,0.45 -0.59,0.45 l -0.41,0 z m 0.79,0.47 c 0.09,0 0.18,0.05 0.18,0.13 0,0.03 -0.01,0.06 -0.02,0.08 l 0.32,0 c 0.03,-0.06 0.06,-0.15 0.06,-0.24 0,-0.22 -0.08,-0.41 -0.32,-0.42 l 0,-0.01 c 0.24,-0.13 0.36,-0.33 0.36,-0.62 0,-0.39 -0.22,-0.64 -0.69,-0.64 -0.56,0 -0.67,0.24 -0.78,0.57 l -0.11,0.39 c -0.05,0.18 -0.1,0.29 -0.32,0.29 -0.22,0 -0.36,-0.08 -0.36,-0.34 0,-0.33 0.23,-0.38 0.47,-0.38 l 0,-0.47 c -0.52,0 -0.81,0.22 -0.81,0.87 0,0.44 0.17,0.79 0.6,0.79"
               inkscape:connector-curvature="0" />
            <path
               style="fill:#ffffff"
               id="path7976"
               d="m 143.13,506.97 -0.06,0 c -0.2,0 -0.38,-0.07 -0.38,-0.32 0,-0.2 0.09,-0.36 0.32,-0.36 0.19,0 0.27,0.09 0.36,0.35 l 0.11,0.32 c 0.13,0.37 0.32,0.54 0.72,0.54 0.52,0 0.75,-0.39 0.75,-0.89 0,-0.63 -0.29,-0.82 -0.77,-0.82 l -0.09,0 0,0.45 0.08,0 c 0.28,0 0.44,0.1 0.44,0.38 0,0.27 -0.14,0.41 -0.36,0.41 -0.19,0 -0.31,-0.1 -0.37,-0.27 l -0.14,-0.41 c -0.13,-0.37 -0.32,-0.53 -0.71,-0.53 -0.47,0 -0.68,0.34 -0.68,0.85 0,0.63 0.36,0.77 0.67,0.77 l 0.11,0"
               inkscape:connector-curvature="0" />
            <path
               style="fill:#ffffff"
               id="path7978"
               d="m 143.13,508.93 -0.06,0 c -0.2,0 -0.38,-0.07 -0.38,-0.32 0,-0.2 0.09,-0.36 0.32,-0.36 0.19,0 0.27,0.09 0.36,0.35 l 0.11,0.32 c 0.13,0.37 0.32,0.54 0.72,0.54 0.52,0 0.75,-0.39 0.75,-0.89 0,-0.63 -0.29,-0.82 -0.77,-0.82 l -0.09,0 0,0.45 0.08,0 c 0.28,0 0.44,0.1 0.44,0.38 0,0.27 -0.14,0.41 -0.36,0.41 -0.19,0 -0.31,-0.1 -0.37,-0.27 l -0.14,-0.41 c -0.13,-0.37 -0.32,-0.53 -0.71,-0.53 -0.47,0 -0.68,0.34 -0.68,0.85 0,0.63 0.36,0.77 0.67,0.77 l 0.11,0"
               inkscape:connector-curvature="0" />
            <path
               style="fill:#ffffff"
               id="path7980"
               d="m 143.37,511.05 -0.13,0 c -0.31,0 -0.55,-0.1 -0.55,-0.38 0,-0.32 0.31,-0.42 0.63,-0.42 l 0.05,0 0,0.8 z m 0.34,-0.8 0.15,0 c 0.33,0 0.75,0.04 0.75,0.42 0,0.35 -0.41,0.39 -0.55,0.39 l 0,0.47 c 0.54,0 0.89,-0.33 0.89,-0.87 0,-0.4 -0.12,-0.9 -1.26,-0.9 -0.65,0 -1.34,0.13 -1.34,0.91 0,0.69 0.41,0.87 1.1,0.87 l 0.26,0"
               inkscape:connector-curvature="0" />
            <path
               style="fill:#ffffff"
               id="path7982"
               d="m 142.41,511.95 0,0.5 0.39,0 0,0.01 c -0.28,0.11 -0.45,0.29 -0.45,0.57 0,0.06 0.01,0.09 0.01,0.12 l 0.51,0 c -0.01,-0.03 -0.03,-0.12 -0.03,-0.2 0,-0.23 0.1,-0.5 0.56,-0.5 l 1.49,0 0,-0.5"
               inkscape:connector-curvature="0" />
            <path
               style="fill:#ffffff"
               id="path7984"
               d="m 141.6,514.41 3.29,0 0,0.27 -3.29,0 0,-0.27 z"
               inkscape:connector-curvature="0" />
            <path
               style="fill:#ffffff"
               id="path7986"
               d="m 143.45,516.47 c -0.61,-0.01 -0.83,-0.18 -0.83,-0.52 0,-0.34 0.22,-0.51 0.83,-0.52 l 0,1.04 z m 0.63,0.27 c 0.52,-0.04 0.86,-0.33 0.86,-0.79 0,-0.51 -0.36,-0.82 -1.28,-0.82 -0.84,0 -1.27,0.31 -1.27,0.85 0,0.54 0.37,0.78 1.18,0.78 l 0.11,0 0,-1.33 0.11,0 c 0.7,0 0.92,0.25 0.92,0.52 0,0.29 -0.21,0.47 -0.63,0.51"
               inkscape:connector-curvature="0" />
            <path
               style="fill:#ffffff"
               id="path7988"
               d="m 143.67,517.58 c -0.13,-0.34 -0.33,-0.47 -0.58,-0.47 -0.5,0 -0.7,0.31 -0.7,0.73 0,0.46 0.23,0.67 0.68,0.67 l 0.07,0 0,-0.28 -0.07,0 c -0.32,0 -0.45,-0.14 -0.45,-0.4 0,-0.32 0.17,-0.44 0.41,-0.44 0.17,0 0.31,0.05 0.41,0.33 l 0.15,0.4 c 0.13,0.33 0.36,0.45 0.62,0.45 0.42,0 0.73,-0.23 0.73,-0.75 0,-0.5 -0.21,-0.75 -0.76,-0.75 l -0.08,0 0,0.28 0.07,0 c 0.36,0 0.54,0.15 0.54,0.47 0,0.29 -0.16,0.48 -0.44,0.48 -0.21,0 -0.35,-0.09 -0.45,-0.33"
               inkscape:connector-curvature="0" />
            <path
               style="fill:#ffffff"
               id="path7990"
               d="m 142.78,520.14 0,-0.35 -0.37,0 0,0.35 -0.23,0 c -0.47,0 -0.62,0.22 -0.62,0.63 0,0.1 0.01,0.2 0.02,0.27 l 0.38,0 0,-0.14 c 0,-0.18 0.07,-0.27 0.23,-0.27 l 0.22,0 0,0.41 0.37,0 0,-0.41 2.11,0 0,-0.49"
               inkscape:connector-curvature="0" />
            <path
               style="fill:#ffffff"
               id="path7992"
               d="m 142.41,521.26 0,0.5 0.39,0 0,0.01 c -0.28,0.11 -0.45,0.29 -0.45,0.57 0,0.06 0.01,0.09 0.01,0.12 l 0.51,0 c -0.01,-0.03 -0.03,-0.12 -0.03,-0.2 0,-0.23 0.1,-0.5 0.56,-0.5 l 1.49,0 0,-0.5"
               inkscape:connector-curvature="0" />
            <path
               style="fill:#ffffff"
               id="path7994"
               d="m 144.58,523.54 c 0,0.36 -0.3,0.42 -0.93,0.42 -0.55,0 -0.94,-0.06 -0.94,-0.42 0,-0.36 0.39,-0.43 0.94,-0.43 0.63,0 0.93,0.07 0.93,0.43 z m -2.23,0 c 0,0.72 0.53,0.92 1.3,0.92 0.77,0 1.3,-0.23 1.3,-0.92 0,-0.69 -0.53,-0.92 -1.3,-0.92 -0.77,0 -1.3,0.2 -1.3,0.92"
               inkscape:connector-curvature="0" />
            <path
               style="fill:#ffffff"
               id="path7996"
               d="m 142.41,524.84 0,0.47 0.29,0 0,0.02 c -0.22,0.12 -0.35,0.36 -0.35,0.63 0,0.38 0.17,0.62 0.67,0.62 l 1.87,0 0,-0.5 -1.7,0 c -0.32,0 -0.45,-0.1 -0.45,-0.34 0,-0.21 0.16,-0.4 0.49,-0.4 l 1.66,0 0,-0.5"
               inkscape:connector-curvature="0" />
            <path
               style="fill:#ffffff"
               id="path7998"
               d="m 142.41,526.83 0,0.34 -0.7,0 0,0.5 0.7,0 0,0.41 0.37,0 0,-0.41 1.48,0 c 0.19,0 0.26,0.06 0.26,0.23 0,0.07 -0.01,0.13 -0.02,0.18 l 0.37,0 c 0.03,-0.11 0.04,-0.25 0.04,-0.4 0,-0.34 -0.09,-0.51 -0.6,-0.51 l -1.53,0 0,-0.34"
               inkscape:connector-curvature="0" />
            <path
               style="fill:#ffffff"
               id="path8000"
               d="m 142.41,528.36 0,0.49 2.48,0 0,-0.49 -2.48,0 z m -0.85,0 0,0.49 0.5,0 0,-0.49"
               inkscape:connector-curvature="0" />
            <path
               style="fill:#ffffff"
               id="path8002"
               d="m 143.37,530.58 -0.13,0 c -0.31,0 -0.55,-0.1 -0.55,-0.38 0,-0.32 0.31,-0.42 0.63,-0.42 l 0.05,0 0,0.8 z m 0.34,-0.8 0.15,0 c 0.33,0 0.75,0.04 0.75,0.42 0,0.35 -0.41,0.39 -0.55,0.39 l 0,0.47 c 0.54,0 0.89,-0.33 0.89,-0.87 0,-0.4 -0.12,-0.9 -1.26,-0.9 -0.65,0 -1.34,0.13 -1.34,0.91 0,0.69 0.41,0.88 1.1,0.88 l 0.26,0 0,-1.3 z m -2.28,-0.12 0,0.56 0.66,0.27 0,-0.34"
               inkscape:connector-curvature="0" />
            <path
               style="fill:#ffffff"
               id="path8004"
               d="m 142.41,531.49 0,0.49 0.39,0 0,0.01 c -0.28,0.11 -0.45,0.3 -0.45,0.58 0,0.05 0.01,0.08 0.01,0.12 l 0.51,0 c -0.01,-0.04 -0.03,-0.13 -0.03,-0.21 0,-0.23 0.1,-0.5 0.56,-0.5 l 1.49,0 0,-0.49"
               inkscape:connector-curvature="0" />
            <path
               style="fill:#ffffff"
               id="path8006"
               d="m 143.37,534.13 -0.13,0 c -0.31,0 -0.55,-0.1 -0.55,-0.38 0,-0.32 0.31,-0.41 0.63,-0.41 l 0.05,0 0,0.79 z m 0.34,-0.79 0.15,0 c 0.33,0 0.75,0.04 0.75,0.41 0,0.35 -0.41,0.39 -0.55,0.39 l 0,0.47 c 0.54,0 0.89,-0.33 0.89,-0.87 0,-0.4 -0.12,-0.9 -1.26,-0.9 -0.65,0 -1.34,0.14 -1.34,0.91 0,0.69 0.41,0.88 1.1,0.88 l 0.26,0"
               inkscape:connector-curvature="0" />
            <path
               style="fill:#ffffff"
               id="path8008"
               d="m 143.13,536.1 -0.06,0 c -0.2,0 -0.38,-0.06 -0.38,-0.32 0,-0.2 0.09,-0.36 0.32,-0.36 0.19,0 0.27,0.09 0.36,0.35 l 0.11,0.32 c 0.13,0.37 0.32,0.54 0.72,0.54 0.52,0 0.75,-0.39 0.75,-0.89 0,-0.62 -0.29,-0.81 -0.77,-0.81 l -0.09,0 0,0.44 0.08,0 c 0.28,0 0.44,0.1 0.44,0.38 0,0.28 -0.14,0.41 -0.36,0.41 -0.19,0 -0.31,-0.1 -0.37,-0.27 l -0.14,-0.41 c -0.13,-0.37 -0.32,-0.53 -0.71,-0.53 -0.47,0 -0.68,0.34 -0.68,0.85 0,0.63 0.36,0.77 0.67,0.77 l 0.11,0"
               inkscape:connector-curvature="0" />
            <path
               style="fill:#ffffff"
               id="path8010"
               d="m 134.71,527.18 -2.33,0 -0.01,-0.07 c -0.01,-0.45 -0.28,-4.42 -3.84,-4.42 -3.17,0 -4.78,2.84 -4.78,8.45 0,5.61 1.61,8.46 4.78,8.46 3.62,0 3.84,-4.24 3.84,-4.42 l 0.01,-0.07 2.33,0 c 0.22,0 0.43,0.09 0.58,0.24 0.14,0.15 0.21,0.34 0.2,0.54 -0.05,1.1 -0.61,6.59 -6.99,6.59 -5.15,0 -7.88,-3.91 -7.88,-11.32 0,-7.43 2.73,-11.36 7.88,-11.36 6.14,0 6.9,5.02 6.99,6.56 0.02,0.21 -0.06,0.41 -0.2,0.57 -0.15,0.16 -0.36,0.25 -0.58,0.25"
               inkscape:connector-curvature="0" />
            <path
               style="fill:#66cde2"
               id="path8012"
               d="m 168.57,532.49 -2.01,0.88 c -1.94,0.85 -2.62,1.67 -2.62,3.16 0,1.93 1.41,3.23 3.52,3.23 1.24,0 2.26,-0.26 3.51,-1.53 l 0.07,-0.07 1.07,0.98 c 0.62,0.58 0.44,1.1 0.18,1.43 -1.05,1.24 -2.72,1.92 -4.73,1.92 -3.87,0 -6.67,-2.53 -6.67,-6 0,-3.42 2.15,-4.85 4.48,-5.89 l 2.05,-0.91 c 2.06,-0.92 3.04,-1.71 3.04,-3.7 0,-2.7 -2.44,-3.42 -3.89,-3.42 -1.24,0 -2.62,0.27 -4.32,2.19 l -0.07,0.08 -1.12,-0.99 c -0.57,-0.5 -0.58,-0.93 -0.02,-1.66 1.54,-1.97 3.8,-2.39 5.42,-2.39 3.5,0 7.05,2.16 7.05,6.27 0,3.56 -1.97,5.14 -4.94,6.42"
               inkscape:connector-curvature="0" />
            <path
               style="fill:#66cde2"
               id="path8014"
               d="m 150.35,536 c 0,3.5 -2.84,6.46 -6.34,6.46 -1.65,0 -3.15,-0.62 -4.27,-1.66 l 0,1.21 -2.11,0 c -0.64,0 -0.88,-0.42 -0.88,-0.89 l 0,-20.44 c 0,-0.57 0.35,-0.88 0.87,-0.88 l 2.11,0 0,16.07 c 0,2.11 1.71,3.82 3.82,3.82 2.11,0 3.82,-1.71 3.82,-3.82 l 0,-16.07 2.1,0 c 0.58,0 0.88,0.32 0.88,0.88 l 0,15.32"
               inkscape:connector-curvature="0" />
            <path
               style="fill:#ffffff"
               id="path8016"
               d="m 161.25,540.94 c 0.11,0.13 0.17,0.3 0.17,0.49 0,0.35 -0.22,0.65 -0.54,0.76 -0.61,0.2 -1.26,0.31 -1.94,0.31 -1.64,0 -3.14,-0.63 -4.27,-1.66 l 0,1.21 -2.11,0 c -0.64,0 -0.88,-0.42 -0.88,-0.89 l 0,-20.44 c 0,-0.57 0.35,-0.88 0.87,-0.88 l 2.11,0 0,16.07 c 0,2.11 1.71,3.82 3.82,3.82 0.56,0 1.08,-0.12 1.55,-0.33 l 1.22,1.53"
               inkscape:connector-curvature="0" />
          </g>
        </g>
      </g>
    </g>
    <g
       id="g9253"
       transform="matrix(0.79802653,0,0,0.79802653,450.44403,336.93063)">
      <rect
         y="93.608978"
         x="398.2034"
         height="247.49048"
         width="262.58838"
         id="rect9255"
         style="fill:#e6e6e6;fill-rule:evenodd;stroke:#666666;stroke-width:2;stroke-linecap:butt;stroke-linejoin:miter;stroke-miterlimit:4;stroke-dasharray:none;stroke-opacity:1" />
      <g
         id="g9257"
         transform="translate(332.18138,-644.54781)">
        <ellipse
           style="opacity:0.8;fill:#2c5aa0;fill-opacity:1;stroke:none;stroke-width:1;stroke-linecap:square;stroke-linejoin:miter;stroke-miterlimit:4;stroke-dasharray:none;stroke-dashoffset:0;stroke-opacity:1"
           id="ellipse9259"
           cx="197.31621"
           cy="862.50354"
           rx="88.239258"
           ry="73.532715" />
        <flowRoot
           xml:space="preserve"
           id="flowRoot9261"
           style="font-style:normal;font-weight:normal;font-size:28.92174339px;line-height:125%;font-family:'Bitstream Vera Sans';text-align:center;letter-spacing:0px;word-spacing:0px;text-anchor:middle;fill:#ffffff;fill-opacity:1;stroke:none;stroke-width:1px;stroke-linecap:butt;stroke-linejoin:miter;stroke-opacity:1"
           transform="translate(-206.93509,86.665119)"><flowRegion
             id="flowRegion9263"><rect
               id="rect9265"
               width="264.71777"
               height="157.29607"
               x="273.81064"
               y="762.41071"
               style="text-align:center;text-anchor:middle;fill:#ffffff" /></flowRegion><flowPara
             id="flowPara9267"
             style="line-height:38.99999857%;fill:#ffffff">Production</flowPara><flowPara
             id="flowPara9269"> Instance</flowPara></flowRoot>        <path
           inkscape:connector-curvature="0"
           id="path9271"
           d="m 255.50897,787.76869 c -6.65464,0.14724 -11.96011,4.90857 -11.96011,10.79481 l 0,4.58964 -3.21857,0 0,15.60812 0.005,0 c -0.005,0.11274 -0.005,0.22578 -0.005,0.33967 0,4.53294 3.77767,8.18102 8.4729,8.18102 l 14.03829,0 c 4.69527,0 8.47764,-3.64808 8.47764,-8.18102 0,-0.11386 -0.005,-0.22697 -0.009,-0.33967 l 0.009,0 0,-15.60812 -3.21388,0 0,-4.58964 c 0,-5.97968 -5.47316,-10.79481 -12.27583,-10.79481 -0.1063,0 -0.21481,-0.002 -0.32044,0 z m -0.0566,3.14814 c 0.0808,-10e-4 0.16384,0 0.24505,0 3.88901,-0.0799 7.71158,2.44918 8.5059,5.80748 0.13521,2.14281 0.21137,4.28395 0.25449,6.42883 l -17.23803,0 c -0.005,-1.0256 -0.01,-2.04873 -0.033,-3.07357 -0.98438,-4.38553 3.178,-9.05759 8.26558,-9.16274 z m 0.35814,17.94438 c 0.18349,0 0.36903,0.0126 0.55607,0.0373 1.9951,0.26309 3.37174,1.89565 3.07249,3.64936 -0.13779,0.80752 -0.61171,1.50238 -1.27234,1.9883 l 1.27705,7.03774 -3.59556,0 -0.0518,0 -3.59085,0 1.27234,-7.03774 c -0.94119,-0.6948 -1.46331,-1.79431 -1.26763,-2.94101 0.27123,-1.58931 1.82652,-2.72968 3.60029,-2.73391 z"
           style="opacity:0.98000004;fill:#d40000;fill-opacity:1;stroke:#000000;stroke-width:0;stroke-linejoin:miter;stroke-miterlimit:4;stroke-dasharray:none;stroke-dashoffset:0;stroke-opacity:1" />
      </g>
    </g>
    <g
       id="g9273"
       transform="matrix(0.79802653,0,0,0.79802653,450.44403,336.93063)">
      <rect
         style="fill:#5176ae;fill-opacity:1;fill-rule:evenodd;stroke:#000000;stroke-width:0.90303576px;stroke-linecap:butt;stroke-linejoin:miter;stroke-opacity:1"
         id="rect9275"
         width="107.0109"
         height="81.456062"
         x="593.71307"
         y="293.11447" />
      <flowRoot
         xml:space="preserve"
         id="flowRoot9277"
         style="font-style:normal;font-weight:normal;font-size:40px;line-height:125%;font-family:'Bitstream Vera Sans';text-align:center;letter-spacing:0px;word-spacing:0px;text-anchor:middle;fill:#ffffff;fill-opacity:1;stroke:none;stroke-width:1px;stroke-linecap:butt;stroke-linejoin:miter;stroke-opacity:1"
         transform="matrix(0.75770683,0,0,0.75770683,378.43905,-87.110144)"><flowRegion
           id="flowRegion9279"><rect
             id="rect9281"
             width="366.11594"
             height="217.54715"
             x="171.56157"
             y="530.60278"
             style="text-align:center;text-anchor:middle;fill:#ffffff" /></flowRegion><flowPara
           id="flowPara9283">Lab 2</flowPara></flowRoot>    </g>
    <rect
       style="fill:#e6e6e6;fill-rule:evenodd;stroke:#666666;stroke-width:1.596053;stroke-linecap:butt;stroke-linejoin:miter;stroke-miterlimit:4;stroke-dasharray:none;stroke-opacity:1"
       id="rect9351"
       width="209.55249"
       height="197.50397"
       x="797.54156"
       y="774.78101" />
    <g
       transform="matrix(0.79802653,0,0,0.79802653,744.85422,185.71228)"
       id="g9353">
      <ellipse
         ry="73.532715"
         rx="88.239258"
         cy="862.50354"
         cx="197.31621"
         id="ellipse9355"
         style="opacity:0.8;fill:#2c5aa0;fill-opacity:1;stroke:none;stroke-width:1;stroke-linecap:square;stroke-linejoin:miter;stroke-miterlimit:4;stroke-dasharray:none;stroke-dashoffset:0;stroke-opacity:1" />
      <flowRoot
         transform="translate(-206.93509,86.665119)"
         style="font-style:normal;font-weight:normal;font-size:28.92174339px;line-height:125%;font-family:'Bitstream Vera Sans';text-align:center;letter-spacing:0px;word-spacing:0px;text-anchor:middle;fill:#ffffff;fill-opacity:1;stroke:none;stroke-width:1px;stroke-linecap:butt;stroke-linejoin:miter;stroke-opacity:1"
         id="flowRoot9357"
         xml:space="preserve"><flowRegion
           id="flowRegion9359"><rect
             style="text-align:center;text-anchor:middle;fill:#ffffff"
             y="762.41071"
             x="273.81064"
             height="157.29607"
             width="264.71777"
             id="rect9361" /></flowRegion><flowPara
           style="line-height:38.99999857%;fill:#ffffff"
           id="flowPara9363">Production</flowPara><flowPara
           id="flowPara9365"> Instance</flowPara></flowRoot>      <path
         style="opacity:0.98000004;fill:#d40000;fill-opacity:1;stroke:#000000;stroke-width:0;stroke-linejoin:miter;stroke-miterlimit:4;stroke-dasharray:none;stroke-dashoffset:0;stroke-opacity:1"
         d="m 255.50897,787.76869 c -6.65464,0.14724 -11.96011,4.90857 -11.96011,10.79481 l 0,4.58964 -3.21857,0 0,15.60812 0.005,0 c -0.005,0.11274 -0.005,0.22578 -0.005,0.33967 0,4.53294 3.77767,8.18102 8.4729,8.18102 l 14.03829,0 c 4.69527,0 8.47764,-3.64808 8.47764,-8.18102 0,-0.11386 -0.005,-0.22697 -0.009,-0.33967 l 0.009,0 0,-15.60812 -3.21388,0 0,-4.58964 c 0,-5.97968 -5.47316,-10.79481 -12.27583,-10.79481 -0.1063,0 -0.21481,-0.002 -0.32044,0 z m -0.0566,3.14814 c 0.0808,-10e-4 0.16384,0 0.24505,0 3.88901,-0.0799 7.71158,2.44918 8.5059,5.80748 0.13521,2.14281 0.21137,4.28395 0.25449,6.42883 l -17.23803,0 c -0.005,-1.0256 -0.01,-2.04873 -0.033,-3.07357 -0.98438,-4.38553 3.178,-9.05759 8.26558,-9.16274 z m 0.35814,17.94438 c 0.18349,0 0.36903,0.0126 0.55607,0.0373 1.9951,0.26309 3.37174,1.89565 3.07249,3.64936 -0.13779,0.80752 -0.61171,1.50238 -1.27234,1.9883 l 1.27705,7.03774 -3.59556,0 -0.0518,0 -3.59085,0 1.27234,-7.03774 c -0.94119,-0.6948 -1.46331,-1.79431 -1.26763,-2.94101 0.27123,-1.58931 1.82652,-2.72968 3.60029,-2.73391 z"
         id="path9367"
         inkscape:connector-curvature="0" />
    </g>
    <g
       id="g9369"
       transform="matrix(0.79802653,0,0,0.79802653,479.76467,700.07853)">
      <rect
         style="fill:#5176ae;fill-opacity:1;fill-rule:evenodd;stroke:#000000;stroke-width:0.90303576px;stroke-linecap:butt;stroke-linejoin:miter;stroke-opacity:1"
         id="rect9371"
         width="107.0109"
         height="81.456062"
         x="593.71307"
         y="293.11447" />
      <flowRoot
         xml:space="preserve"
         id="flowRoot9373"
         style="font-style:normal;font-weight:normal;font-size:40px;line-height:125%;font-family:'Bitstream Vera Sans';text-align:center;letter-spacing:0px;word-spacing:0px;text-anchor:middle;fill:#ffffff;fill-opacity:1;stroke:none;stroke-width:1px;stroke-linecap:butt;stroke-linejoin:miter;stroke-opacity:1"
         transform="matrix(0.75770683,0,0,0.75770683,378.43905,-87.110144)"><flowRegion
           id="flowRegion9375"><rect
             id="rect9377"
             width="366.11594"
             height="217.54715"
             x="171.56157"
             y="530.60278"
             style="text-align:center;text-anchor:middle;fill:#ffffff" /></flowRegion><flowPara
           id="flowPara9379">Lab n</flowPara></flowRoot>    </g>
    <g
       id="g9585"
       transform="matrix(0.79802653,0,0,0.79802653,-269.35538,359.69999)">
      <rect
         y="93.608978"
         x="398.2034"
         height="247.49048"
         width="262.58838"
         id="rect9587"
         style="fill:#e6e6e6;fill-rule:evenodd;stroke:#666666;stroke-width:2;stroke-linecap:butt;stroke-linejoin:miter;stroke-miterlimit:4;stroke-dasharray:none;stroke-opacity:1" />
      <g
         id="g9589"
         transform="translate(332.18138,-644.54781)">
        <ellipse
           style="opacity:0.8;fill:#2c5aa0;fill-opacity:1;stroke:none;stroke-width:1;stroke-linecap:square;stroke-linejoin:miter;stroke-miterlimit:4;stroke-dasharray:none;stroke-dashoffset:0;stroke-opacity:1"
           id="ellipse9591"
           cx="197.31621"
           cy="862.50354"
           rx="88.239258"
           ry="73.532715" />
        <flowRoot
           xml:space="preserve"
           id="flowRoot9593"
           style="font-style:normal;font-weight:normal;font-size:28.92174339px;line-height:125%;font-family:'Bitstream Vera Sans';text-align:center;letter-spacing:0px;word-spacing:0px;text-anchor:middle;fill:#ffffff;fill-opacity:1;stroke:none;stroke-width:1px;stroke-linecap:butt;stroke-linejoin:miter;stroke-opacity:1"
           transform="translate(-206.93509,86.665119)"><flowRegion
             id="flowRegion9595"><rect
               id="rect9597"
               width="264.71777"
               height="157.29607"
               x="273.81064"
               y="762.41071"
               style="text-align:center;text-anchor:middle;fill:#ffffff" /></flowRegion><flowPara
             id="flowPara9599"
             style="line-height:38.99999857%;fill:#ffffff">Production</flowPara><flowPara
             id="flowPara9601"> Instance</flowPara></flowRoot>        <path
           inkscape:connector-curvature="0"
           id="path9603"
           d="m 255.50897,787.76869 c -6.65464,0.14724 -11.96011,4.90857 -11.96011,10.79481 l 0,4.58964 -3.21857,0 0,15.60812 0.005,0 c -0.005,0.11274 -0.005,0.22578 -0.005,0.33967 0,4.53294 3.77767,8.18102 8.4729,8.18102 l 14.03829,0 c 4.69527,0 8.47764,-3.64808 8.47764,-8.18102 0,-0.11386 -0.005,-0.22697 -0.009,-0.33967 l 0.009,0 0,-15.60812 -3.21388,0 0,-4.58964 c 0,-5.97968 -5.47316,-10.79481 -12.27583,-10.79481 -0.1063,0 -0.21481,-0.002 -0.32044,0 z m -0.0566,3.14814 c 0.0808,-10e-4 0.16384,0 0.24505,0 3.88901,-0.0799 7.71158,2.44918 8.5059,5.80748 0.13521,2.14281 0.21137,4.28395 0.25449,6.42883 l -17.23803,0 c -0.005,-1.0256 -0.01,-2.04873 -0.033,-3.07357 -0.98438,-4.38553 3.178,-9.05759 8.26558,-9.16274 z m 0.35814,17.94438 c 0.18349,0 0.36903,0.0126 0.55607,0.0373 1.9951,0.26309 3.37174,1.89565 3.07249,3.64936 -0.13779,0.80752 -0.61171,1.50238 -1.27234,1.9883 l 1.27705,7.03774 -3.59556,0 -0.0518,0 -3.59085,0 1.27234,-7.03774 c -0.94119,-0.6948 -1.46331,-1.79431 -1.26763,-2.94101 0.27123,-1.58931 1.82652,-2.72968 3.60029,-2.73391 z"
           style="opacity:0.98000004;fill:#d40000;fill-opacity:1;stroke:#000000;stroke-width:0;stroke-linejoin:miter;stroke-miterlimit:4;stroke-dasharray:none;stroke-dashoffset:0;stroke-opacity:1" />
      </g>
    </g>
    <path
       style="fill:none;fill-rule:evenodd;stroke:#000000;stroke-width:1px;stroke-linecap:butt;stroke-linejoin:miter;stroke-opacity:1"
       d="M 385.61677,761.26713 254.95952,631.90641"
       id="path9648"
       inkscape:connector-type="polyline"
       inkscape:connector-curvature="0"
       inkscape:connection-end="#g9585" />
    <path
       style="fill:none;fill-rule:evenodd;stroke:#000000;stroke-width:1px;stroke-linecap:butt;stroke-linejoin:miter;stroke-opacity:1"
       d="M 591.00925,765.30159 768.22091,603.84572"
       id="path9650"
       inkscape:connector-type="polyline"
       inkscape:connector-curvature="0"
       inkscape:connection-end="#g9253" />
    <g
       id="g9605"
       transform="matrix(0.79802653,0,0,0.79802653,-272.1025,365.94716)">
      <rect
         style="fill:#5176ae;fill-opacity:1;fill-rule:evenodd;stroke:#000000;stroke-width:0.90303576px;stroke-linecap:butt;stroke-linejoin:miter;stroke-opacity:1"
         id="rect9607"
         width="107.0109"
         height="81.456062"
         x="593.71307"
         y="293.11447" />
      <flowRoot
         xml:space="preserve"
         id="flowRoot9609"
         style="font-style:normal;font-weight:normal;font-size:40px;line-height:125%;font-family:'Bitstream Vera Sans';text-align:center;letter-spacing:0px;word-spacing:0px;text-anchor:middle;fill:#ffffff;fill-opacity:1;stroke:none;stroke-width:1px;stroke-linecap:butt;stroke-linejoin:miter;stroke-opacity:1"
         transform="matrix(0.75770683,0,0,0.75770683,378.43905,-87.110144)"><flowRegion
           id="flowRegion9611"><rect
             id="rect9613"
             width="366.11594"
             height="217.54715"
             x="171.56157"
             y="530.60278"
             style="text-align:center;text-anchor:middle;fill:#ffffff" /></flowRegion><flowPara
           id="flowPara9615">Lab 1</flowPara><flowPara
           id="flowPara9617" /></flowRoot>    </g>
    <path
       style="fill:none;fill-rule:evenodd;stroke:#000000;stroke-width:1px;stroke-linecap:butt;stroke-linejoin:miter;stroke-opacity:1"
       d="M 257.97399,513.1538 523.67656,467.50595"
       id="path4317"
       inkscape:connector-type="polyline"
       inkscape:connector-curvature="0"
       inkscape:connection-start="#g9585" />
    <path
       style="fill:none;fill-rule:evenodd;stroke:#000000;stroke-width:1px;stroke-linecap:butt;stroke-linejoin:miter;stroke-opacity:1"
       d="m 523.67656,467.50595 244.54435,28.61771"
       id="path4341"
       inkscape:connector-type="polyline"
       inkscape:connector-curvature="0"
       inkscape:connection-end="#g9253" />
    <path
       style="fill:none;fill-rule:evenodd;stroke:#000000;stroke-width:1px;stroke-linecap:butt;stroke-linejoin:miter;stroke-opacity:1"
       d="M 894.50603,774.78101 881.13189,609.13705"
       id="path4352"
       inkscape:connector-type="polyline"
       inkscape:connector-curvature="0"
       inkscape:connection-start="#rect9351"
       inkscape:connection-end="#g9253" />
    <path
       style="fill:none;fill-rule:evenodd;stroke:#000000;stroke-width:1px;stroke-linecap:butt;stroke-linejoin:miter;stroke-opacity:1"
       d="m 514.0654,566.25793 -18.6028,195.0092"
       id="path4363"
       inkscape:connector-type="polyline"
       inkscape:connector-curvature="0"
       inkscape:connection-start="#rect9319"
       inkscape:connection-end="#g4306" />
    <rect
       y="368.75397"
       x="418.90033"
       height="197.50397"
       width="209.55249"
       id="rect9319"
       style="fill:#e6e6e6;fill-rule:evenodd;stroke:#666666;stroke-width:1.596053;stroke-linecap:butt;stroke-linejoin:miter;stroke-miterlimit:4;stroke-dasharray:none;stroke-opacity:1" />
    <g
       id="g9321"
       transform="matrix(0.79802653,0,0,0.79802653,366.21299,-220.31473)">
      <ellipse
         style="opacity:0.8;fill:#2c5aa0;fill-opacity:1;stroke:none;stroke-width:1;stroke-linecap:square;stroke-linejoin:miter;stroke-miterlimit:4;stroke-dasharray:none;stroke-dashoffset:0;stroke-opacity:1"
         id="ellipse9323"
         cx="197.31621"
         cy="862.50354"
         rx="88.239258"
         ry="73.532715" />
      <flowRoot
         xml:space="preserve"
         id="flowRoot9325"
         style="font-style:normal;font-weight:normal;font-size:28.92174339px;line-height:125%;font-family:'Bitstream Vera Sans';text-align:center;letter-spacing:0px;word-spacing:0px;text-anchor:middle;fill:#ffffff;fill-opacity:1;stroke:none;stroke-width:1px;stroke-linecap:butt;stroke-linejoin:miter;stroke-opacity:1"
         transform="translate(-206.93509,86.665119)"><flowRegion
           id="flowRegion9327"><rect
             id="rect9329"
             width="264.71777"
             height="157.29607"
             x="273.81064"
             y="762.41071"
             style="text-align:center;text-anchor:middle;fill:#ffffff" /></flowRegion><flowPara
           id="flowPara9331"
           style="line-height:38.99999857%;fill:#ffffff">Production</flowPara><flowPara
           id="flowPara9333"> Instance</flowPara></flowRoot>      <path
         inkscape:connector-curvature="0"
         id="path9335"
         d="m 255.50897,787.76869 c -6.65464,0.14724 -11.96011,4.90857 -11.96011,10.79481 l 0,4.58964 -3.21857,0 0,15.60812 0.005,0 c -0.005,0.11274 -0.005,0.22578 -0.005,0.33967 0,4.53294 3.77767,8.18102 8.4729,8.18102 l 14.03829,0 c 4.69527,0 8.47764,-3.64808 8.47764,-8.18102 0,-0.11386 -0.005,-0.22697 -0.009,-0.33967 l 0.009,0 0,-15.60812 -3.21388,0 0,-4.58964 c 0,-5.97968 -5.47316,-10.79481 -12.27583,-10.79481 -0.1063,0 -0.21481,-0.002 -0.32044,0 z m -0.0566,3.14814 c 0.0808,-10e-4 0.16384,0 0.24505,0 3.88901,-0.0799 7.71158,2.44918 8.5059,5.80748 0.13521,2.14281 0.21137,4.28395 0.25449,6.42883 l -17.23803,0 c -0.005,-1.0256 -0.01,-2.04873 -0.033,-3.07357 -0.98438,-4.38553 3.178,-9.05759 8.26558,-9.16274 z m 0.35814,17.94438 c 0.18349,0 0.36903,0.0126 0.55607,0.0373 1.9951,0.26309 3.37174,1.89565 3.07249,3.64936 -0.13779,0.80752 -0.61171,1.50238 -1.27234,1.9883 l 1.27705,7.03774 -3.59556,0 -0.0518,0 -3.59085,0 1.27234,-7.03774 c -0.94119,-0.6948 -1.46331,-1.79431 -1.26763,-2.94101 0.27123,-1.58931 1.82652,-2.72968 3.60029,-2.73391 z"
         style="opacity:0.98000004;fill:#d40000;fill-opacity:1;stroke:#000000;stroke-width:0;stroke-linejoin:miter;stroke-miterlimit:4;stroke-dasharray:none;stroke-dashoffset:0;stroke-opacity:1" />
    </g>
    <g
       transform="matrix(0.79802653,0,0,0.79802653,98.379342,305.49873)"
       id="g9337">
      <rect
         y="293.11447"
         x="593.71307"
         height="81.456062"
         width="107.0109"
         id="rect9339"
         style="fill:#5176ae;fill-opacity:1;fill-rule:evenodd;stroke:#000000;stroke-width:0.90303576px;stroke-linecap:butt;stroke-linejoin:miter;stroke-opacity:1" />
      <flowRoot
         transform="matrix(0.75770683,0,0,0.75770683,378.43905,-87.110144)"
         style="font-style:normal;font-weight:normal;font-size:40px;line-height:125%;font-family:'Bitstream Vera Sans';text-align:center;letter-spacing:0px;word-spacing:0px;text-anchor:middle;fill:#ffffff;fill-opacity:1;stroke:none;stroke-width:1px;stroke-linecap:butt;stroke-linejoin:miter;stroke-opacity:1"
         id="flowRoot9341"
         xml:space="preserve"><flowRegion
           id="flowRegion9343"><rect
             style="text-align:center;text-anchor:middle;fill:#ffffff"
             y="530.60278"
             x="171.56157"
             height="217.54715"
             width="366.11594"
             id="rect9345" /></flowRegion><flowPara
           id="flowPara9347">Lab 3</flowPara></flowRoot>    </g>
  </g>
</svg>
